DrDrape-tgt_Regular.ufo
<glyph name="exclam" format="2">
  <advance width="408"/>
  <unicode hex="0021"/>
  <outline>
    <contour>
      <point x="255" y="307" type="line"/>
      <point x="279" y="1069" type="line"/>
      <point x="279" y="1428" type="line"/>
      <point x="130" y="1428" type="line"/>
      <point x="130" y="1069" type="line"/>
      <point x="155" y="307" type="line"/>
    </contour>
    <contour>
      <point x="330" y="0" type="line"/>
      <point x="330" y="179" type="line"/>
      <point x="79" y="179" type="line"/>
      <point x="79" y="0" type="line"/>
    </contour>
  </outline>
</glyph>
<glyph name="quotedbl" format="2">
  <advance width="629"/>
  <unicode hex="0022"/>
  <outline>
    <contour>
      <point x="189" y="1031" type="line"/>
      <point x="222" y="1237" type="line"/>
      <point x="222" y="1428" type="line"/>
      <point x="81" y="1428" type="line"/>
      <point x="81" y="1237" type="line"/>
      <point x="114" y="1031" type="line"/>
    </contour>
    <contour>
      <point x="517" y="1031" type="line"/>
      <point x="549" y="1237" type="line"/>
      <point x="549" y="1428" type="line"/>
      <point x="406" y="1428" type="line"/>
      <point x="406" y="1237" type="line"/>
      <point x="439" y="1031" type="line"/>
    </contour>
  </outline>
</glyph>
<glyph name="numbersign" format="2">
  <advance width="1067"/>
  <unicode hex="0023"/>
  <outline>
    <contour>
      <point x="236" y="0" type="line"/>
      <point x="346" y="387" type="line"/>
      <point x="541" y="387" type="line"/>
      <point x="432" y="0" type="line"/>
      <point x="568" y="0" type="line"/>
      <point x="678" y="387" type="line"/>
      <point x="840" y="387" type="line"/>
      <point x="870" y="514" type="line"/>
      <point x="704" y="514" type="line"/>
      <point x="820" y="880" type="line"/>
      <point x="986" y="880" type="line"/>
      <point x="1014" y="1007" type="line"/>
      <point x="845" y="1007" type="line"/>
      <point x="972" y="1428" type="line"/>
      <point x="834" y="1428" type="line"/>
      <point x="708" y="1007" type="line"/>
      <point x="513" y="1007" type="line"/>
      <point x="638" y="1428" type="line"/>
      <point x="500" y="1428" type="line"/>
      <point x="375" y="1007" type="line"/>
      <point x="219" y="1007" type="line"/>
      <point x="189" y="880" type="line"/>
      <point x="350" y="880" type="line"/>
      <point x="235" y="514" type="line"/>
      <point x="81" y="514" type="line"/>
      <point x="50" y="387" type="line"/>
      <point x="209" y="387" type="line"/>
      <point x="98" y="0" type="line"/>
    </contour>
    <contour>
      <point x="487" y="880" type="line"/>
      <point x="683" y="880" type="line"/>
      <point x="568" y="514" type="line"/>
      <point x="371" y="514" type="line"/>
    </contour>
  </outline>
</glyph>
<glyph name="dollar" format="2">
  <advance width="850"/>
  <unicode hex="0024"/>
  <anchor x="427" y="0" name="bottom"/>
  <anchor x="427" y="1428" name="top"/>
  <outline>
    <contour>
      <point x="490" y="-170" type="line"/>
      <point x="490" y="-10" type="line"/>
      <point x="684" y="8"/>
      <point x="772" y="85"/>
      <point x="779" y="249" type="curve"/>
      <point x="785" y="333"/>
      <point x="787" y="378"/>
      <point x="781" y="474" type="curve" smooth="yes"/>
      <point x="774" y="637"/>
      <point x="736" y="733"/>
      <point x="513" y="769" type="curve" smooth="yes"/>
      <point x="374" y="791" type="line"/>
      <point x="240" y="807"/>
      <point x="220" y="856"/>
      <point x="215" y="949" type="curve" smooth="yes"/>
      <point x="209" y="1035"/>
      <point x="207" y="1121"/>
      <point x="215" y="1205" type="curve" smooth="yes"/>
      <point x="222" y="1280"/>
      <point x="277" y="1315"/>
      <point x="427" y="1315" type="curve" smooth="yes"/>
      <point x="569" y="1315"/>
      <point x="628" y="1280"/>
      <point x="633" y="1205" type="curve" smooth="yes"/>
      <point x="639" y="1112"/>
      <point x="640" y="1018"/>
      <point x="632" y="924" type="curve"/>
      <point x="767" y="924" type="line"/>
      <point x="772" y="1021"/>
      <point x="773" y="1118"/>
      <point x="769" y="1181" type="curve"/>
      <point x="764" y="1342"/>
      <point x="680" y="1420"/>
      <point x="490" y="1437" type="curve"/>
      <point x="490" y="1613" type="line"/>
      <point x="363" y="1613" type="line"/>
      <point x="363" y="1437" type="line"/>
      <point x="159" y="1420"/>
      <point x="78" y="1344"/>
      <point x="75" y="1181" type="curve" smooth="yes"/>
      <point x="74" y="1105"/>
      <point x="69" y="1021"/>
      <point x="74" y="949" type="curve"/>
      <point x="81" y="782"/>
      <point x="118" y="695"/>
      <point x="342" y="657" type="curve"/>
      <point x="484" y="630" type="line"/>
      <point x="612" y="612"/>
      <point x="634" y="554"/>
      <point x="640" y="474" type="curve" smooth="yes"/>
      <point x="646" y="372"/>
      <point x="648" y="316"/>
      <point x="640" y="224" type="curve" smooth="yes"/>
      <point x="632" y="148"/>
      <point x="578" y="114"/>
      <point x="429" y="114" type="curve" smooth="yes"/>
      <point x="277" y="114"/>
      <point x="218" y="148"/>
      <point x="212" y="224" type="curve" smooth="yes"/>
      <point x="205" y="317"/>
      <point x="205" y="419"/>
      <point x="212" y="521" type="curve"/>
      <point x="77" y="521" type="line"/>
      <point x="70" y="421"/>
      <point x="68" y="348"/>
      <point x="74" y="249" type="curve" smooth="yes"/>
      <point x="81" y="87"/>
      <point x="167" y="9"/>
      <point x="363" y="-8" type="curve"/>
      <point x="363" y="-170" type="line"/>
    </contour>
  </outline>
</glyph>
<glyph name="percent" format="2">
  <advance width="1372"/>
  <unicode hex="0025"/>
  <outline>
    <contour>
      <point x="210" y="0" type="line"/>
      <point x="1280" y="1428" type="line"/>
      <point x="1170" y="1428" type="line"/>
      <point x="100" y="0" type="line"/>
    </contour>
    <contour>
      <point x="1004" y="-8" type="curve" smooth="yes"/>
      <point x="1142" y="-8"/>
      <point x="1216" y="50"/>
      <point x="1224" y="148" type="curve"/>
      <point x="1227" y="259"/>
      <point x="1227" y="382"/>
      <point x="1224" y="499" type="curve"/>
      <point x="1216" y="595"/>
      <point x="1142" y="651"/>
      <point x="1004" y="651" type="curve" smooth="yes"/>
      <point x="863" y="651"/>
      <point x="787" y="595"/>
      <point x="785" y="499" type="curve" smooth="yes"/>
      <point x="781" y="382"/>
      <point x="781" y="259"/>
      <point x="785" y="148" type="curve" smooth="yes"/>
      <point x="787" y="48"/>
      <point x="865" y="-8"/>
    </contour>
    <contour>
      <point x="1004" y="84" type="curve" smooth="yes"/>
      <point x="930" y="84"/>
      <point x="892" y="106"/>
      <point x="893" y="130" type="curve"/>
      <point x="885" y="235"/>
      <point x="885" y="403"/>
      <point x="893" y="514" type="curve"/>
      <point x="893" y="540"/>
      <point x="930" y="560"/>
      <point x="1004" y="560" type="curve" smooth="yes"/>
      <point x="1077" y="560"/>
      <point x="1111" y="540"/>
      <point x="1116" y="515" type="curve"/>
      <point x="1124" y="403"/>
      <point x="1124" y="234"/>
      <point x="1116" y="130" type="curve"/>
      <point x="1109" y="103"/>
      <point x="1074" y="84"/>
    </contour>
    <contour>
      <point x="324" y="776" type="curve" smooth="yes"/>
      <point x="463" y="776"/>
      <point x="536" y="833"/>
      <point x="544" y="931" type="curve"/>
      <point x="548" y="1042"/>
      <point x="548" y="1165"/>
      <point x="544" y="1282" type="curve"/>
      <point x="536" y="1378"/>
      <point x="463" y="1434"/>
      <point x="324" y="1434" type="curve" smooth="yes"/>
      <point x="183" y="1434"/>
      <point x="107" y="1378"/>
      <point x="106" y="1282" type="curve" smooth="yes"/>
      <point x="102" y="1165"/>
      <point x="102" y="1042"/>
      <point x="106" y="931" type="curve" smooth="yes"/>
      <point x="107" y="832"/>
      <point x="186" y="776"/>
    </contour>
    <contour>
      <point x="324" y="867" type="curve" smooth="yes"/>
      <point x="250" y="867"/>
      <point x="213" y="890"/>
      <point x="214" y="913" type="curve"/>
      <point x="206" y="1018"/>
      <point x="206" y="1186"/>
      <point x="214" y="1297" type="curve"/>
      <point x="214" y="1323"/>
      <point x="250" y="1344"/>
      <point x="324" y="1344" type="curve" smooth="yes"/>
      <point x="398" y="1344"/>
      <point x="432" y="1323"/>
      <point x="437" y="1298" type="curve"/>
      <point x="445" y="1187"/>
      <point x="445" y="1017"/>
      <point x="437" y="913" type="curve"/>
      <point x="430" y="886"/>
      <point x="395" y="867"/>
    </contour>
  </outline>
</glyph>
<glyph name="ampersand" format="2">
  <advance width="891"/>
  <unicode hex="0026"/>
  <outline>
    <contour>
      <point x="368" y="-13" type="curve" smooth="yes"/>
      <point x="504" y="-13"/>
      <point x="579" y="27"/>
      <point x="612" y="122" type="curve"/>
      <point x="647" y="78"/>
      <point x="679" y="37"/>
      <point x="709" y="0" type="curve"/>
      <point x="802" y="89" type="line"/>
      <point x="760" y="142"/>
      <point x="707" y="213"/>
      <point x="650" y="297" type="curve"/>
      <point x="656" y="423"/>
      <point x="648" y="600"/>
      <point x="633" y="722" type="curve"/>
      <point x="517" y="720" type="line"/>
      <point x="526" y="639"/>
      <point x="532" y="551"/>
      <point x="536" y="477" type="curve"/>
      <point x="482" y="561"/>
      <point x="431" y="651"/>
      <point x="387" y="742" type="curve"/>
      <point x="398" y="756"/>
      <point x="410" y="771"/>
      <point x="421" y="785" type="curve"/>
      <point x="522" y="899"/>
      <point x="586" y="1030"/>
      <point x="594" y="1178" type="curve" smooth="yes"/>
      <point x="604" y="1353"/>
      <point x="530" y="1441"/>
      <point x="358" y="1441" type="curve" smooth="yes"/>
      <point x="187" y="1441"/>
      <point x="114" y="1341"/>
      <point x="126" y="1171" type="curve"/>
      <point x="129" y="1051"/>
      <point x="169" y="912"/>
      <point x="232" y="770" type="curve"/>
      <point x="175" y="710"/>
      <point x="123" y="642"/>
      <point x="113" y="531" type="curve"/>
      <point x="101" y="449"/>
      <point x="99" y="388"/>
      <point x="102" y="248" type="curve" smooth="yes"/>
      <point x="107" y="64"/>
      <point x="182" y="-13"/>
    </contour>
    <contour>
      <point x="371" y="114" type="curve" smooth="yes"/>
      <point x="280" y="114"/>
      <point x="240" y="156"/>
      <point x="237" y="245" type="curve" smooth="yes"/>
      <point x="233" y="392"/>
      <point x="236" y="451"/>
      <point x="248" y="521" type="curve"/>
      <point x="254" y="564"/>
      <point x="275" y="598"/>
      <point x="296" y="628" type="curve"/>
      <point x="360" y="501"/>
      <point x="436" y="377"/>
      <point x="514" y="264" type="curve"/>
      <point x="509" y="162"/>
      <point x="488" y="114"/>
    </contour>
    <contour>
      <point x="331" y="868" type="curve"/>
      <point x="283" y="985"/>
      <point x="252" y="1098"/>
      <point x="251" y="1193" type="curve" smooth="yes"/>
      <point x="251" y="1281"/>
      <point x="278" y="1332"/>
      <point x="358" y="1332" type="curve" smooth="yes"/>
      <point x="451" y="1332"/>
      <point x="480" y="1281"/>
      <point x="470" y="1178" type="curve"/>
      <point x="466" y="1075"/>
      <point x="426" y="975"/>
    </contour>
  </outline>
</glyph>
<glyph name="quotesingle" format="2">
  <advance width="340"/>
  <unicode hex="0027"/>
  <outline>
    <contour>
      <point x="213" y="1031" type="line"/>
      <point x="255" y="1237" type="line"/>
      <point x="255" y="1428" type="line"/>
      <point x="86" y="1428" type="line"/>
      <point x="86" y="1237" type="line"/>
      <point x="127" y="1031" type="line"/>
    </contour>
  </outline>
</glyph>
<glyph name="parenleft" format="2">
  <advance width="539"/>
  <unicode hex="0028"/>
  <outline>
    <contour>
      <point x="490" y="-356" type="line"/>
      <point x="292" y="-92"/>
      <point x="191" y="234"/>
      <point x="191" y="536" type="curve" smooth="yes"/>
      <point x="191" y="837"/>
      <point x="292" y="1155"/>
      <point x="490" y="1428" type="curve"/>
      <point x="380" y="1428" type="line"/>
      <point x="160" y="1190"/>
      <point x="50" y="850"/>
      <point x="50" y="541" type="curve" smooth="yes"/>
      <point x="50" y="208"/>
      <point x="166" y="-129"/>
      <point x="380" y="-356" type="curve"/>
    </contour>
  </outline>
</glyph>
<glyph name="parenright" format="2">
  <advance width="539"/>
  <unicode hex="0029"/>
  <outline>
    <contour>
      <point x="161" y="-356" type="line"/>
      <point x="374" y="-129"/>
      <point x="490" y="208"/>
      <point x="490" y="541" type="curve" smooth="yes"/>
      <point x="490" y="850"/>
      <point x="380" y="1190"/>
      <point x="161" y="1428" type="curve"/>
      <point x="50" y="1428" type="line"/>
      <point x="249" y="1155"/>
      <point x="348" y="837"/>
      <point x="348" y="536" type="curve" smooth="yes"/>
      <point x="348" y="234"/>
      <point x="249" y="-92"/>
      <point x="50" y="-356" type="curve"/>
    </contour>
  </outline>
</glyph>
<glyph name="asterisk" format="2">
  <advance width="813"/>
  <unicode hex="002A"/>
  <outline>
    <contour>
      <point x="92" y="1115" type="line"/>
      <point x="373" y="1193" type="line"/>
      <point x="361" y="1050" type="line"/>
      <point x="453" y="1050" type="line"/>
      <point x="440" y="1195" type="line"/>
      <point x="722" y="1115" type="line"/>
      <point x="768" y="1177" type="line"/>
      <point x="478" y="1242" type="line"/>
      <point x="768" y="1307" type="line"/>
      <point x="722" y="1370" type="line"/>
      <point x="440" y="1291" type="line"/>
      <point x="453" y="1435" type="line"/>
      <point x="361" y="1435" type="line"/>
      <point x="373" y="1290" type="line"/>
      <point x="92" y="1370" type="line"/>
      <point x="47" y="1307" type="line"/>
      <point x="339" y="1242" type="line"/>
      <point x="47" y="1177" type="line"/>
    </contour>
  </outline>
</glyph>
<glyph name="plus" format="2">
  <advance width="838"/>
  <unicode hex="002B"/>
  <outline>
    <contour>
      <point x="475" y="360" type="line"/>
      <point x="475" y="622" type="line"/>
      <point x="749" y="622" type="line"/>
      <point x="749" y="739" type="line"/>
      <point x="475" y="739" type="line"/>
      <point x="475" y="1002" type="line"/>
      <point x="365" y="1002" type="line"/>
      <point x="365" y="739" type="line"/>
      <point x="90" y="739" type="line"/>
      <point x="90" y="622" type="line"/>
      <point x="365" y="622" type="line"/>
      <point x="365" y="360" type="line"/>
    </contour>
  </outline>
</glyph>
<glyph name="comma" format="2">
  <advance width="340"/>
  <unicode hex="002C"/>
  <outline>
    <contour>
      <point x="177" y="-197" type="line"/>
      <point x="259" y="18" type="line"/>
      <point x="259" y="182" type="line"/>
      <point x="82" y="182" type="line"/>
      <point x="82" y="0" type="line"/>
      <point x="165" y="0" type="line"/>
      <point x="102" y="-197" type="line"/>
    </contour>
  </outline>
</glyph>
<glyph name="hyphen" format="2">
  <advance width="604"/>
  <unicode hex="002D"/>
  <outline>
    <contour>
      <point x="555" y="606" type="line"/>
      <point x="555" y="741" type="line"/>
      <point x="50" y="741" type="line"/>
      <point x="50" y="606" type="line"/>
    </contour>
  </outline>
</glyph>
<glyph name="period" format="2">
  <advance width="340"/>
  <unicode hex="002E"/>
  <outline>
    <contour>
      <point x="259" y="0" type="line"/>
      <point x="259" y="179" type="line"/>
      <point x="82" y="179" type="line"/>
      <point x="82" y="0" type="line"/>
    </contour>
  </outline>
</glyph>
<glyph name="slash" format="2">
  <advance width="885"/>
  <unicode hex="002F"/>
  <outline>
    <contour>
      <point x="190" y="-356" type="line"/>
      <point x="835" y="1428" type="line"/>
      <point x="696" y="1428" type="line"/>
      <point x="51" y="-356" type="line"/>
    </contour>
  </outline>
</glyph>
<glyph name="zero" format="2">
  <advance width="889"/>
  <unicode hex="0030"/>
  <outline>
    <contour>
      <point x="444" y="-13" type="curve" smooth="yes"/>
      <point x="664" y="-13"/>
      <point x="787" y="80"/>
      <point x="790" y="246" type="curve" smooth="yes"/>
      <point x="800" y="546"/>
      <point x="800" y="880"/>
      <point x="790" y="1182" type="curve" smooth="yes"/>
      <point x="787" y="1350"/>
      <point x="664" y="1441"/>
      <point x="444" y="1441" type="curve" smooth="yes"/>
      <point x="220" y="1441"/>
      <point x="98" y="1350"/>
      <point x="97" y="1182" type="curve" smooth="yes"/>
      <point x="92" y="881"/>
      <point x="92" y="548"/>
      <point x="97" y="246" type="curve" smooth="yes"/>
      <point x="98" y="80"/>
      <point x="220" y="-13"/>
    </contour>
    <contour>
      <point x="444" y="114" type="curve" smooth="yes"/>
      <point x="314" y="114"/>
      <point x="238" y="151"/>
      <point x="236" y="221" type="curve" smooth="yes"/>
      <point x="227" y="512"/>
      <point x="227" y="863"/>
      <point x="236" y="1207" type="curve" smooth="yes"/>
      <point x="238" y="1277"/>
      <point x="314" y="1315"/>
      <point x="444" y="1315" type="curve" smooth="yes"/>
      <point x="576" y="1315"/>
      <point x="647" y="1277"/>
      <point x="651" y="1207" type="curve" smooth="yes"/>
      <point x="662" y="925"/>
      <point x="664" y="573"/>
      <point x="651" y="221" type="curve" smooth="yes"/>
      <point x="649" y="151"/>
      <point x="576" y="114"/>
    </contour>
  </outline>
</glyph>
<glyph name="one" format="2">
  <advance width="416"/>
  <unicode hex="0031"/>
  <outline>
    <contour>
      <point x="325" y="0" type="line"/>
      <point x="325" y="1428" type="line"/>
      <point x="209" y="1428" type="line"/>
      <point x="76" y="1333" type="line"/>
      <point x="87" y="1275" type="line"/>
      <point x="186" y="1275" type="line"/>
      <point x="186" y="0" type="line"/>
    </contour>
  </outline>
</glyph>
<glyph name="two" format="2">
  <advance width="799"/>
  <unicode hex="0032"/>
  <outline>
    <contour>
      <point x="730" y="0" type="line"/>
      <point x="730" y="135" type="line"/>
      <point x="239" y="135" type="line"/>
      <point x="239" y="272" type="line" smooth="yes"/>
      <point x="239" y="385"/>
      <point x="288" y="499"/>
      <point x="390" y="552" type="curve"/>
      <point x="498" y="616" type="line"/>
      <point x="646" y="699"/>
      <point x="715" y="785"/>
      <point x="728" y="953" type="curve" smooth="yes"/>
      <point x="733" y="1014"/>
      <point x="733" y="1116"/>
      <point x="728" y="1181" type="curve"/>
      <point x="719" y="1367"/>
      <point x="634" y="1441"/>
      <point x="408" y="1441" type="curve" smooth="yes"/>
      <point x="192" y="1441"/>
      <point x="102" y="1367"/>
      <point x="93" y="1181" type="curve" smooth="yes"/>
      <point x="89" y="1111"/>
      <point x="93" y="1014"/>
      <point x="97" y="924" type="curve"/>
      <point x="236" y="924" type="line"/>
      <point x="229" y="1018"/>
      <point x="229" y="1112"/>
      <point x="232" y="1205" type="curve" smooth="yes"/>
      <point x="236" y="1280"/>
      <point x="284" y="1315"/>
      <point x="405" y="1315" type="curve" smooth="yes"/>
      <point x="533" y="1315"/>
      <point x="582" y="1280"/>
      <point x="588" y="1205" type="curve" smooth="yes"/>
      <point x="594" y="1121"/>
      <point x="594" y="1037"/>
      <point x="588" y="952" type="curve"/>
      <point x="581" y="883"/>
      <point x="565" y="815"/>
      <point x="456" y="757" type="curve"/>
      <point x="352" y="696" type="line"/>
      <point x="220" y="613"/>
      <point x="100" y="506"/>
      <point x="97" y="272" type="curve" smooth="yes"/>
      <point x="93" y="123"/>
      <point x="97" y="111"/>
      <point x="100" y="0" type="curve"/>
    </contour>
  </outline>
</glyph>
<glyph name="three" format="2">
  <advance width="864"/>
  <unicode hex="0033"/>
  <outline>
    <contour>
      <point x="420" y="-13" type="curve" smooth="yes"/>
      <point x="642" y="-13"/>
      <point x="736" y="62"/>
      <point x="746" y="249" type="curve"/>
      <point x="754" y="328"/>
      <point x="755" y="425"/>
      <point x="746" y="555" type="curve"/>
      <point x="740" y="735"/>
      <point x="644" y="812"/>
      <point x="399" y="821" type="curve"/>
      <point x="767" y="1301" type="line"/>
      <point x="767" y="1428" type="line"/>
      <point x="75" y="1428" type="line"/>
      <point x="75" y="1293" type="line"/>
      <point x="605" y="1293" type="line"/>
      <point x="243" y="816" type="line"/>
      <point x="250" y="688" type="line"/>
      <point x="376" y="690" type="line" smooth="yes"/>
      <point x="541" y="691"/>
      <point x="602" y="641"/>
      <point x="607" y="554" type="curve"/>
      <point x="614" y="453"/>
      <point x="614" y="335"/>
      <point x="607" y="231" type="curve"/>
      <point x="608" y="151"/>
      <point x="549" y="114"/>
      <point x="417" y="114" type="curve" smooth="yes"/>
      <point x="280" y="114"/>
      <point x="220" y="151"/>
      <point x="220" y="231" type="curve" smooth="yes"/>
      <point x="220" y="490" type="line"/>
      <point x="82" y="490" type="line"/>
      <point x="76" y="386"/>
      <point x="76" y="326"/>
      <point x="82" y="249" type="curve"/>
      <point x="89" y="62"/>
      <point x="186" y="-13"/>
    </contour>
  </outline>
</glyph>
<glyph name="four" format="2">
  <advance width="784"/>
  <unicode hex="0034"/>
  <outline>
    <contour>
      <point x="548" y="0" type="line"/>
      <point x="548" y="420" type="line"/>
      <point x="695" y="420" type="line"/>
      <point x="695" y="555" type="line"/>
      <point x="548" y="555" type="line"/>
      <point x="548" y="1428" type="line"/>
      <point x="338" y="1428" type="line"/>
      <point x="50" y="545" type="line"/>
      <point x="50" y="420" type="line"/>
      <point x="415" y="420" type="line"/>
      <point x="415" y="0" type="line"/>
    </contour>
    <contour>
      <point x="299" y="928" type="line"/>
      <point x="407" y="1293" type="line"/>
      <point x="447" y="1293" type="line"/>
      <point x="430" y="928" type="line"/>
      <point x="415" y="555" type="line"/>
      <point x="188" y="555" type="line"/>
    </contour>
  </outline>
</glyph>
<glyph name="five" format="2">
  <advance width="842"/>
  <unicode hex="0035"/>
  <outline>
    <contour>
      <point x="427" y="-13" type="curve" smooth="yes"/>
      <point x="641" y="-13"/>
      <point x="731" y="62"/>
      <point x="743" y="249" type="curve"/>
      <point x="753" y="374"/>
      <point x="756" y="498"/>
      <point x="746" y="643" type="curve"/>
      <point x="740" y="794"/>
      <point x="661" y="878"/>
      <point x="489" y="878" type="curve" smooth="yes"/>
      <point x="393" y="878"/>
      <point x="323" y="843"/>
      <point x="294" y="798" type="curve"/>
      <point x="256" y="798" type="line"/>
      <point x="256" y="1293" type="line"/>
      <point x="736" y="1293" type="line"/>
      <point x="736" y="1428" type="line"/>
      <point x="117" y="1428" type="line"/>
      <point x="117" y="637" type="line"/>
      <point x="251" y="637" type="line"/>
      <point x="253" y="708"/>
      <point x="324" y="751"/>
      <point x="440" y="751" type="curve" smooth="yes"/>
      <point x="554" y="751"/>
      <point x="602" y="716"/>
      <point x="607" y="639" type="curve" smooth="yes"/>
      <point x="615" y="499"/>
      <point x="614" y="372"/>
      <point x="604" y="231" type="curve" smooth="yes"/>
      <point x="597" y="151"/>
      <point x="548" y="114"/>
      <point x="420" y="114" type="curve" smooth="yes"/>
      <point x="291" y="114"/>
      <point x="240" y="151"/>
      <point x="235" y="231" type="curve"/>
      <point x="228" y="308"/>
      <point x="230" y="409"/>
      <point x="234" y="490" type="curve"/>
      <point x="95" y="490" type="line"/>
      <point x="90" y="409"/>
      <point x="90" y="336"/>
      <point x="96" y="249" type="curve"/>
      <point x="102" y="62"/>
      <point x="197" y="-13"/>
    </contour>
  </outline>
</glyph>
<glyph name="six" format="2">
  <advance width="868"/>
  <unicode hex="0036"/>
  <outline>
    <contour>
      <point x="431" y="-13" type="curve" smooth="yes"/>
      <point x="676" y="-13"/>
      <point x="774" y="61"/>
      <point x="782" y="248" type="curve"/>
      <point x="792" y="375"/>
      <point x="790" y="491"/>
      <point x="782" y="630" type="curve" smooth="yes"/>
      <point x="774" y="798"/>
      <point x="704" y="865"/>
      <point x="504" y="865" type="curve" smooth="yes"/>
      <point x="403" y="865"/>
      <point x="307" y="831"/>
      <point x="273" y="785" type="curve"/>
      <point x="231" y="785" type="line"/>
      <point x="231" y="937"/>
      <point x="234" y="1076"/>
      <point x="240" y="1205" type="curve" smooth="yes"/>
      <point x="244" y="1280"/>
      <point x="299" y="1315"/>
      <point x="429" y="1315" type="curve" smooth="yes"/>
      <point x="570" y="1315"/>
      <point x="626" y="1278"/>
      <point x="632" y="1205" type="curve" smooth="yes"/>
      <point x="638" y="1112"/>
      <point x="638" y="1048"/>
      <point x="632" y="972" type="curve"/>
      <point x="770" y="972" type="line"/>
      <point x="773" y="1027"/>
      <point x="775" y="1129"/>
      <point x="771" y="1180" type="curve"/>
      <point x="764" y="1355"/>
      <point x="656" y="1441"/>
      <point x="427" y="1441" type="curve" smooth="yes"/>
      <point x="212" y="1441"/>
      <point x="103" y="1360"/>
      <point x="99" y="1180" type="curve"/>
      <point x="85" y="911"/>
      <point x="91" y="582"/>
      <point x="99" y="248" type="curve"/>
      <point x="103" y="61"/>
      <point x="198" y="-13"/>
    </contour>
    <contour>
      <point x="433" y="112" type="curve" smooth="yes"/>
      <point x="299" y="112"/>
      <point x="243" y="148"/>
      <point x="240" y="223" type="curve" smooth="yes"/>
      <point x="235" y="371"/>
      <point x="232" y="505"/>
      <point x="231" y="630" type="curve"/>
      <point x="236" y="699"/>
      <point x="333" y="738"/>
      <point x="462" y="738" type="curve" smooth="yes"/>
      <point x="586" y="738"/>
      <point x="639" y="703"/>
      <point x="643" y="627" type="curve" smooth="yes"/>
      <point x="649" y="496"/>
      <point x="649" y="371"/>
      <point x="643" y="223" type="curve" smooth="yes"/>
      <point x="640" y="148"/>
      <point x="576" y="112"/>
    </contour>
  </outline>
</glyph>
<glyph name="seven" format="2">
  <advance width="743"/>
  <unicode hex="0037"/>
  <outline>
    <contour>
      <point x="284" y="0" type="line"/>
      <point x="695" y="1295" type="line"/>
      <point x="695" y="1428" type="line"/>
      <point x="59" y="1428" type="line"/>
      <point x="59" y="1293" type="line"/>
      <point x="550" y="1293" type="line"/>
      <point x="141" y="0" type="line"/>
    </contour>
  </outline>
</glyph>
<glyph name="eight" format="2">
  <advance width="883"/>
  <unicode hex="0038"/>
  <outline>
    <contour>
      <point x="440" y="-13" type="curve" smooth="yes"/>
      <point x="677" y="-13"/>
      <point x="778" y="62"/>
      <point x="789" y="249" type="curve"/>
      <point x="797" y="321"/>
      <point x="797" y="403"/>
      <point x="787" y="527" type="curve"/>
      <point x="777" y="633"/>
      <point x="725" y="689"/>
      <point x="619" y="723" type="curve"/>
      <point x="619" y="753" type="line"/>
      <point x="718" y="775"/>
      <point x="773" y="824"/>
      <point x="781" y="910" type="curve"/>
      <point x="795" y="1007"/>
      <point x="794" y="1105"/>
      <point x="785" y="1180" type="curve"/>
      <point x="775" y="1367"/>
      <point x="676" y="1441"/>
      <point x="440" y="1441" type="curve" smooth="yes"/>
      <point x="206" y="1441"/>
      <point x="107" y="1367"/>
      <point x="97" y="1180" type="curve"/>
      <point x="88" y="1105"/>
      <point x="87" y="1007"/>
      <point x="101" y="910" type="curve"/>
      <point x="109" y="824"/>
      <point x="164" y="775"/>
      <point x="263" y="751" type="curve"/>
      <point x="263" y="723" type="line"/>
      <point x="152" y="692"/>
      <point x="104" y="634"/>
      <point x="96" y="527" type="curve"/>
      <point x="87" y="403"/>
      <point x="86" y="321"/>
      <point x="94" y="249" type="curve"/>
      <point x="105" y="62"/>
      <point x="205" y="-13"/>
    </contour>
    <contour>
      <point x="440" y="114" type="curve" smooth="yes"/>
      <point x="300" y="114"/>
      <point x="237" y="151"/>
      <point x="233" y="231" type="curve" smooth="yes"/>
      <point x="226" y="339"/>
      <point x="226" y="434"/>
      <point x="233" y="541" type="curve" smooth="yes"/>
      <point x="237" y="626"/>
      <point x="300" y="664"/>
      <point x="440" y="664" type="curve" smooth="yes"/>
      <point x="585" y="664"/>
      <point x="643" y="626"/>
      <point x="650" y="541" type="curve" smooth="yes"/>
      <point x="658" y="434"/>
      <point x="658" y="339"/>
      <point x="650" y="231" type="curve"/>
      <point x="650" y="151"/>
      <point x="588" y="114"/>
    </contour>
    <contour>
      <point x="440" y="808" type="curve" smooth="yes"/>
      <point x="300" y="808"/>
      <point x="237" y="847"/>
      <point x="233" y="931" type="curve"/>
      <point x="226" y="1024"/>
      <point x="226" y="1104"/>
      <point x="233" y="1198" type="curve" smooth="yes"/>
      <point x="237" y="1278"/>
      <point x="300" y="1315"/>
      <point x="440" y="1315" type="curve" smooth="yes"/>
      <point x="588" y="1315"/>
      <point x="643" y="1278"/>
      <point x="650" y="1198" type="curve" smooth="yes"/>
      <point x="658" y="1104"/>
      <point x="651" y="1024"/>
      <point x="650" y="931" type="curve" smooth="yes"/>
      <point x="647" y="847"/>
      <point x="585" y="808"/>
    </contour>
  </outline>
</glyph>
<glyph name="nine" format="2">
  <advance width="868"/>
  <unicode hex="0039"/>
  <outline>
    <contour>
      <point x="443" y="-13" type="curve" smooth="yes"/>
      <point x="668" y="-13"/>
      <point x="764" y="61"/>
      <point x="769" y="247" type="curve" smooth="yes"/>
      <point x="779" y="549"/>
      <point x="781" y="856"/>
      <point x="769" y="1179" type="curve" smooth="yes"/>
      <point x="764" y="1366"/>
      <point x="672" y="1441"/>
      <point x="438" y="1441" type="curve" smooth="yes"/>
      <point x="194" y="1441"/>
      <point x="90" y="1366"/>
      <point x="83" y="1179" type="curve" smooth="yes"/>
      <point x="77" y="1073"/>
      <point x="79" y="899"/>
      <point x="83" y="796" type="curve"/>
      <point x="89" y="622"/>
      <point x="189" y="552"/>
      <point x="372" y="552" type="curve" smooth="yes"/>
      <point x="475" y="552"/>
      <point x="567" y="587"/>
      <point x="602" y="633" type="curve"/>
      <point x="640" y="633" type="line"/>
      <point x="640" y="483"/>
      <point x="638" y="342"/>
      <point x="630" y="223" type="curve"/>
      <point x="627" y="148"/>
      <point x="572" y="112"/>
      <point x="441" y="112" type="curve" smooth="yes"/>
      <point x="298" y="112"/>
      <point x="244" y="149"/>
      <point x="241" y="223" type="curve" smooth="yes"/>
      <point x="237" y="305"/>
      <point x="237" y="378"/>
      <point x="241" y="455" type="curve"/>
      <point x="102" y="455" type="line"/>
      <point x="100" y="401"/>
      <point x="98" y="298"/>
      <point x="100" y="247" type="curve" smooth="yes"/>
      <point x="104" y="61"/>
      <point x="206" y="-13"/>
    </contour>
    <contour>
      <point x="409" y="679" type="curve" smooth="yes"/>
      <point x="284" y="679"/>
      <point x="226" y="715"/>
      <point x="222" y="791" type="curve"/>
      <point x="219" y="908"/>
      <point x="217" y="1093"/>
      <point x="222" y="1203" type="curve"/>
      <point x="223" y="1280"/>
      <point x="292" y="1315"/>
      <point x="436" y="1315" type="curve" smooth="yes"/>
      <point x="568" y="1315"/>
      <point x="629" y="1280"/>
      <point x="630" y="1203" type="curve" smooth="yes"/>
      <point x="634" y="1060"/>
      <point x="638" y="918"/>
      <point x="640" y="778" type="curve"/>
      <point x="628" y="715"/>
      <point x="534" y="679"/>
    </contour>
  </outline>
</glyph>
<glyph name="semicolon" format="2">
  <advance width="340"/>
  <unicode hex="003B"/>
  <outline>
    <contour>
      <point x="177" y="-197" type="line"/>
      <point x="259" y="18" type="line"/>
      <point x="259" y="182" type="line"/>
      <point x="82" y="182" type="line"/>
      <point x="82" y="0" type="line"/>
      <point x="165" y="0" type="line"/>
      <point x="102" y="-197" type="line"/>
    </contour>
    <contour>
      <point x="259" y="539" type="line"/>
      <point x="259" y="718" type="line"/>
      <point x="82" y="718" type="line"/>
      <point x="82" y="539" type="line"/>
    </contour>
  </outline>
</glyph>
<glyph name="less" format="2">
  <advance width="698"/>
  <unicode hex="003C"/>
  <outline>
    <contour>
      <point x="605" y="479" type="line"/>
      <point x="605" y="605" type="line"/>
      <point x="357" y="650" type="line"/>
      <point x="198" y="666" type="line"/>
      <point x="198" y="706" type="line"/>
      <point x="355" y="723" type="line"/>
      <point x="605" y="770" type="line"/>
      <point x="605" y="896" type="line"/>
      <point x="94" y="785" type="line"/>
      <point x="94" y="586" type="line"/>
    </contour>
  </outline>
</glyph>
<glyph name="equal" format="2">
  <advance width="903"/>
  <unicode hex="003D"/>
  <outline>
    <contour>
      <point x="813" y="744" type="line"/>
      <point x="813" y="861" type="line"/>
      <point x="91" y="861" type="line"/>
      <point x="91" y="744" type="line"/>
    </contour>
    <contour>
      <point x="813" y="502" type="line"/>
      <point x="813" y="620" type="line"/>
      <point x="91" y="620" type="line"/>
      <point x="91" y="502" type="line"/>
    </contour>
  </outline>
</glyph>
<glyph name="greater" format="2">
  <advance width="698"/>
  <unicode hex="003E"/>
  <outline>
    <contour>
      <point x="605" y="586" type="line"/>
      <point x="605" y="785" type="line"/>
      <point x="94" y="896" type="line"/>
      <point x="94" y="770" type="line"/>
      <point x="343" y="723" type="line"/>
      <point x="501" y="706" type="line"/>
      <point x="501" y="666" type="line"/>
      <point x="343" y="650" type="line"/>
      <point x="94" y="605" type="line"/>
      <point x="94" y="479" type="line"/>
    </contour>
  </outline>
</glyph>
<glyph name="question" format="2">
  <advance width="782"/>
  <unicode hex="003F"/>
  <outline>
    <contour>
      <point x="370" y="308" type="line"/>
      <point x="379" y="522" type="line"/>
      <point x="381" y="559"/>
      <point x="385" y="601"/>
      <point x="464" y="624" type="curve"/>
      <point x="518" y="641" type="line"/>
      <point x="688" y="679"/>
      <point x="713" y="719"/>
      <point x="723" y="930" type="curve" smooth="yes"/>
      <point x="726" y="976"/>
      <point x="721" y="1020"/>
      <point x="721" y="1182" type="curve" smooth="yes"/>
      <point x="721" y="1369"/>
      <point x="622" y="1442"/>
      <point x="385" y="1442" type="curve" smooth="yes"/>
      <point x="162" y="1442"/>
      <point x="68" y="1367"/>
      <point x="62" y="1181" type="curve"/>
      <point x="57" y="1098"/>
      <point x="59" y="1009"/>
      <point x="61" y="925" type="curve"/>
      <point x="197" y="925" type="line"/>
      <point x="191" y="1021"/>
      <point x="191" y="1116"/>
      <point x="199" y="1207" type="curve" smooth="yes"/>
      <point x="205" y="1282"/>
      <point x="256" y="1316"/>
      <point x="387" y="1316" type="curve" smooth="yes"/>
      <point x="523" y="1316"/>
      <point x="582" y="1282"/>
      <point x="582" y="1207" type="curve" smooth="yes"/>
      <point x="582" y="930" type="line" smooth="yes"/>
      <point x="582" y="827"/>
      <point x="575" y="775"/>
      <point x="473" y="751" type="curve"/>
      <point x="406" y="735" type="line"/>
      <point x="296" y="689"/>
      <point x="260" y="633"/>
      <point x="260" y="523" type="curve"/>
      <point x="268" y="308" type="line"/>
    </contour>
    <contour>
      <point x="467" y="0" type="line"/>
      <point x="467" y="179" type="line"/>
      <point x="163" y="179" type="line"/>
      <point x="163" y="0" type="line"/>
    </contour>
  </outline>
</glyph>
<glyph name="at" format="2">
  <advance width="1155"/>
  <unicode hex="0040"/>
  <outline>
    <contour>
      <point x="580" y="-227" type="curve" smooth="yes"/>
      <point x="898" y="-227"/>
      <point x="1047" y="-149"/>
      <point x="1055" y="55" type="curve"/>
      <point x="1057" y="73"/>
      <point x="1057" y="82"/>
      <point x="1053" y="117" type="curve"/>
      <point x="935" y="117" type="line"/>
      <point x="941" y="86"/>
      <point x="941" y="76"/>
      <point x="939" y="55" type="curve"/>
      <point x="933" y="-74"/>
      <point x="819" y="-123"/>
      <point x="580" y="-123" type="curve" smooth="yes"/>
      <point x="343" y="-123"/>
      <point x="222" y="-73"/>
      <point x="219" y="55" type="curve" smooth="yes"/>
      <point x="206" y="380"/>
      <point x="206" y="669"/>
      <point x="219" y="1002" type="curve" smooth="yes"/>
      <point x="222" y="1137"/>
      <point x="343" y="1190"/>
      <point x="580" y="1190" type="curve" smooth="yes"/>
      <point x="822" y="1190"/>
      <point x="941" y="1135"/>
      <point x="942" y="1002" type="curve" smooth="yes"/>
      <point x="948" y="710"/>
      <point x="943" y="492"/>
      <point x="940" y="307" type="curve" smooth="yes"/>
      <point x="940" y="268"/>
      <point x="918" y="251"/>
      <point x="868" y="251" type="curve" smooth="yes"/>
      <point x="814" y="251"/>
      <point x="793" y="268"/>
      <point x="793" y="306" type="curve" smooth="yes"/>
      <point x="791" y="904" type="line"/>
      <point x="672" y="904" type="line"/>
      <point x="672" y="833" type="line"/>
      <point x="651" y="833" type="line"/>
      <point x="617" y="888"/>
      <point x="581" y="914"/>
      <point x="507" y="914" type="curve" smooth="yes"/>
      <point x="399" y="914"/>
      <point x="345" y="866"/>
      <point x="338" y="747" type="curve" smooth="yes"/>
      <point x="328" y="622"/>
      <point x="329" y="463"/>
      <point x="338" y="335" type="curve"/>
      <point x="343" y="214"/>
      <point x="397" y="168"/>
      <point x="503" y="168" type="curve" smooth="yes"/>
      <point x="578" y="168"/>
      <point x="621" y="199"/>
      <point x="656" y="250" type="curve"/>
      <point x="681" y="250" type="line"/>
      <point x="689" y="198"/>
      <point x="741" y="169"/>
      <point x="868" y="169" type="curve" smooth="yes"/>
      <point x="994" y="169"/>
      <point x="1056" y="213"/>
      <point x="1058" y="303" type="curve" smooth="yes"/>
      <point x="1063" y="518"/>
      <point x="1064" y="701"/>
      <point x="1059" y="995" type="curve" smooth="yes"/>
      <point x="1057" y="1209"/>
      <point x="900" y="1295"/>
      <point x="580" y="1295" type="curve" smooth="yes"/>
      <point x="259" y="1295"/>
      <point x="107" y="1209"/>
      <point x="102" y="996" type="curve" smooth="yes"/>
      <point x="88" y="649"/>
      <point x="90" y="391"/>
      <point x="102" y="61" type="curve" smooth="yes"/>
      <point x="105" y="-145"/>
      <point x="259" y="-227"/>
    </contour>
    <contour>
      <point x="543" y="257" type="curve" smooth="yes"/>
      <point x="484" y="257"/>
      <point x="463" y="275"/>
      <point x="458" y="325" type="curve" smooth="yes"/>
      <point x="447" y="468"/>
      <point x="449" y="618"/>
      <point x="456" y="757" type="curve"/>
      <point x="460" y="803"/>
      <point x="491" y="824"/>
      <point x="543" y="824" type="curve" smooth="yes"/>
      <point x="608" y="824"/>
      <point x="652" y="800"/>
      <point x="672" y="759" type="curve"/>
      <point x="676" y="325" type="line"/>
      <point x="654" y="284"/>
      <point x="606" y="257"/>
    </contour>
  </outline>
</glyph>
<glyph name="A" format="2">
  <advance width="819"/>
  <unicode hex="0041"/>
  <anchor x="411" y="0" name="bottom"/>
  <anchor x="684" y="2" name="ogonek"/>
  <anchor x="411" y="1428" name="top"/>
  <outline>
    <contour>
      <point x="182" y="0" type="line"/>
      <point x="244" y="396" type="line"/>
      <point x="576" y="396" type="line"/>
      <point x="638" y="0" type="line"/>
      <point x="780" y="0" type="line"/>
      <point x="552" y="1428" type="line"/>
      <point x="266" y="1428" type="line"/>
      <point x="40" y="0" type="line"/>
    </contour>
    <contour>
      <point x="302" y="835" type="line"/>
      <point x="371" y="1300" type="line"/>
      <point x="450" y="1300" type="line"/>
      <point x="520" y="836" type="line"/>
      <point x="563" y="524" type="line"/>
      <point x="257" y="524" type="line"/>
    </contour>
  </outline>
</glyph>
<glyph name="B" format="2">
  <advance width="870"/>
  <unicode hex="0042"/>
  <outline>
    <contour>
      <point x="431" y="0" type="line" smooth="yes"/>
      <point x="680" y="0"/>
      <point x="787" y="73"/>
      <point x="794" y="250" type="curve"/>
      <point x="801" y="345"/>
      <point x="801" y="418"/>
      <point x="794" y="512" type="curve"/>
      <point x="790" y="617"/>
      <point x="738" y="675"/>
      <point x="620" y="702" type="curve"/>
      <point x="620" y="736" type="line"/>
      <point x="734" y="763"/>
      <point x="787" y="820"/>
      <point x="792" y="923" type="curve"/>
      <point x="796" y="998"/>
      <point x="796" y="1073"/>
      <point x="792" y="1178" type="curve" smooth="yes"/>
      <point x="785" y="1356"/>
      <point x="680" y="1428"/>
      <point x="428" y="1428" type="curve" smooth="yes"/>
      <point x="92" y="1428" type="line"/>
      <point x="92" y="0" type="line"/>
    </contour>
    <contour>
      <point x="231" y="656" type="line"/>
      <point x="414" y="656" type="line" smooth="yes"/>
      <point x="581" y="656"/>
      <point x="651" y="615"/>
      <point x="655" y="506" type="curve"/>
      <point x="662" y="416"/>
      <point x="662" y="342"/>
      <point x="655" y="252" type="curve"/>
      <point x="651" y="168"/>
      <point x="582" y="128"/>
      <point x="431" y="128" type="curve" smooth="yes"/>
      <point x="231" y="128" type="line"/>
    </contour>
    <contour>
      <point x="231" y="1300" type="line"/>
      <point x="428" y="1300" type="line" smooth="yes"/>
      <point x="580" y="1300"/>
      <point x="646" y="1263"/>
      <point x="653" y="1185" type="curve" smooth="yes"/>
      <point x="662" y="1094"/>
      <point x="662" y="1018"/>
      <point x="653" y="927" type="curve"/>
      <point x="646" y="830"/>
      <point x="580" y="784"/>
      <point x="426" y="784" type="curve" smooth="yes"/>
      <point x="231" y="784" type="line"/>
    </contour>
  </outline>
</glyph>
<glyph name="C" format="2">
  <advance width="870"/>
  <unicode hex="0043"/>
  <anchor x="427" y="0" name="bottom"/>
  <anchor x="427" y="1428" name="top"/>
  <outline>
    <contour>
      <point x="435" y="-13" type="curve" smooth="yes"/>
      <point x="689" y="-13"/>
      <point x="795" y="60"/>
      <point x="803" y="241" type="curve"/>
      <point x="809" y="335"/>
      <point x="807" y="425"/>
      <point x="801" y="519" type="curve"/>
      <point x="659" y="519" type="line"/>
      <point x="663" y="426"/>
      <point x="668" y="311"/>
      <point x="664" y="218" type="curve" smooth="yes"/>
      <point x="660" y="139"/>
      <point x="601" y="106"/>
      <point x="435" y="106" type="curve" smooth="yes"/>
      <point x="287" y="106"/>
      <point x="232" y="139"/>
      <point x="228" y="218" type="curve" smooth="yes"/>
      <point x="217" y="555"/>
      <point x="217" y="873"/>
      <point x="228" y="1209" type="curve" smooth="yes"/>
      <point x="232" y="1289"/>
      <point x="287" y="1321"/>
      <point x="433" y="1321" type="curve" smooth="yes"/>
      <point x="591" y="1321"/>
      <point x="648" y="1289"/>
      <point x="650" y="1209" type="curve" smooth="yes"/>
      <point x="654" y="1122"/>
      <point x="652" y="1012"/>
      <point x="650" y="925" type="curve"/>
      <point x="789" y="925" type="line"/>
      <point x="791" y="992"/>
      <point x="795" y="1119"/>
      <point x="791" y="1186" type="curve"/>
      <point x="785" y="1367"/>
      <point x="679" y="1440"/>
      <point x="433" y="1440" type="curve" smooth="yes"/>
      <point x="194" y="1440"/>
      <point x="95" y="1352"/>
      <point x="89" y="1187" type="curve" smooth="yes"/>
      <point x="77" y="873"/>
      <point x="77" y="555"/>
      <point x="89" y="241" type="curve" smooth="yes"/>
      <point x="95" y="60"/>
      <point x="191" y="-13"/>
    </contour>
  </outline>
</glyph>
<glyph name="D" format="2">
  <advance width="889"/>
  <unicode hex="0044"/>
  <anchor x="436" y="0" name="bottom"/>
  <anchor x="453" y="714" name="center"/>
  <anchor x="424" y="1428" name="top"/>
  <outline>
    <contour>
      <point x="442" y="0" type="line" smooth="yes"/>
      <point x="695" y="0"/>
      <point x="799" y="75"/>
      <point x="803" y="260" type="curve" smooth="yes"/>
      <point x="813" y="585"/>
      <point x="813" y="845"/>
      <point x="803" y="1169" type="curve" smooth="yes"/>
      <point x="799" y="1354"/>
      <point x="695" y="1428"/>
      <point x="447" y="1428" type="curve" smooth="yes"/>
      <point x="92" y="1428" type="line"/>
      <point x="92" y="0" type="line"/>
    </contour>
    <contour>
      <point x="231" y="1300" type="line"/>
      <point x="447" y="1300" type="line" smooth="yes"/>
      <point x="598" y="1300"/>
      <point x="662" y="1263"/>
      <point x="664" y="1185" type="curve" smooth="yes"/>
      <point x="674" y="871"/>
      <point x="674" y="558"/>
      <point x="664" y="245" type="curve" smooth="yes"/>
      <point x="662" y="166"/>
      <point x="598" y="128"/>
      <point x="442" y="128" type="curve" smooth="yes"/>
      <point x="231" y="128" type="line"/>
    </contour>
  </outline>
</glyph>
<glyph name="E" format="2">
  <advance width="731"/>
  <unicode hex="0045"/>
  <anchor x="388" y="0" name="bottom"/>
  <anchor x="499" y="3" name="ogonek"/>
  <anchor x="384" y="1428" name="top"/>
  <anchor x="34" y="1428" name="topleft"/>
  <outline>
    <contour>
      <point x="693" y="0" type="line"/>
      <point x="693" y="128" type="line"/>
      <point x="231" y="128" type="line"/>
      <point x="231" y="656" type="line"/>
      <point x="662" y="656" type="line"/>
      <point x="662" y="784" type="line"/>
      <point x="231" y="784" type="line"/>
      <point x="231" y="1300" type="line"/>
      <point x="693" y="1300" type="line"/>
      <point x="693" y="1428" type="line"/>
      <point x="92" y="1428" type="line"/>
      <point x="92" y="0" type="line"/>
    </contour>
  </outline>
</glyph>
<glyph name="F" format="2">
  <advance width="696"/>
  <unicode hex="0046"/>
  <outline>
    <contour>
      <point x="231" y="0" type="line"/>
      <point x="231" y="656" type="line"/>
      <point x="642" y="656" type="line"/>
      <point x="642" y="784" type="line"/>
      <point x="231" y="784" type="line"/>
      <point x="231" y="1300" type="line"/>
      <point x="671" y="1300" type="line"/>
      <point x="671" y="1428" type="line"/>
      <point x="92" y="1428" type="line"/>
      <point x="92" y="0" type="line"/>
    </contour>
  </outline>
</glyph>
<glyph name="G" format="2">
  <advance width="881"/>
  <unicode hex="0047"/>
  <anchor x="436" y="0" name="bottom"/>
  <anchor x="436" y="1428" name="top"/>
  <outline>
    <contour>
      <point x="449" y="-13" type="curve" smooth="yes"/>
      <point x="702" y="-13"/>
      <point x="811" y="60"/>
      <point x="815" y="243" type="curve"/>
      <point x="823" y="400"/>
      <point x="820" y="523"/>
      <point x="814" y="617" type="curve"/>
      <point x="444" y="617" type="line"/>
      <point x="444" y="491" type="line"/>
      <point x="679" y="491" type="line"/>
      <point x="680" y="404"/>
      <point x="680" y="307"/>
      <point x="679" y="220" type="curve"/>
      <point x="673" y="143"/>
      <point x="604" y="107"/>
      <point x="449" y="107" type="curve" smooth="yes"/>
      <point x="293" y="107"/>
      <point x="230" y="143"/>
      <point x="228" y="220" type="curve" smooth="yes"/>
      <point x="219" y="548"/>
      <point x="217" y="881"/>
      <point x="228" y="1210" type="curve" smooth="yes"/>
      <point x="230" y="1286"/>
      <point x="298" y="1321"/>
      <point x="446" y="1321" type="curve" smooth="yes"/>
      <point x="591" y="1321"/>
      <point x="657" y="1286"/>
      <point x="663" y="1210" type="curve" smooth="yes"/>
      <point x="671" y="1119"/>
      <point x="669" y="1018"/>
      <point x="663" y="927" type="curve"/>
      <point x="802" y="927" type="line"/>
      <point x="808" y="1012"/>
      <point x="810" y="1101"/>
      <point x="802" y="1187" type="curve"/>
      <point x="793" y="1368"/>
      <point x="689" y="1441"/>
      <point x="446" y="1441" type="curve" smooth="yes"/>
      <point x="196" y="1441"/>
      <point x="94" y="1368"/>
      <point x="89" y="1180" type="curve" smooth="yes"/>
      <point x="77" y="877"/>
      <point x="77" y="548"/>
      <point x="89" y="243" type="curve" smooth="yes"/>
      <point x="94" y="60"/>
      <point x="195" y="-13"/>
    </contour>
  </outline>
</glyph>
<glyph name="H" format="2">
  <advance width="905"/>
  <unicode hex="0048"/>
  <anchor x="453" y="0" name="bottom"/>
  <anchor x="453" y="714" name="center"/>
  <anchor x="453" y="1428" name="top"/>
  <anchor x="28" y="1428" name="topleft"/>
  <outline>
    <contour>
      <point x="231" y="0" type="line"/>
      <point x="231" y="656" type="line"/>
      <point x="674" y="656" type="line"/>
      <point x="674" y="0" type="line"/>
      <point x="814" y="0" type="line"/>
      <point x="814" y="1428" type="line"/>
      <point x="674" y="1428" type="line"/>
      <point x="674" y="784" type="line"/>
      <point x="231" y="784" type="line"/>
      <point x="231" y="1428" type="line"/>
      <point x="92" y="1428" type="line"/>
      <point x="92" y="0" type="line"/>
    </contour>
  </outline>
</glyph>
<glyph name="I" format="2">
  <advance width="408"/>
  <unicode hex="0049"/>
  <anchor x="206" y="0" name="bottom"/>
  <anchor x="207" y="0" name="ogonek"/>
  <anchor x="206" y="1428" name="top"/>
  <anchor x="7" y="1428" name="topleft"/>
  <outline>
    <contour>
      <point x="273" y="0" type="line"/>
      <point x="273" y="1428" type="line"/>
      <point x="134" y="1428" type="line"/>
      <point x="134" y="0" type="line"/>
    </contour>
  </outline>
</glyph>
<glyph name="J" format="2">
  <advance width="801"/>
  <unicode hex="004A"/>
  <anchor x="400" y="-8" name="bottom"/>
  <anchor x="467" y="1428" name="top"/>
  <outline>
    <contour>
      <point x="390" y="-13" type="curve" smooth="yes"/>
      <point x="632" y="-13"/>
      <point x="725" y="60"/>
      <point x="725" y="243" type="curve" smooth="yes"/>
      <point x="725" y="1428" type="line"/>
      <point x="586" y="1428" type="line"/>
      <point x="586" y="220" type="line" smooth="yes"/>
      <point x="586" y="143"/>
      <point x="529" y="107"/>
      <point x="390" y="107" type="curve" smooth="yes"/>
      <point x="247" y="107"/>
      <point x="194" y="143"/>
      <point x="188" y="220" type="curve" smooth="yes"/>
      <point x="183" y="312"/>
      <point x="183" y="427"/>
      <point x="188" y="520" type="curve"/>
      <point x="53" y="520" type="line"/>
      <point x="49" y="426"/>
      <point x="49" y="336"/>
      <point x="53" y="243" type="curve" smooth="yes"/>
      <point x="61" y="60"/>
      <point x="149" y="-13"/>
    </contour>
  </outline>
</glyph>
<glyph name="K" format="2">
  <advance width="788"/>
  <unicode hex="004B"/>
  <anchor x="421" y="0" name="bottom"/>
  <anchor x="401" y="1428" name="top"/>
  <outline>
    <contour>
      <point x="233" y="0" type="line"/>
      <point x="233" y="440" type="line"/>
      <point x="331" y="630" type="line"/>
      <point x="621" y="0" type="line"/>
      <point x="768" y="0" type="line"/>
      <point x="419" y="798" type="line"/>
      <point x="732" y="1428" type="line"/>
      <point x="578" y="1428" type="line"/>
      <point x="436" y="1116" type="line"/>
      <point x="259" y="732" type="line"/>
      <point x="219" y="732" type="line"/>
      <point x="237" y="1089" type="line"/>
      <point x="237" y="1428" type="line"/>
      <point x="91" y="1428" type="line"/>
      <point x="91" y="0" type="line"/>
    </contour>
  </outline>
</glyph>
<glyph name="L" format="2">
  <advance width="690"/>
  <unicode hex="004C"/>
  <anchor x="388" y="0" name="bottom"/>
  <anchor x="611" y="742" name="center"/>
  <anchor x="353" y="1428" name="top"/>
  <anchor x="386" y="1141" name="topright"/>
  <outline>
    <contour>
      <point x="673" y="0" type="line"/>
      <point x="673" y="128" type="line"/>
      <point x="231" y="128" type="line"/>
      <point x="231" y="1428" type="line"/>
      <point x="92" y="1428" type="line"/>
      <point x="92" y="0" type="line"/>
    </contour>
  </outline>
</glyph>
<glyph name="M" format="2">
  <advance width="1024"/>
  <unicode hex="004D"/>
  <anchor x="513" y="0" name="bottom"/>
  <anchor x="513" y="1428" name="top"/>
  <outline>
    <contour>
      <point x="230" y="0" type="line"/>
      <point x="230" y="420" type="line"/>
      <point x="207" y="1300" type="line"/>
      <point x="249" y="1300" type="line"/>
      <point x="350" y="412" type="line"/>
      <point x="422" y="5" type="line"/>
      <point x="603" y="5" type="line"/>
      <point x="676" y="412" type="line"/>
      <point x="776" y="1300" type="line"/>
      <point x="819" y="1300" type="line"/>
      <point x="795" y="420" type="line"/>
      <point x="795" y="0" type="line"/>
      <point x="935" y="0" type="line"/>
      <point x="935" y="1428" type="line"/>
      <point x="685" y="1428" type="line"/>
      <point x="589" y="852" type="line"/>
      <point x="532" y="133" type="line"/>
      <point x="494" y="133" type="line"/>
      <point x="436" y="852" type="line"/>
      <point x="341" y="1428" type="line"/>
      <point x="90" y="1428" type="line"/>
      <point x="90" y="0" type="line"/>
    </contour>
  </outline>
</glyph>
<glyph name="N" format="2">
  <advance width="895"/>
  <unicode hex="004E"/>
  <anchor x="446" y="0" name="bottom"/>
  <anchor x="460" y="1428" name="top"/>
  <outline>
    <contour>
      <point x="227" y="0" type="line"/>
      <point x="219" y="536" type="line"/>
      <point x="198" y="1301" type="line"/>
      <point x="258" y="1301" type="line"/>
      <point x="417" y="505" type="line"/>
      <point x="543" y="0" type="line"/>
      <point x="805" y="0" type="line"/>
      <point x="805" y="1428" type="line"/>
      <point x="668" y="1428" type="line"/>
      <point x="675" y="906" type="line"/>
      <point x="698" y="128" type="line"/>
      <point x="642" y="128" type="line"/>
      <point x="457" y="975" type="line"/>
      <point x="346" y="1428" type="line"/>
      <point x="91" y="1428" type="line"/>
      <point x="91" y="0" type="line"/>
    </contour>
  </outline>
</glyph>
<glyph name="O" format="2">
  <advance width="911"/>
  <unicode hex="004F"/>
  <anchor x="460" y="0" name="bottom"/>
  <anchor x="460" y="714" name="center"/>
  <anchor x="632" y="13" name="ogonek"/>
  <anchor x="460" y="1428" name="top"/>
  <anchor x="18" y="1428" name="topleft"/>
  <anchor x="711" y="1685" name="topright"/>
  <outline>
    <contour>
      <point x="458" y="-13" type="curve" smooth="yes"/>
      <point x="718" y="-13"/>
      <point x="822" y="60"/>
      <point x="824" y="240" type="curve" smooth="yes"/>
      <point x="832" y="564"/>
      <point x="832" y="863"/>
      <point x="824" y="1189" type="curve" smooth="yes"/>
      <point x="822" y="1369"/>
      <point x="718" y="1441"/>
      <point x="458" y="1441" type="curve" smooth="yes"/>
      <point x="196" y="1441"/>
      <point x="97" y="1369"/>
      <point x="91" y="1189" type="curve" smooth="yes"/>
      <point x="78" y="865"/>
      <point x="78" y="564"/>
      <point x="91" y="240" type="curve" smooth="yes"/>
      <point x="97" y="60"/>
      <point x="196" y="-13"/>
    </contour>
    <contour>
      <point x="458" y="107" type="curve" smooth="yes"/>
      <point x="293" y="107"/>
      <point x="234" y="139"/>
      <point x="230" y="216" type="curve" smooth="yes"/>
      <point x="215" y="549"/>
      <point x="211" y="889"/>
      <point x="230" y="1212" type="curve" smooth="yes"/>
      <point x="234" y="1290"/>
      <point x="293" y="1321"/>
      <point x="458" y="1321" type="curve" smooth="yes"/>
      <point x="621" y="1321"/>
      <point x="681" y="1290"/>
      <point x="685" y="1212" type="curve" smooth="yes"/>
      <point x="697" y="889"/>
      <point x="703" y="549"/>
      <point x="685" y="216" type="curve" smooth="yes"/>
      <point x="681" y="139"/>
      <point x="623" y="107"/>
    </contour>
  </outline>
</glyph>
<glyph name="P" format="2">
  <advance width="840"/>
  <unicode hex="0050"/>
  <outline>
    <contour>
      <point x="231" y="0" type="line"/>
      <point x="231" y="541" type="line"/>
      <point x="425" y="541" type="line" smooth="yes"/>
      <point x="670" y="541"/>
      <point x="773" y="613"/>
      <point x="785" y="791" type="curve"/>
      <point x="798" y="918"/>
      <point x="798" y="1028"/>
      <point x="785" y="1178" type="curve" smooth="yes"/>
      <point x="773" y="1356"/>
      <point x="670" y="1428"/>
      <point x="429" y="1428" type="curve" smooth="yes"/>
      <point x="92" y="1428" type="line"/>
      <point x="92" y="0" type="line"/>
    </contour>
    <contour>
      <point x="231" y="1300" type="line"/>
      <point x="429" y="1300" type="line" smooth="yes"/>
      <point x="579" y="1300"/>
      <point x="640" y="1263"/>
      <point x="647" y="1185" type="curve" smooth="yes"/>
      <point x="657" y="1052"/>
      <point x="657" y="917"/>
      <point x="647" y="785" type="curve" smooth="yes"/>
      <point x="640" y="706"/>
      <point x="579" y="669"/>
      <point x="425" y="669" type="curve" smooth="yes"/>
      <point x="231" y="669" type="line"/>
    </contour>
  </outline>
</glyph>
<glyph name="Q" format="2">
  <advance width="922"/>
  <unicode hex="0051"/>
  <outline>
    <contour>
      <point x="787" y="-60" type="line"/>
      <point x="668" y="-66"/>
      <point x="611" y="-44"/>
      <point x="595" y="13" type="curve"/>
      <point x="764" y="45"/>
      <point x="834" y="115"/>
      <point x="835" y="240" type="curve" smooth="yes"/>
      <point x="843" y="564"/>
      <point x="843" y="863"/>
      <point x="835" y="1189" type="curve" smooth="yes"/>
      <point x="833" y="1369"/>
      <point x="727" y="1441"/>
      <point x="463" y="1441" type="curve" smooth="yes"/>
      <point x="198" y="1441"/>
      <point x="97" y="1369"/>
      <point x="91" y="1189" type="curve" smooth="yes"/>
      <point x="78" y="865"/>
      <point x="78" y="564"/>
      <point x="91" y="240" type="curve" smooth="yes"/>
      <point x="97" y="60"/>
      <point x="198" y="-13"/>
      <point x="464" y="-13" type="curve"/>
      <point x="487" y="-138"/>
      <point x="583" y="-187"/>
      <point x="787" y="-176" type="curve"/>
    </contour>
    <contour>
      <point x="463" y="107" type="curve" smooth="yes"/>
      <point x="295" y="107"/>
      <point x="234" y="139"/>
      <point x="230" y="216" type="curve" smooth="yes"/>
      <point x="215" y="549"/>
      <point x="211" y="889"/>
      <point x="230" y="1212" type="curve" smooth="yes"/>
      <point x="234" y="1290"/>
      <point x="295" y="1321"/>
      <point x="463" y="1321" type="curve" smooth="yes"/>
      <point x="633" y="1321"/>
      <point x="692" y="1290"/>
      <point x="696" y="1212" type="curve" smooth="yes"/>
      <point x="708" y="889"/>
      <point x="714" y="549"/>
      <point x="696" y="216" type="curve" smooth="yes"/>
      <point x="692" y="139"/>
      <point x="633" y="107"/>
    </contour>
  </outline>
</glyph>
<glyph name="R" format="2">
  <advance width="874"/>
  <unicode hex="0052"/>
  <anchor x="446" y="0" name="bottom"/>
  <anchor x="396" y="1428" name="top"/>
  <outline>
    <contour>
      <point x="231" y="0" type="line"/>
      <point x="231" y="535" type="line"/>
      <point x="443" y="535" type="line"/>
      <point x="677" y="0" type="line"/>
      <point x="829" y="0" type="line"/>
      <point x="578" y="559" type="line"/>
      <point x="708" y="593"/>
      <point x="766" y="664"/>
      <point x="773" y="785" type="curve" smooth="yes"/>
      <point x="783" y="912"/>
      <point x="786" y="1028"/>
      <point x="773" y="1178" type="curve" smooth="yes"/>
      <point x="761" y="1356"/>
      <point x="660" y="1428"/>
      <point x="423" y="1428" type="curve" smooth="yes"/>
      <point x="92" y="1428" type="line"/>
      <point x="92" y="0" type="line"/>
    </contour>
    <contour>
      <point x="231" y="1300" type="line"/>
      <point x="423" y="1300" type="line" smooth="yes"/>
      <point x="569" y="1300"/>
      <point x="629" y="1263"/>
      <point x="635" y="1185" type="curve" smooth="yes"/>
      <point x="645" y="1052"/>
      <point x="645" y="911"/>
      <point x="635" y="778" type="curve" smooth="yes"/>
      <point x="629" y="699"/>
      <point x="569" y="663"/>
      <point x="419" y="663" type="curve" smooth="yes"/>
      <point x="231" y="663" type="line"/>
    </contour>
  </outline>
</glyph>
<glyph name="S" format="2">
  <advance width="856"/>
  <unicode hex="0053"/>
  <anchor x="430" y="0" name="bottom"/>
  <anchor x="430" y="1428" name="top"/>
  <outline>
    <contour>
      <point x="435" y="-13" type="curve" smooth="yes"/>
      <point x="675" y="-13"/>
      <point x="776" y="60"/>
      <point x="785" y="243" type="curve" smooth="yes"/>
      <point x="791" y="330"/>
      <point x="793" y="375"/>
      <point x="787" y="474" type="curve" smooth="yes"/>
      <point x="780" y="636"/>
      <point x="742" y="730"/>
      <point x="516" y="765" type="curve" smooth="yes"/>
      <point x="376" y="787" type="line"/>
      <point x="239" y="803"/>
      <point x="219" y="852"/>
      <point x="214" y="949" type="curve" smooth="yes"/>
      <point x="209" y="1036"/>
      <point x="207" y="1124"/>
      <point x="214" y="1210" type="curve" smooth="yes"/>
      <point x="221" y="1286"/>
      <point x="278" y="1321"/>
      <point x="429" y="1321" type="curve" smooth="yes"/>
      <point x="574" y="1321"/>
      <point x="633" y="1286"/>
      <point x="639" y="1210" type="curve" smooth="yes"/>
      <point x="645" y="1116"/>
      <point x="646" y="1021"/>
      <point x="637" y="927" type="curve"/>
      <point x="773" y="927" type="line"/>
      <point x="777" y="1026"/>
      <point x="779" y="1124"/>
      <point x="775" y="1187" type="curve" smooth="yes"/>
      <point x="768" y="1368"/>
      <point x="668" y="1441"/>
      <point x="432" y="1441" type="curve" smooth="yes"/>
      <point x="176" y="1441"/>
      <point x="78" y="1369"/>
      <point x="75" y="1188" type="curve"/>
      <point x="71" y="1109"/>
      <point x="69" y="1022"/>
      <point x="73" y="949" type="curve" smooth="yes"/>
      <point x="81" y="783"/>
      <point x="118" y="697"/>
      <point x="344" y="659" type="curve"/>
      <point x="487" y="633" type="line"/>
      <point x="618" y="616"/>
      <point x="640" y="556"/>
      <point x="646" y="474" type="curve" smooth="yes"/>
      <point x="651" y="370"/>
      <point x="653" y="314"/>
      <point x="646" y="220" type="curve"/>
      <point x="638" y="143"/>
      <point x="583" y="107"/>
      <point x="432" y="107" type="curve" smooth="yes"/>
      <point x="278" y="107"/>
      <point x="218" y="143"/>
      <point x="212" y="220" type="curve" smooth="yes"/>
      <point x="205" y="314"/>
      <point x="204" y="417"/>
      <point x="212" y="520" type="curve"/>
      <point x="77" y="520" type="line"/>
      <point x="70" y="417"/>
      <point x="67" y="344"/>
      <point x="74" y="243" type="curve"/>
      <point x="81" y="60"/>
      <point x="184" y="-13"/>
    </contour>
  </outline>
</glyph>
<glyph name="T" format="2">
  <advance width="702"/>
  <unicode hex="0054"/>
  <anchor x="350" y="0" name="bottom"/>
  <anchor x="352" y="666" name="center"/>
  <anchor x="352" y="1428" name="top"/>
  <outline>
    <contour>
      <point x="420" y="0" type="line"/>
      <point x="420" y="1300" type="line"/>
      <point x="694" y="1300" type="line"/>
      <point x="694" y="1428" type="line"/>
      <point x="8" y="1428" type="line"/>
      <point x="8" y="1300" type="line"/>
      <point x="281" y="1300" type="line"/>
      <point x="281" y="0" type="line"/>
    </contour>
  </outline>
</glyph>
<glyph name="U" format="2">
  <advance width="899"/>
  <unicode hex="0055"/>
  <anchor x="451" y="0" name="bottom"/>
  <anchor x="624" y="13" name="ogonek"/>
  <anchor x="451" y="1428" name="top"/>
  <anchor x="844" y="1685" name="topright"/>
  <outline>
    <contour>
      <point x="451" y="-13" type="curve" smooth="yes"/>
      <point x="707" y="-13"/>
      <point x="814" y="60"/>
      <point x="816" y="240" type="curve" smooth="yes"/>
      <point x="824" y="635"/>
      <point x="824" y="1033"/>
      <point x="816" y="1428" type="curve"/>
      <point x="677" y="1428" type="line"/>
      <point x="684" y="1033"/>
      <point x="683" y="612"/>
      <point x="677" y="216" type="curve" smooth="yes"/>
      <point x="677" y="142"/>
      <point x="611" y="107"/>
      <point x="451" y="107" type="curve" smooth="yes"/>
      <point x="292" y="107"/>
      <point x="219" y="142"/>
      <point x="219" y="216" type="curve" smooth="yes"/>
      <point x="212" y="612"/>
      <point x="216" y="1033"/>
      <point x="224" y="1428" type="curve"/>
      <point x="85" y="1428" type="line"/>
      <point x="76" y="1033"/>
      <point x="76" y="635"/>
      <point x="85" y="240" type="curve" smooth="yes"/>
      <point x="86" y="60"/>
      <point x="194" y="-13"/>
    </contour>
  </outline>
</glyph>
<glyph name="V" format="2">
  <advance width="799"/>
  <unicode hex="0056"/>
  <outline>
    <contour>
      <point x="540" y="0" type="line"/>
      <point x="756" y="1428" type="line"/>
      <point x="606" y="1428" type="line"/>
      <point x="495" y="646" type="line"/>
      <point x="437" y="128" type="line"/>
      <point x="363" y="128" type="line"/>
      <point x="303" y="646" type="line"/>
      <point x="193" y="1428" type="line"/>
      <point x="46" y="1428" type="line"/>
      <point x="260" y="0" type="line"/>
    </contour>
  </outline>
</glyph>
<glyph name="W" format="2">
  <advance width="1122"/>
  <unicode hex="0057"/>
  <anchor x="563" y="0" name="bottom"/>
  <anchor x="563" y="1428" name="top"/>
  <outline>
    <contour>
      <point x="433" y="0" type="line"/>
      <point x="480" y="457" type="line"/>
      <point x="534" y="1295" type="line"/>
      <point x="589" y="1295" type="line"/>
      <point x="640" y="457" type="line"/>
      <point x="689" y="0" type="line"/>
      <point x="945" y="0" type="line"/>
      <point x="1065" y="1428" type="line"/>
      <point x="927" y="1428" type="line"/>
      <point x="886" y="872" type="line"/>
      <point x="835" y="128" type="line"/>
      <point x="787" y="128" type="line"/>
      <point x="743" y="872" type="line"/>
      <point x="685" y="1418" type="line"/>
      <point x="438" y="1418" type="line"/>
      <point x="383" y="872" type="line"/>
      <point x="333" y="128" type="line"/>
      <point x="285" y="128" type="line"/>
      <point x="236" y="872" type="line"/>
      <point x="198" y="1428" type="line"/>
      <point x="58" y="1428" type="line"/>
      <point x="176" y="0" type="line"/>
    </contour>
  </outline>
</glyph>
<glyph name="X" format="2">
  <advance width="786"/>
  <unicode hex="0058"/>
  <outline>
    <contour>
      <point x="176" y="0" type="line"/>
      <point x="278" y="353" type="line"/>
      <point x="367" y="660" type="line"/>
      <point x="421" y="660" type="line"/>
      <point x="511" y="353" type="line"/>
      <point x="610" y="0" type="line"/>
      <point x="746" y="0" type="line"/>
      <point x="516" y="726" type="line"/>
      <point x="731" y="1428" type="line"/>
      <point x="598" y="1428" type="line"/>
      <point x="506" y="1092" type="line"/>
      <point x="421" y="788" type="line"/>
      <point x="367" y="788" type="line"/>
      <point x="283" y="1092" type="line"/>
      <point x="190" y="1428" type="line"/>
      <point x="55" y="1428" type="line"/>
      <point x="275" y="730" type="line"/>
      <point x="42" y="0" type="line"/>
    </contour>
  </outline>
</glyph>
<glyph name="Y" format="2">
  <advance width="799"/>
  <unicode hex="0059"/>
  <anchor x="401" y="0" name="bottom"/>
  <anchor x="394" y="1428" name="top"/>
  <anchor x="37" y="1428" name="topleft"/>
  <outline>
    <contour>
      <point x="470" y="0" type="line"/>
      <point x="470" y="368" type="line"/>
      <point x="470" y="369" type="line"/>
      <point x="763" y="1428" type="line"/>
      <point x="616" y="1428" type="line"/>
      <point x="506" y="1034" type="line"/>
      <point x="424" y="624" type="line"/>
      <point x="379" y="624" type="line"/>
      <point x="292" y="1034" type="line"/>
      <point x="182" y="1428" type="line"/>
      <point x="37" y="1428" type="line"/>
      <point x="329" y="371" type="line"/>
      <point x="329" y="369" type="line"/>
      <point x="329" y="0" type="line"/>
    </contour>
  </outline>
</glyph>
<glyph name="Z" format="2">
  <advance width="705"/>
  <unicode hex="005A"/>
  <anchor x="352" y="0" name="bottom"/>
  <anchor x="352" y="714" name="center"/>
  <anchor x="352" y="1428" name="top"/>
  <outline>
    <contour>
      <point x="627" y="0" type="line"/>
      <point x="627" y="128" type="line"/>
      <point x="170" y="128" type="line"/>
      <point x="676" y="1309" type="line"/>
      <point x="676" y="1428" type="line"/>
      <point x="59" y="1428" type="line"/>
      <point x="59" y="1300" type="line"/>
      <point x="526" y="1300" type="line"/>
      <point x="27" y="118" type="line"/>
      <point x="27" y="0" type="line"/>
    </contour>
  </outline>
</glyph>
<glyph name="bracketleft" format="2">
  <advance width="594"/>
  <unicode hex="005B"/>
  <outline>
    <contour>
      <point x="544" y="-356" type="line"/>
      <point x="544" y="-277" type="line"/>
      <point x="232" y="-277" type="line"/>
      <point x="232" y="1348" type="line"/>
      <point x="544" y="1348" type="line"/>
      <point x="544" y="1428" type="line"/>
      <point x="93" y="1428" type="line"/>
      <point x="93" y="-356" type="line"/>
    </contour>
  </outline>
</glyph>
<glyph name="backslash" format="2">
  <advance width="885"/>
  <unicode hex="005C"/>
  <outline>
    <contour>
      <point x="835" y="-356" type="line"/>
      <point x="190" y="1428" type="line"/>
      <point x="51" y="1428" type="line"/>
      <point x="696" y="-356" type="line"/>
    </contour>
  </outline>
</glyph>
<glyph name="bracketright" format="2">
  <advance width="594"/>
  <unicode hex="005D"/>
  <outline>
    <contour>
      <point x="506" y="-356" type="line"/>
      <point x="506" y="1428" type="line"/>
      <point x="55" y="1428" type="line"/>
      <point x="55" y="1348" type="line"/>
      <point x="367" y="1348" type="line"/>
      <point x="367" y="-277" type="line"/>
      <point x="55" y="-277" type="line"/>
      <point x="55" y="-356" type="line"/>
    </contour>
  </outline>
</glyph>
<glyph name="asciicircum" format="2">
  <advance width="819"/>
  <unicode hex="005E"/>
  <outline>
    <contour>
      <point x="200" y="820" type="line"/>
      <point x="411" y="1122" type="line"/>
      <point x="620" y="820" type="line"/>
      <point x="727" y="820" type="line"/>
      <point x="464" y="1231" type="line"/>
      <point x="356" y="1231" type="line"/>
      <point x="92" y="820" type="line"/>
    </contour>
  </outline>
</glyph>
<glyph name="grave" format="2">
  <advance width="819"/>
  <unicode hex="0060"/>
  <outline>
    <contour>
      <point x="672" y="1142" type="line"/>
      <point x="313" y="1355" type="line"/>
      <point x="148" y="1355" type="line"/>
      <point x="507" y="1142" type="line"/>
    </contour>
  </outline>
</glyph>
<glyph name="a" format="2">
  <advance width="768"/>
  <unicode hex="0061"/>
  <anchor x="385" y="0" name="bottom"/>
  <anchor x="616" y="5" name="ogonek"/>
  <anchor x="392" y="973" name="top"/>
  <outline>
    <contour>
      <point x="320" y="-11" type="curve" smooth="yes"/>
      <point x="434" y="-11"/>
      <point x="491" y="25"/>
      <point x="524" y="92" type="curve"/>
      <point x="552" y="92" type="line"/>
      <point x="552" y="0" type="line" name=".hr01"/>
      <point x="678" y="0" type="line"/>
      <point x="678" y="746" type="line"/>
      <point x="677" y="916"/>
      <point x="606" y="986"/>
      <point x="391" y="986" type="curve" smooth="yes"/>
      <point x="185" y="986"/>
      <point x="97" y="921"/>
      <point x="91" y="767" type="curve"/>
      <point x="87" y="725"/>
      <point x="91" y="664"/>
      <point x="94" y="631" type="curve"/>
      <point x="219" y="631" type="line"/>
      <point x="216" y="673"/>
      <point x="216" y="748"/>
      <point x="219" y="781" type="curve" smooth="yes"/>
      <point x="224" y="851"/>
      <point x="279" y="874"/>
      <point x="386" y="874" type="curve" smooth="yes"/>
      <point x="508" y="874"/>
      <point x="552" y="843"/>
      <point x="552" y="778" type="curve" smooth="yes"/>
      <point x="552" y="593" type="line"/>
      <point x="470" y="573"/>
      <point x="385" y="552"/>
      <point x="311" y="526" type="curve"/>
      <point x="128" y="459"/>
      <point x="78" y="385"/>
      <point x="69" y="266" type="curve"/>
      <point x="66" y="241"/>
      <point x="69" y="213"/>
      <point x="71" y="187" type="curve" smooth="yes"/>
      <point x="84" y="51"/>
      <point x="157" y="-11"/>
    </contour>
    <contour>
      <point x="352" y="97" type="curve" smooth="yes"/>
      <point x="266" y="97"/>
      <point x="208" y="133"/>
      <point x="199" y="197" type="curve" smooth="yes"/>
      <point x="196" y="222"/>
      <point x="196" y="246"/>
      <point x="195" y="266" type="curve"/>
      <point x="200" y="335"/>
      <point x="226" y="386"/>
      <point x="334" y="426" type="curve"/>
      <point x="425" y="457"/>
      <point x="487" y="473"/>
      <point x="551" y="486" type="curve"/>
      <point x="551" y="183" type="line"/>
      <point x="516" y="128"/>
      <point x="451" y="97"/>
    </contour>
  </outline>
</glyph>
<glyph name="b" format="2">
  <advance width="776"/>
  <unicode hex="0062"/>
  <outline>
    <contour>
      <point x="462" y="-12" type="curve" smooth="yes"/>
      <point x="615" y="-12"/>
      <point x="689" y="49"/>
      <point x="693" y="203" type="curve" smooth="yes"/>
      <point x="700" y="366"/>
      <point x="700" y="594"/>
      <point x="693" y="771" type="curve" smooth="yes"/>
      <point x="689" y="926"/>
      <point x="621" y="986"/>
      <point x="468" y="986" type="curve" smooth="yes"/>
      <point x="357" y="986"/>
      <point x="302" y="952"/>
      <point x="254" y="882" type="curve"/>
      <point x="223" y="882" type="line"/>
      <point x="223" y="1298" type="line"/>
      <point x="94" y="1298" type="line"/>
      <point x="94" y="0" type="line" name=".hr01"/>
      <point x="223" y="0" type="line"/>
      <point x="223" y="92" type="line"/>
      <point x="248" y="92" type="line"/>
      <point x="296" y="23"/>
      <point x="352" y="-12"/>
    </contour>
    <contour>
      <point x="430" y="97" type="curve" smooth="yes"/>
      <point x="325" y="97"/>
      <point x="258" y="128"/>
      <point x="223" y="188" type="curve"/>
      <point x="223" y="786" type="line"/>
      <point x="258" y="847"/>
      <point x="325" y="877"/>
      <point x="430" y="877" type="curve" smooth="yes"/>
      <point x="525" y="877"/>
      <point x="562" y="849"/>
      <point x="565" y="782" type="curve" smooth="yes"/>
      <point x="574" y="582"/>
      <point x="574" y="366"/>
      <point x="565" y="192" type="curve" smooth="yes"/>
      <point x="562" y="126"/>
      <point x="525" y="97"/>
    </contour>
  </outline>
</glyph>
<glyph name="c" format="2">
  <advance width="756"/>
  <unicode hex="0063"/>
  <anchor x="382" y="0" name="bottom"/>
  <anchor x="389" y="973" name="top"/>
  <outline>
    <contour>
      <point x="686" y="631" type="line"/>
      <point x="692" y="669"/>
      <point x="690" y="727"/>
      <point x="688" y="767" type="curve"/>
      <point x="685" y="923"/>
      <point x="600" y="986"/>
      <point x="389" y="986" type="curve" smooth="yes"/>
      <point x="177" y="986"/>
      <point x="90" y="922"/>
      <point x="84" y="761" type="curve" smooth="yes"/>
      <point x="76" y="610"/>
      <point x="75" y="357"/>
      <point x="84" y="210" type="curve" smooth="yes"/>
      <point x="90" y="52"/>
      <point x="175" y="-12"/>
      <point x="388" y="-12" type="curve" smooth="yes"/>
      <point x="600" y="-12"/>
      <point x="680" y="52"/>
      <point x="688" y="210" type="curve" smooth="yes"/>
      <point x="691" y="251"/>
      <point x="692" y="308"/>
      <point x="686" y="347" type="curve"/>
      <point x="560" y="347" type="line"/>
      <point x="565" y="285"/>
      <point x="563" y="233"/>
      <point x="563" y="197" type="curve" smooth="yes"/>
      <point x="562" y="124"/>
      <point x="510" y="100"/>
      <point x="388" y="100" type="curve" smooth="yes"/>
      <point x="264" y="100"/>
      <point x="215" y="124"/>
      <point x="214" y="197" type="curve"/>
      <point x="205" y="405"/>
      <point x="205" y="572"/>
      <point x="214" y="781" type="curve"/>
      <point x="215" y="851"/>
      <point x="264" y="874"/>
      <point x="389" y="874" type="curve" smooth="yes"/>
      <point x="511" y="874"/>
      <point x="562" y="851"/>
      <point x="563" y="781" type="curve" smooth="yes"/>
      <point x="563" y="747"/>
      <point x="565" y="678"/>
      <point x="560" y="631" type="curve"/>
    </contour>
  </outline>
</glyph>
<glyph name="d" format="2">
  <advance width="772"/>
  <unicode hex="0064"/>
  <anchor x="391" y="0" name="bottom"/>
  <anchor x="379" y="487" name="center"/>
  <anchor x="335" y="1298" name="top"/>
  <anchor x="710" y="1036" name="topright"/>
  <outline>
    <contour>
      <point x="309" y="-12" type="curve" smooth="yes"/>
      <point x="419" y="-12"/>
      <point x="475" y="25"/>
      <point x="521" y="92" type="curve"/>
      <point x="550" y="92" type="line"/>
      <point x="550" y="0" type="line" name=".hr01"/>
      <point x="678" y="0" type="line"/>
      <point x="678" y="1298" type="line"/>
      <point x="550" y="1298" type="line"/>
      <point x="550" y="882" type="line"/>
      <point x="524" y="882" type="line"/>
      <point x="477" y="952"/>
      <point x="422" y="986"/>
      <point x="311" y="986" type="curve" smooth="yes"/>
      <point x="161" y="986"/>
      <point x="87" y="926"/>
      <point x="83" y="771" type="curve" smooth="yes"/>
      <point x="75" y="594"/>
      <point x="75" y="366"/>
      <point x="83" y="203" type="curve" smooth="yes"/>
      <point x="87" y="49"/>
      <point x="158" y="-12"/>
    </contour>
    <contour>
      <point x="346" y="97" type="curve" smooth="yes"/>
      <point x="252" y="97"/>
      <point x="216" y="126"/>
      <point x="213" y="192" type="curve" smooth="yes"/>
      <point x="207" y="366"/>
      <point x="205" y="582"/>
      <point x="213" y="782" type="curve" smooth="yes"/>
      <point x="214" y="849"/>
      <point x="254" y="877"/>
      <point x="347" y="877" type="curve" smooth="yes"/>
      <point x="448" y="877"/>
      <point x="515" y="847"/>
      <point x="550" y="786" type="curve"/>
      <point x="550" y="188" type="line"/>
      <point x="515" y="128"/>
      <point x="448" y="97"/>
    </contour>
  </outline>
</glyph>
<glyph name="e" format="2">
  <advance width="764"/>
  <unicode hex="0065"/>
  <anchor x="390" y="0" name="bottom"/>
  <anchor x="570" y="20" name="ogonek"/>
  <anchor x="390" y="973" name="top"/>
  <outline>
    <contour>
      <point x="395" y="-12" type="curve" smooth="yes"/>
      <point x="607" y="-12"/>
      <point x="681" y="52"/>
      <point x="690" y="210" type="curve" smooth="yes"/>
      <point x="693" y="251"/>
      <point x="694" y="308"/>
      <point x="688" y="347" type="curve"/>
      <point x="564" y="347" type="line"/>
      <point x="566" y="284"/>
      <point x="566" y="233"/>
      <point x="564" y="197" type="curve" smooth="yes"/>
      <point x="559" y="124"/>
      <point x="515" y="100"/>
      <point x="391" y="100" type="curve" smooth="yes"/>
      <point x="266" y="100"/>
      <point x="215" y="124"/>
      <point x="214" y="197" type="curve"/>
      <point x="210" y="290"/>
      <point x="209" y="376"/>
      <point x="209" y="460" type="curve"/>
      <point x="688" y="460" type="line"/>
      <point x="699" y="591"/>
      <point x="693" y="720"/>
      <point x="690" y="767" type="curve" smooth="yes"/>
      <point x="681" y="923"/>
      <point x="597" y="986"/>
      <point x="395" y="986" type="curve" smooth="yes"/>
      <point x="180" y="986"/>
      <point x="90" y="922"/>
      <point x="84" y="761" type="curve" smooth="yes"/>
      <point x="76" y="610"/>
      <point x="75" y="357"/>
      <point x="84" y="210" type="curve" smooth="yes"/>
      <point x="90" y="52"/>
      <point x="175" y="-12"/>
    </contour>
    <contour>
      <point x="209" y="566" type="line"/>
      <point x="208" y="634"/>
      <point x="210" y="703"/>
      <point x="214" y="781" type="curve"/>
      <point x="215" y="848"/>
      <point x="266" y="874"/>
      <point x="395" y="874" type="curve" smooth="yes"/>
      <point x="511" y="874"/>
      <point x="559" y="848"/>
      <point x="564" y="781" type="curve"/>
      <point x="569" y="750"/>
      <point x="569" y="657"/>
      <point x="566" y="566" type="curve"/>
    </contour>
  </outline>
</glyph>
<glyph name="f" format="2">
  <advance width="487"/>
  <unicode hex="0066"/>
  <outline>
    <contour>
      <point x="256" y="0" type="line"/>
      <point x="256" y="861" type="line"/>
      <point x="469" y="861" type="line"/>
      <point x="469" y="973" type="line"/>
      <point x="256" y="973" type="line"/>
      <point x="256" y="1101" type="line" smooth="yes"/>
      <point x="256" y="1169"/>
      <point x="289" y="1196"/>
      <point x="380" y="1196" type="curve" smooth="yes"/>
      <point x="426" y="1196"/>
      <point x="465" y="1195"/>
      <point x="501" y="1193" type="curve"/>
      <point x="501" y="1301" type="line"/>
      <point x="465" y="1308"/>
      <point x="414" y="1312"/>
      <point x="377" y="1312" type="curve" smooth="yes"/>
      <point x="199" y="1312"/>
      <point x="128" y="1248"/>
      <point x="128" y="1090" type="curve" smooth="yes"/>
      <point x="128" y="973" type="line"/>
      <point x="35" y="973" type="line"/>
      <point x="35" y="861" type="line"/>
      <point x="128" y="861" type="line"/>
      <point x="128" y="0" type="line"/>
    </contour>
  </outline>
</glyph>
<glyph name="g" format="2">
  <advance width="772"/>
  <unicode hex="0067"/>
  <anchor x="378" y="-324" name="bottom"/>
  <anchor x="360" y="973" name="top"/>
  <outline>
    <contour>
      <point x="368" y="-281" type="curve" smooth="yes"/>
      <point x="550" y="-281"/>
      <point x="681" y="-235"/>
      <point x="690" y="-110" type="curve"/>
      <point x="690" y="-90"/>
      <point x="690" y="-74"/>
      <point x="690" y="-58" type="curve"/>
      <point x="681" y="61"/>
      <point x="573" y="107"/>
      <point x="375" y="112" type="curve" smooth="yes"/>
      <point x="251" y="115"/>
      <point x="203" y="128"/>
      <point x="200" y="167" type="curve"/>
      <point x="200" y="175" type="line" smooth="yes"/>
      <point x="200" y="218"/>
      <point x="248" y="235"/>
      <point x="360" y="234" type="curve"/>
      <point x="553" y="234"/>
      <point x="629" y="297"/>
      <point x="636" y="459" type="curve"/>
      <point x="644" y="549"/>
      <point x="642" y="601"/>
      <point x="640" y="679" type="curve"/>
      <point x="642" y="758" type="line" smooth="yes"/>
      <point x="645" y="829"/>
      <point x="679" y="861"/>
      <point x="735" y="861" type="curve" smooth="yes"/>
      <point x="770" y="861" type="line"/>
      <point x="770" y="973" type="line" name=".hr01"/>
      <point x="692" y="973"/>
      <point x="646" y="946"/>
      <point x="641" y="887" type="curve"/>
      <point x="613" y="887" type="line"/>
      <point x="577" y="955"/>
      <point x="499" y="986"/>
      <point x="360" y="986" type="curve" smooth="yes"/>
      <point x="170" y="986"/>
      <point x="90" y="919"/>
      <point x="84" y="761" type="curve"/>
      <point x="76" y="636"/>
      <point x="77" y="579"/>
      <point x="84" y="459" type="curve"/>
      <point x="89" y="355"/>
      <point x="122" y="292"/>
      <point x="195" y="260" type="curve"/>
      <point x="195" y="235" type="line"/>
      <point x="144" y="229"/>
      <point x="96" y="196"/>
      <point x="95" y="151" type="curve"/>
      <point x="94" y="139"/>
      <point x="94" y="129"/>
      <point x="95" y="117" type="curve"/>
      <point x="97" y="72"/>
      <point x="132" y="45"/>
      <point x="197" y="31" type="curve"/>
      <point x="197" y="6" type="line"/>
      <point x="126" y="-2"/>
      <point x="64" y="-40"/>
      <point x="59" y="-98" type="curve"/>
      <point x="59" y="-114"/>
      <point x="61" y="-130"/>
      <point x="61" y="-140" type="curve"/>
      <point x="68" y="-237"/>
      <point x="186" y="-281"/>
    </contour>
    <contour>
      <point x="371" y="-175" type="curve" smooth="yes"/>
      <point x="259" y="-175"/>
      <point x="186" y="-161"/>
      <point x="180" y="-102" type="curve"/>
      <point x="180" y="-90"/>
      <point x="180" y="-75"/>
      <point x="180" y="-63" type="curve"/>
      <point x="187" y="-6"/>
      <point x="257" y="11"/>
      <point x="371" y="8" type="curve" smooth="yes"/>
      <point x="488" y="5"/>
      <point x="565" y="-5"/>
      <point x="570" y="-62" type="curve"/>
      <point x="570" y="-75"/>
      <point x="571" y="-87"/>
      <point x="570" y="-102" type="curve"/>
      <point x="565" y="-157"/>
      <point x="486" y="-175"/>
    </contour>
    <contour>
      <point x="360" y="347" type="curve" smooth="yes"/>
      <point x="257" y="347"/>
      <point x="214" y="377"/>
      <point x="209" y="443" type="curve" smooth="yes"/>
      <point x="202" y="538"/>
      <point x="202" y="654"/>
      <point x="209" y="778" type="curve" smooth="yes"/>
      <point x="214" y="848"/>
      <point x="254" y="874"/>
      <point x="360" y="874" type="curve" smooth="yes"/>
      <point x="465" y="874"/>
      <point x="506" y="849"/>
      <point x="510" y="779" type="curve" smooth="yes"/>
      <point x="517" y="675"/>
      <point x="517" y="535"/>
      <point x="510" y="441" type="curve" smooth="yes"/>
      <point x="506" y="374"/>
      <point x="466" y="347"/>
    </contour>
  </outline>
</glyph>
<glyph name="h" format="2">
  <advance width="774"/>
  <unicode hex="0068"/>
  <anchor x="391" y="0" name="bottom"/>
  <anchor x="219" y="1120" name="center"/>
  <anchor x="419" y="1298" name="top"/>
  <outline>
    <contour>
      <point x="223" y="0" type="line"/>
      <point x="223" y="786" type="line"/>
      <point x="258" y="847"/>
      <point x="323" y="877"/>
      <point x="425" y="877" type="curve" smooth="yes"/>
      <point x="518" y="877"/>
      <point x="558" y="849"/>
      <point x="558" y="782" type="curve" smooth="yes"/>
      <point x="558" y="0" type="line"/>
      <point x="686" y="0" type="line"/>
      <point x="686" y="771" type="line" smooth="yes"/>
      <point x="686" y="926"/>
      <point x="614" y="986"/>
      <point x="463" y="986" type="curve" smooth="yes"/>
      <point x="355" y="986"/>
      <point x="301" y="952"/>
      <point x="254" y="882" type="curve"/>
      <point x="223" y="882" type="line"/>
      <point x="223" y="1298" type="line"/>
      <point x="94" y="1298" type="line"/>
      <point x="94" y="0" type="line"/>
    </contour>
  </outline>
</glyph>
<glyph name="i" format="2">
  <advance width="365"/>
  <unicode hex="0069"/>
  <anchor x="183" y="0" name="bottom"/>
  <outline>
    <contour>
      <point x="308" y="1154" type="line"/>
      <point x="308" y="1298" type="line"/>
      <point x="58" y="1298" type="line"/>
      <point x="58" y="1154" type="line"/>
    </contour>
    <contour>
      <point x="248" y="0" type="line"/>
      <point x="248" y="973" type="line"/>
      <point x="118" y="973" type="line"/>
      <point x="118" y="0" type="line"/>
    </contour>
  </outline>
</glyph>
<glyph name="j" format="2">
  <advance width="365"/>
  <unicode hex="006A"/>
  <outline>
    <contour>
      <point x="308" y="1154" type="line"/>
      <point x="308" y="1298" type="line"/>
      <point x="101" y="1298" type="line"/>
      <point x="101" y="1154" type="line"/>
    </contour>
    <contour>
      <point x="22" y="-335" type="curve" smooth="yes"/>
      <point x="196" y="-335"/>
      <point x="269" y="-271"/>
      <point x="269" y="-113" type="curve" smooth="yes"/>
      <point x="269" y="973" type="line"/>
      <point x="140" y="973" type="line"/>
      <point x="140" y="-123" type="line" smooth="yes"/>
      <point x="140" y="-193"/>
      <point x="106" y="-220"/>
      <point x="19" y="-220" type="curve" smooth="yes"/>
      <point x="-21" y="-220"/>
      <point x="-67" y="-218"/>
      <point x="-97" y="-215" type="curve"/>
      <point x="-97" y="-325" type="line"/>
      <point x="-65" y="-331"/>
      <point x="-14" y="-335"/>
    </contour>
  </outline>
</glyph>
<glyph name="k" format="2">
  <advance width="686"/>
  <unicode hex="006B"/>
  <anchor x="355" y="0" name="bottom"/>
  <anchor x="355" y="1298" name="top"/>
  <outline>
    <contour>
      <point x="219" y="0" type="line"/>
      <point x="219" y="323" type="line"/>
      <point x="299" y="430" type="line"/>
      <point x="546" y="0" type="line"/>
      <point x="681" y="0" type="line"/>
      <point x="375" y="581" type="line"/>
      <point x="623" y="973" type="line"/>
      <point x="487" y="973" type="line"/>
      <point x="337" y="743" type="line"/>
      <point x="240" y="554" type="line"/>
      <point x="206" y="554" type="line"/>
      <point x="217" y="978" type="line"/>
      <point x="217" y="1298" type="line"/>
      <point x="94" y="1298" type="line"/>
      <point x="94" y="0" type="line"/>
    </contour>
  </outline>
</glyph>
<glyph name="l" format="2">
  <advance width="365"/>
  <unicode hex="006C"/>
  <anchor x="183" y="0" name="bottom"/>
  <anchor x="590" y="673" name="center"/>
  <anchor x="183" y="1298" name="top"/>
  <anchor x="312" y="1036" name="topright"/>
  <outline>
    <contour>
      <point x="248" y="0" type="line"/>
      <point x="248" y="1298" type="line"/>
      <point x="118" y="1298" type="line"/>
      <point x="118" y="0" type="line"/>
    </contour>
  </outline>
</glyph>
<glyph name="m" format="2">
  <advance width="1194"/>
  <unicode hex="006D"/>
  <anchor x="603" y="0" name="bottom"/>
  <anchor x="603" y="973" name="top"/>
  <outline>
    <contour>
      <point x="223" y="0" type="line"/>
      <point x="223" y="786" type="line"/>
      <point x="255" y="847"/>
      <point x="318" y="877"/>
      <point x="413" y="877" type="curve" smooth="yes"/>
      <point x="500" y="877"/>
      <point x="535" y="849"/>
      <point x="538" y="782" type="curve"/>
      <point x="538" y="0" type="line"/>
      <point x="666" y="0" type="line"/>
      <point x="666" y="783" type="line"/>
      <point x="699" y="843"/>
      <point x="759" y="877"/>
      <point x="851" y="877" type="curve" smooth="yes"/>
      <point x="940" y="877"/>
      <point x="975" y="849"/>
      <point x="978" y="782" type="curve"/>
      <point x="978" y="0" type="line"/>
      <point x="1106" y="0" type="line"/>
      <point x="1106" y="771" type="line" smooth="yes"/>
      <point x="1106" y="926"/>
      <point x="1036" y="986"/>
      <point x="893" y="986" type="curve" smooth="yes"/>
      <point x="786" y="986"/>
      <point x="722" y="943"/>
      <point x="678" y="874" type="curve"/>
      <point x="651" y="874" type="line"/>
      <point x="625" y="953"/>
      <point x="561" y="986"/>
      <point x="453" y="986" type="curve" smooth="yes"/>
      <point x="346" y="986"/>
      <point x="293" y="952"/>
      <point x="248" y="882" type="curve"/>
      <point x="223" y="882" type="line"/>
      <point x="223" y="973" type="line" name=".hr01"/>
      <point x="94" y="973" type="line"/>
      <point x="94" y="0" type="line"/>
    </contour>
  </outline>
</glyph>
<glyph name="n" format="2">
  <advance width="774"/>
  <unicode hex="006E"/>
  <anchor x="394" y="0" name="bottom"/>
  <anchor x="394" y="973" name="top"/>
  <outline>
    <contour>
      <point x="223" y="0" type="line"/>
      <point x="223" y="786" type="line"/>
      <point x="257" y="843"/>
      <point x="332" y="877"/>
      <point x="425" y="877" type="curve" smooth="yes"/>
      <point x="518" y="877"/>
      <point x="558" y="849"/>
      <point x="558" y="782" type="curve" smooth="yes"/>
      <point x="558" y="0" type="line"/>
      <point x="686" y="0" type="line"/>
      <point x="686" y="771" type="line" smooth="yes"/>
      <point x="686" y="926"/>
      <point x="614" y="986"/>
      <point x="463" y="986" type="curve" smooth="yes"/>
      <point x="360" y="986"/>
      <point x="295" y="949"/>
      <point x="254" y="882" type="curve"/>
      <point x="223" y="882" type="line"/>
      <point x="223" y="973" type="line" name=".hr01"/>
      <point x="94" y="973" type="line"/>
      <point x="94" y="0" type="line"/>
    </contour>
  </outline>
</glyph>
<glyph name="o" format="2">
  <advance width="776"/>
  <unicode hex="006F"/>
  <anchor x="389" y="0" name="bottom"/>
  <anchor x="389" y="487" name="center"/>
  <anchor x="526" y="11" name="ogonek"/>
  <anchor x="389" y="973" name="top"/>
  <anchor x="661" y="1216" name="topright"/>
  <outline>
    <contour>
      <point x="389" y="-12" type="curve" smooth="yes"/>
      <point x="607" y="-12"/>
      <point x="682" y="58"/>
      <point x="689" y="230" type="curve"/>
      <point x="701" y="382"/>
      <point x="700" y="596"/>
      <point x="689" y="744" type="curve"/>
      <point x="682" y="917"/>
      <point x="607" y="986"/>
      <point x="389" y="986" type="curve" smooth="yes"/>
      <point x="173" y="986"/>
      <point x="94" y="917"/>
      <point x="87" y="744" type="curve"/>
      <point x="75" y="593"/>
      <point x="75" y="377"/>
      <point x="87" y="230" type="curve"/>
      <point x="94" y="57"/>
      <point x="172" y="-12"/>
    </contour>
    <contour>
      <point x="389" y="100" type="curve" smooth="yes"/>
      <point x="268" y="100"/>
      <point x="218" y="127"/>
      <point x="215" y="197" type="curve" smooth="yes"/>
      <point x="201" y="404"/>
      <point x="203" y="569"/>
      <point x="215" y="777" type="curve" smooth="yes"/>
      <point x="219" y="847"/>
      <point x="264" y="874"/>
      <point x="389" y="874" type="curve" smooth="yes"/>
      <point x="514" y="874"/>
      <point x="558" y="847"/>
      <point x="562" y="777" type="curve" smooth="yes"/>
      <point x="575" y="569"/>
      <point x="575" y="405"/>
      <point x="562" y="197" type="curve" smooth="yes"/>
      <point x="558" y="127"/>
      <point x="511" y="100"/>
    </contour>
  </outline>
</glyph>
<glyph name="p" format="2">
  <advance width="772"/>
  <unicode hex="0070"/>
  <outline>
    <contour>
      <point x="223" y="-324" type="line"/>
      <point x="223" y="92" type="line"/>
      <point x="251" y="92" type="line"/>
      <point x="299" y="18"/>
      <point x="358" y="-12"/>
      <point x="458" y="-12" type="curve" smooth="yes"/>
      <point x="610" y="-12"/>
      <point x="685" y="49"/>
      <point x="689" y="203" type="curve" smooth="yes"/>
      <point x="696" y="359"/>
      <point x="696" y="636"/>
      <point x="689" y="771" type="curve" smooth="yes"/>
      <point x="685" y="926"/>
      <point x="615" y="986"/>
      <point x="463" y="986" type="curve" smooth="yes"/>
      <point x="352" y="986"/>
      <point x="296" y="952"/>
      <point x="251" y="882" type="curve"/>
      <point x="223" y="882" type="line"/>
      <point x="223" y="973" type="line" name=".hr01"/>
      <point x="94" y="973" type="line"/>
      <point x="94" y="-324" type="line"/>
    </contour>
    <contour>
      <point x="422" y="97" type="curve" smooth="yes"/>
      <point x="316" y="97"/>
      <point x="259" y="123"/>
      <point x="223" y="188" type="curve"/>
      <point x="223" y="786" type="line"/>
      <point x="258" y="847"/>
      <point x="324" y="877"/>
      <point x="428" y="877" type="curve" smooth="yes"/>
      <point x="522" y="877"/>
      <point x="558" y="849"/>
      <point x="561" y="782" type="curve" smooth="yes"/>
      <point x="568" y="604"/>
      <point x="572" y="398"/>
      <point x="561" y="192" type="curve" smooth="yes"/>
      <point x="558" y="126"/>
      <point x="515" y="97"/>
    </contour>
  </outline>
</glyph>
<glyph name="q" format="2">
  <advance width="772"/>
  <unicode hex="0071"/>
  <outline>
    <contour>
      <point x="678" y="-324" type="line"/>
      <point x="678" y="973" type="line" name=".hr01"/>
      <point x="550" y="973" type="line"/>
      <point x="550" y="882" type="line"/>
      <point x="522" y="882" type="line"/>
      <point x="475" y="952"/>
      <point x="423" y="986"/>
      <point x="311" y="986" type="curve" smooth="yes"/>
      <point x="159" y="986"/>
      <point x="89" y="926"/>
      <point x="83" y="771" type="curve" smooth="yes"/>
      <point x="75" y="613"/>
      <point x="77" y="336"/>
      <point x="83" y="203" type="curve" smooth="yes"/>
      <point x="89" y="49"/>
      <point x="165" y="-12"/>
      <point x="316" y="-12" type="curve" smooth="yes"/>
      <point x="419" y="-12"/>
      <point x="476" y="18"/>
      <point x="523" y="92" type="curve"/>
      <point x="550" y="92" type="line"/>
      <point x="550" y="-324" type="line"/>
    </contour>
    <contour>
      <point x="352" y="97" type="curve" smooth="yes"/>
      <point x="260" y="97"/>
      <point x="216" y="126"/>
      <point x="213" y="192" type="curve" smooth="yes"/>
      <point x="202" y="368"/>
      <point x="203" y="574"/>
      <point x="213" y="782" type="curve" smooth="yes"/>
      <point x="216" y="849"/>
      <point x="254" y="877"/>
      <point x="346" y="877" type="curve" smooth="yes"/>
      <point x="449" y="877"/>
      <point x="515" y="847"/>
      <point x="550" y="786" type="curve"/>
      <point x="550" y="188" type="line"/>
      <point x="513" y="123"/>
      <point x="458" y="97"/>
    </contour>
  </outline>
</glyph>
<glyph name="r" format="2">
  <advance width="678"/>
  <unicode hex="0072"/>
  <anchor x="162" y="0" name="bottom"/>
  <anchor x="337" y="973" name="top"/>
  <outline>
    <contour>
      <point x="226" y="0" type="line"/>
      <point x="226" y="754" type="line"/>
      <point x="276" y="827"/>
      <point x="370" y="861"/>
      <point x="565" y="861" type="curve" smooth="yes"/>
      <point x="672" y="861" type="line"/>
      <point x="672" y="975" type="line"/>
      <point x="640" y="975"/>
      <point x="598" y="977"/>
      <point x="564" y="977" type="curve" smooth="yes"/>
      <point x="401" y="977"/>
      <point x="317" y="951"/>
      <point x="262" y="874" type="curve"/>
      <point x="226" y="874" type="line"/>
      <point x="226" y="973" type="line"/>
      <point x="97" y="973" type="line"/>
      <point x="97" y="0" type="line"/>
    </contour>
  </outline>
</glyph>
<glyph name="s" format="2">
  <advance width="735"/>
  <unicode hex="0073"/>
  <anchor x="368" y="0" name="bottom"/>
  <anchor x="368" y="973" name="top"/>
  <outline>
    <contour>
      <point x="362" y="-12" type="curve" smooth="yes"/>
      <point x="583" y="-12"/>
      <point x="658" y="51"/>
      <point x="668" y="207" type="curve"/>
      <point x="671" y="237"/>
      <point x="671" y="273"/>
      <point x="671" y="302" type="curve" smooth="yes"/>
      <point x="671" y="443"/>
      <point x="599" y="505"/>
      <point x="437" y="538" type="curve" smooth="yes"/>
      <point x="325" y="561" type="line"/>
      <point x="205" y="579"/>
      <point x="200" y="623"/>
      <point x="194" y="694" type="curve"/>
      <point x="193" y="732"/>
      <point x="196" y="747"/>
      <point x="198" y="781" type="curve" smooth="yes"/>
      <point x="203" y="851"/>
      <point x="240" y="874"/>
      <point x="371" y="874" type="curve" smooth="yes"/>
      <point x="500" y="874"/>
      <point x="539" y="851"/>
      <point x="540" y="781" type="curve"/>
      <point x="542" y="747"/>
      <point x="544" y="678"/>
      <point x="538" y="631" type="curve"/>
      <point x="659" y="631" type="line"/>
      <point x="663" y="669"/>
      <point x="663" y="727"/>
      <point x="663" y="767" type="curve"/>
      <point x="655" y="923"/>
      <point x="586" y="986"/>
      <point x="371" y="986" type="curve" smooth="yes"/>
      <point x="147" y="986"/>
      <point x="77" y="922"/>
      <point x="74" y="761" type="curve"/>
      <point x="69" y="733"/>
      <point x="67" y="710"/>
      <point x="69" y="682" type="curve" smooth="yes"/>
      <point x="77" y="540"/>
      <point x="120" y="479"/>
      <point x="301" y="441" type="curve"/>
      <point x="418" y="414" type="line"/>
      <point x="524" y="398"/>
      <point x="545" y="363"/>
      <point x="549" y="295" type="curve"/>
      <point x="550" y="254"/>
      <point x="549" y="242"/>
      <point x="545" y="197" type="curve"/>
      <point x="541" y="124"/>
      <point x="494" y="100"/>
      <point x="362" y="100" type="curve" smooth="yes"/>
      <point x="233" y="100"/>
      <point x="190" y="124"/>
      <point x="189" y="197" type="curve"/>
      <point x="187" y="233"/>
      <point x="186" y="285"/>
      <point x="189" y="347" type="curve"/>
      <point x="72" y="347" type="line"/>
      <point x="66" y="308"/>
      <point x="68" y="251"/>
      <point x="71" y="210" type="curve"/>
      <point x="77" y="52"/>
      <point x="147" y="-12"/>
    </contour>
  </outline>
</glyph>
<glyph name="t" format="2">
  <advance width="520"/>
  <unicode hex="0074"/>
  <anchor x="346" y="0" name="bottom"/>
  <anchor x="259" y="562" name="center"/>
  <anchor x="255" y="1271" name="top"/>
  <anchor x="311" y="1036" name="topright"/>
  <outline>
    <contour>
      <point x="401" y="-12" type="curve" smooth="yes"/>
      <point x="440" y="-12"/>
      <point x="478" y="-10"/>
      <point x="510" y="-4" type="curve"/>
      <point x="510" y="103" type="line"/>
      <point x="474" y="101"/>
      <point x="454" y="99"/>
      <point x="404" y="99" type="curve" smooth="yes"/>
      <point x="280" y="99"/>
      <point x="265" y="123"/>
      <point x="265" y="196" type="curve" smooth="yes"/>
      <point x="265" y="861" type="line"/>
      <point x="486" y="861" type="line"/>
      <point x="486" y="973" type="line"/>
      <point x="266" y="973" type="line"/>
      <point x="266" y="1249" type="line"/>
      <point x="139" y="1249" type="line"/>
      <point x="139" y="973" type="line"/>
      <point x="40" y="973" type="line"/>
      <point x="40" y="861" type="line"/>
      <point x="136" y="861" type="line"/>
      <point x="136" y="210" type="line" smooth="yes"/>
      <point x="136" y="52"/>
      <point x="193" y="-12"/>
    </contour>
  </outline>
</glyph>
<glyph name="u" format="2">
  <advance width="774"/>
  <unicode hex="0075"/>
  <anchor x="382" y="0" name="bottom"/>
  <anchor x="594" y="2" name="ogonek"/>
  <anchor x="382" y="973" name="top"/>
  <anchor x="683" y="1215" name="topright"/>
  <outline>
    <contour>
      <point x="313" y="-12" type="curve" smooth="yes"/>
      <point x="410" y="-12"/>
      <point x="479" y="21" name=".hr01"/>
      <point x="524" y="92" type="curve"/>
      <point x="551" y="92" type="line"/>
      <point x="551" y="0" type="line"/>
      <point x="681" y="0" type="line"/>
      <point x="681" y="973" type="line"/>
      <point x="551" y="973" type="line"/>
      <point x="551" y="188" type="line"/>
      <point x="518" y="131"/>
      <point x="442" y="97"/>
      <point x="348" y="97" type="curve" smooth="yes"/>
      <point x="255" y="97"/>
      <point x="216" y="126"/>
      <point x="216" y="192" type="curve" smooth="yes"/>
      <point x="216" y="973" type="line"/>
      <point x="88" y="973" type="line"/>
      <point x="88" y="203" type="line" smooth="yes"/>
      <point x="88" y="49"/>
      <point x="164" y="-12"/>
    </contour>
  </outline>
</glyph>
<glyph name="v" format="2">
  <advance width="711"/>
  <unicode hex="0076"/>
  <outline>
    <contour>
      <point x="486" y="0" type="line"/>
      <point x="681" y="973" type="line"/>
      <point x="546" y="973" type="line"/>
      <point x="465" y="484" type="line"/>
      <point x="390" y="111" type="line"/>
      <point x="313" y="111" type="line"/>
      <point x="242" y="484" type="line"/>
      <point x="166" y="973" type="line"/>
      <point x="32" y="973" type="line"/>
      <point x="217" y="0" type="line"/>
    </contour>
  </outline>
</glyph>
<glyph name="w" format="2">
  <advance width="1034"/>
  <unicode hex="0077"/>
  <anchor x="515" y="0" name="bottom"/>
  <anchor x="515" y="973" name="top"/>
  <outline>
    <contour>
      <point x="401" y="0" type="line"/>
      <point x="435" y="376" type="line"/>
      <point x="479" y="860" type="line"/>
      <point x="550" y="860" type="line"/>
      <point x="594" y="376" type="line"/>
      <point x="627" y="0" type="line"/>
      <point x="878" y="0" type="line"/>
      <point x="1003" y="973" type="line"/>
      <point x="874" y="973" type="line"/>
      <point x="825" y="484" type="line"/>
      <point x="786" y="111" type="line"/>
      <point x="724" y="111" type="line"/>
      <point x="695" y="484" type="line"/>
      <point x="643" y="970" type="line"/>
      <point x="387" y="970" type="line"/>
      <point x="333" y="484" type="line"/>
      <point x="305" y="111" type="line"/>
      <point x="243" y="111" type="line"/>
      <point x="206" y="484" type="line"/>
      <point x="157" y="973" type="line"/>
      <point x="32" y="973" type="line"/>
      <point x="150" y="0" type="line"/>
    </contour>
  </outline>
</glyph>
<glyph name="x" format="2">
  <advance width="678"/>
  <unicode hex="0078"/>
  <outline>
    <contour>
      <point x="150" y="0" type="line"/>
      <point x="244" y="254" type="line"/>
      <point x="316" y="456" type="line"/>
      <point x="359" y="456" type="line"/>
      <point x="434" y="254" type="line"/>
      <point x="529" y="0" type="line"/>
      <point x="653" y="0" type="line"/>
      <point x="455" y="502" type="line"/>
      <point x="648" y="973" type="line"/>
      <point x="525" y="973" type="line"/>
      <point x="446" y="766" type="line"/>
      <point x="359" y="564" type="line"/>
      <point x="313" y="564" type="line"/>
      <point x="231" y="766" type="line"/>
      <point x="155" y="973" type="line"/>
      <point x="31" y="973" type="line"/>
      <point x="219" y="504" type="line"/>
      <point x="25" y="0" type="line"/>
    </contour>
  </outline>
</glyph>
<glyph name="y" format="2">
  <advance width="711"/>
  <unicode hex="0079"/>
  <anchor x="565" y="-150" name="bottom"/>
  <anchor x="388" y="973" name="top"/>
  <outline>
    <contour>
      <point x="184" y="-333" type="curve" smooth="yes"/>
      <point x="377" y="-333"/>
      <point x="445" y="-269"/>
      <point x="470" y="-111" type="curve"/>
      <point x="680" y="973" type="line"/>
      <point x="547" y="973" type="line"/>
      <point x="476" y="509" type="line"/>
      <point x="394" y="111" type="line"/>
      <point x="333" y="111" type="line"/>
      <point x="256" y="509" type="line"/>
      <point x="189" y="973" type="line"/>
      <point x="57" y="973" type="line"/>
      <point x="237" y="0" type="line"/>
      <point x="372" y="0" type="line"/>
      <point x="343" y="-121" type="line"/>
      <point x="328" y="-193"/>
      <point x="298" y="-218"/>
      <point x="180" y="-218" type="curve" smooth="yes"/>
      <point x="129" y="-218"/>
      <point x="71" y="-216"/>
      <point x="34" y="-213" type="curve"/>
      <point x="34" y="-324" type="line"/>
      <point x="73" y="-328"/>
      <point x="141" y="-333"/>
    </contour>
  </outline>
</glyph>
<glyph name="z" format="2">
  <advance width="655"/>
  <unicode hex="007A"/>
  <anchor x="330" y="0" name="bottom"/>
  <anchor x="330" y="487" name="center"/>
  <anchor x="330" y="973" name="top"/>
  <outline>
    <contour>
      <point x="606" y="0" type="line"/>
      <point x="606" y="111" type="line"/>
      <point x="168" y="111" type="line"/>
      <point x="626" y="878" type="line"/>
      <point x="626" y="973" type="line"/>
      <point x="41" y="972" type="line"/>
      <point x="41" y="862" type="line"/>
      <point x="483" y="863" type="line"/>
      <point x="29" y="94" type="line"/>
      <point x="29" y="0" type="line"/>
    </contour>
  </outline>
</glyph>
<glyph name="braceleft" format="2">
  <advance width="698"/>
  <unicode hex="007B"/>
  <outline>
    <contour>
      <point x="648" y="-277" type="line"/>
      <point x="463" y="-277"/>
      <point x="341" y="-188"/>
      <point x="341" y="-67" type="curve" smooth="yes"/>
      <point x="341" y="-2"/>
      <point x="366" y="236"/>
      <point x="366" y="295" type="curve" smooth="yes"/>
      <point x="366" y="415"/>
      <point x="304" y="502"/>
      <point x="190" y="520" type="curve"/>
      <point x="190" y="550" type="line"/>
      <point x="304" y="568"/>
      <point x="366" y="655"/>
      <point x="366" y="774" type="curve" smooth="yes"/>
      <point x="366" y="833"/>
      <point x="341" y="1071"/>
      <point x="341" y="1137" type="curve" smooth="yes"/>
      <point x="341" y="1259"/>
      <point x="463" y="1346"/>
      <point x="648" y="1346" type="curve"/>
      <point x="648" y="1428" type="line"/>
      <point x="384" y="1428"/>
      <point x="204" y="1340"/>
      <point x="204" y="1137" type="curve" smooth="yes"/>
      <point x="204" y="1063"/>
      <point x="230" y="778"/>
      <point x="230" y="733" type="curve" smooth="yes"/>
      <point x="230" y="637"/>
      <point x="169" y="613"/>
      <point x="86" y="613" type="curve" smooth="yes"/>
      <point x="51" y="613" type="line"/>
      <point x="51" y="455" type="line"/>
      <point x="86" y="455" type="line" smooth="yes"/>
      <point x="172" y="455"/>
      <point x="230" y="432"/>
      <point x="230" y="336" type="curve" smooth="yes"/>
      <point x="230" y="290"/>
      <point x="204" y="8"/>
      <point x="204" y="-67" type="curve" smooth="yes"/>
      <point x="204" y="-270"/>
      <point x="384" y="-358"/>
      <point x="648" y="-358" type="curve"/>
    </contour>
  </outline>
</glyph>
<glyph name="bar" format="2">
  <advance width="418"/>
  <unicode hex="007C"/>
  <outline>
    <contour>
      <point x="139" y="-214" type="line"/>
      <point x="278" y="-214" type="line"/>
      <point x="278" y="1624" type="line"/>
      <point x="139" y="1624" type="line"/>
    </contour>
  </outline>
</glyph>
<glyph name="braceright" format="2">
  <advance width="698"/>
  <unicode hex="007D"/>
  <outline>
    <contour>
      <point x="26" y="-358" type="line"/>
      <point x="303" y="-358"/>
      <point x="490" y="-270"/>
      <point x="490" y="-67" type="curve" smooth="yes"/>
      <point x="490" y="8"/>
      <point x="463" y="290"/>
      <point x="463" y="336" type="curve" smooth="yes"/>
      <point x="463" y="432"/>
      <point x="524" y="455"/>
      <point x="615" y="455" type="curve" smooth="yes"/>
      <point x="648" y="455" type="line"/>
      <point x="648" y="613" type="line"/>
      <point x="615" y="613" type="line" smooth="yes"/>
      <point x="526" y="613"/>
      <point x="463" y="637"/>
      <point x="463" y="733" type="curve" smooth="yes"/>
      <point x="463" y="778"/>
      <point x="490" y="1063"/>
      <point x="490" y="1137" type="curve" smooth="yes"/>
      <point x="490" y="1340"/>
      <point x="303" y="1428"/>
      <point x="26" y="1428" type="curve"/>
      <point x="26" y="1346" type="line"/>
      <point x="225" y="1346"/>
      <point x="352" y="1259"/>
      <point x="352" y="1137" type="curve" smooth="yes"/>
      <point x="352" y="1071"/>
      <point x="327" y="833"/>
      <point x="327" y="774" type="curve" smooth="yes"/>
      <point x="327" y="655"/>
      <point x="391" y="568"/>
      <point x="509" y="550" type="curve"/>
      <point x="509" y="520" type="line"/>
      <point x="391" y="502"/>
      <point x="327" y="415"/>
      <point x="327" y="295" type="curve" smooth="yes"/>
      <point x="327" y="236"/>
      <point x="352" y="-2"/>
      <point x="352" y="-67" type="curve" smooth="yes"/>
      <point x="352" y="-188"/>
      <point x="225" y="-277"/>
      <point x="26" y="-277" type="curve"/>
    </contour>
  </outline>
</glyph>
<glyph name="asciitilde" format="2">
  <advance width="1034"/>
  <unicode hex="007E"/>
  <outline>
    <contour>
      <point x="685" y="573" type="curve" smooth="yes"/>
      <point x="832" y="567"/>
      <point x="933" y="637"/>
      <point x="944" y="785" type="curve"/>
      <point x="854" y="785" type="line"/>
      <point x="849" y="721"/>
      <point x="784" y="682"/>
      <point x="689" y="687" type="curve"/>
      <point x="573" y="693"/>
      <point x="540" y="792"/>
      <point x="374" y="802" type="curve" smooth="yes"/>
      <point x="228" y="811"/>
      <point x="110" y="743"/>
      <point x="91" y="586" type="curve"/>
      <point x="183" y="586" type="line"/>
      <point x="194" y="657"/>
      <point x="267" y="699"/>
      <point x="365" y="691" type="curve"/>
      <point x="493" y="681"/>
      <point x="535" y="580"/>
    </contour>
  </outline>
</glyph>
<glyph name="exclamdown" format="2">
  <advance width="408"/>
  <unicode hex="00A1"/>
  <outline>
    <contour>
      <point x="155" y="765" type="line"/>
      <point x="130" y="3" type="line"/>
      <point x="130" y="-357" type="line"/>
      <point x="279" y="-357" type="line"/>
      <point x="279" y="3" type="line"/>
      <point x="255" y="765" type="line"/>
    </contour>
    <contour>
      <point x="79" y="1071" type="line"/>
      <point x="79" y="892" type="line"/>
      <point x="330" y="892" type="line"/>
      <point x="330" y="1071" type="line"/>
    </contour>
  </outline>
</glyph>
<glyph name="cent" format="2">
  <advance width="756"/>
  <unicode hex="00A2"/>
  <outline>
    <contour>
      <point x="449" y="0" type="line"/>
      <point x="449" y="169" type="line"/>
      <point x="614" y="186"/>
      <point x="680" y="257"/>
      <point x="688" y="404" type="curve"/>
      <point x="692" y="450"/>
      <point x="690" y="512"/>
      <point x="687" y="557" type="curve"/>
      <point x="550" y="557" type="line"/>
      <point x="552" y="488"/>
      <point x="552" y="432"/>
      <point x="551" y="391" type="curve" smooth="yes"/>
      <point x="550" y="309"/>
      <point x="503" y="283"/>
      <point x="388" y="283" type="curve" smooth="yes"/>
      <point x="271" y="283"/>
      <point x="226" y="309"/>
      <point x="223" y="391" type="curve" smooth="yes"/>
      <point x="217" y="625"/>
      <point x="215" y="806"/>
      <point x="223" y="1043" type="curve" smooth="yes"/>
      <point x="225" y="1121"/>
      <point x="272" y="1146"/>
      <point x="388" y="1146" type="curve" smooth="yes"/>
      <point x="502" y="1146"/>
      <point x="550" y="1121"/>
      <point x="551" y="1043" type="curve" smooth="yes"/>
      <point x="552" y="1003"/>
      <point x="552" y="928"/>
      <point x="550" y="875" type="curve"/>
      <point x="687" y="875" type="line"/>
      <point x="690" y="919"/>
      <point x="690" y="982"/>
      <point x="688" y="1027" type="curve"/>
      <point x="686" y="1173"/>
      <point x="618" y="1244"/>
      <point x="449" y="1259" type="curve"/>
      <point x="449" y="1428" type="line"/>
      <point x="323" y="1428" type="line"/>
      <point x="323" y="1258" type="line"/>
      <point x="157" y="1241"/>
      <point x="88" y="1170"/>
      <point x="83" y="1022" type="curve" smooth="yes"/>
      <point x="75" y="849"/>
      <point x="75" y="573"/>
      <point x="83" y="404" type="curve" smooth="yes"/>
      <point x="88" y="259"/>
      <point x="155" y="188"/>
      <point x="323" y="171" type="curve"/>
      <point x="323" y="0" type="line"/>
    </contour>
  </outline>
</glyph>
<glyph name="sterling" format="2">
  <advance width="856"/>
  <unicode hex="00A3"/>
  <outline>
    <contour>
      <point x="766" y="0" type="line"/>
      <point x="766" y="135" type="line"/>
      <point x="259" y="135" type="line"/>
      <point x="259" y="165" type="line"/>
      <point x="341" y="231"/>
      <point x="399" y="345"/>
      <point x="399" y="527" type="curve" smooth="yes"/>
      <point x="399" y="585"/>
      <point x="389" y="637"/>
      <point x="374" y="686" type="curve"/>
      <point x="599" y="686" type="line"/>
      <point x="599" y="767" type="line"/>
      <point x="362" y="767" type="line"/>
      <point x="321" y="913"/>
      <point x="259" y="1035"/>
      <point x="261" y="1205" type="curve" smooth="yes"/>
      <point x="261" y="1283"/>
      <point x="310" y="1315"/>
      <point x="428" y="1315" type="curve" smooth="yes"/>
      <point x="554" y="1315"/>
      <point x="602" y="1283"/>
      <point x="603" y="1205" type="curve"/>
      <point x="607" y="1119"/>
      <point x="606" y="1009"/>
      <point x="603" y="923" type="curve"/>
      <point x="742" y="923" type="line"/>
      <point x="745" y="990"/>
      <point x="748" y="1114"/>
      <point x="745" y="1180" type="curve" smooth="yes"/>
      <point x="739" y="1366"/>
      <point x="646" y="1441"/>
      <point x="428" y="1441" type="curve" smooth="yes"/>
      <point x="215" y="1441"/>
      <point x="122" y="1349"/>
      <point x="122" y="1181" type="curve"/>
      <point x="120" y="994"/>
      <point x="175" y="887"/>
      <point x="214" y="767" type="curve"/>
      <point x="101" y="767" type="line"/>
      <point x="101" y="686" type="line"/>
      <point x="233" y="686" type="line"/>
      <point x="247" y="632"/>
      <point x="259" y="574"/>
      <point x="259" y="503" type="curve" smooth="yes"/>
      <point x="259" y="328"/>
      <point x="228" y="175"/>
      <point x="112" y="130" type="curve"/>
      <point x="112" y="0" type="line"/>
    </contour>
  </outline>
</glyph>
<glyph name="currency" format="2">
  <advance width="1221"/>
  <unicode hex="00A4"/>
  <anchor x="610" y="170" name="bottom"/>
  <anchor x="610" y="706" name="center"/>
  <anchor x="780" y="182" name="ogonek"/>
  <anchor x="610" y="1240" name="top"/>
  <anchor x="1041" y="1240" name="topright"/>
  <outline>
    <contour>
      <point x="369" y="193" type="line"/>
      <point x="424" y="168"/>
      <point x="501" y="157"/>
      <point x="610" y="157" type="curve" smooth="yes"/>
      <point x="714" y="157"/>
      <point x="792" y="169"/>
      <point x="847" y="195" type="curve"/>
      <point x="1042" y="52" type="line"/>
      <point x="1123" y="109" type="line"/>
      <point x="916" y="264" type="line"/>
      <point x="950" y="303"/>
      <point x="966" y="353"/>
      <point x="970" y="416" type="curve"/>
      <point x="983" y="589"/>
      <point x="984" y="826"/>
      <point x="970" y="995" type="curve"/>
      <point x="968" y="1059"/>
      <point x="948" y="1111"/>
      <point x="911" y="1148" type="curve"/>
      <point x="1126" y="1306" type="line"/>
      <point x="1046" y="1365" type="line"/>
      <point x="841" y="1215" type="line"/>
      <point x="786" y="1242"/>
      <point x="710" y="1254"/>
      <point x="610" y="1254" type="curve" smooth="yes"/>
      <point x="513" y="1254"/>
      <point x="441" y="1244"/>
      <point x="386" y="1221" type="curve"/>
      <point x="186" y="1367" type="line"/>
      <point x="108" y="1310" type="line"/>
      <point x="311" y="1159" type="line"/>
      <point x="270" y="1119"/>
      <point x="250" y="1065"/>
      <point x="247" y="995" type="curve"/>
      <point x="232" y="823"/>
      <point x="236" y="584"/>
      <point x="247" y="416" type="curve" smooth="yes"/>
      <point x="252" y="350"/>
      <point x="266" y="297"/>
      <point x="300" y="259" type="curve"/>
      <point x="95" y="109" type="line"/>
      <point x="176" y="52" type="line"/>
    </contour>
    <contour>
      <point x="610" y="274" type="curve" smooth="yes"/>
      <point x="452" y="274"/>
      <point x="392" y="303"/>
      <point x="385" y="382" type="curve" smooth="yes"/>
      <point x="370" y="614"/>
      <point x="370" y="796"/>
      <point x="385" y="1029" type="curve" smooth="yes"/>
      <point x="392" y="1107"/>
      <point x="448" y="1137"/>
      <point x="610" y="1137" type="curve" smooth="yes"/>
      <point x="768" y="1137"/>
      <point x="823" y="1107"/>
      <point x="829" y="1029" type="curve" smooth="yes"/>
      <point x="844" y="796"/>
      <point x="847" y="616"/>
      <point x="829" y="382" type="curve" smooth="yes"/>
      <point x="824" y="303"/>
      <point x="766" y="274"/>
    </contour>
  </outline>
</glyph>
<glyph name="yen" format="2">
  <advance width="799"/>
  <unicode hex="00A5"/>
  <anchor x="403" y="0" name="bottom"/>
  <anchor x="398" y="1428" name="top"/>
  <anchor x="37" y="1428" name="topleft"/>
  <outline>
    <contour>
      <point x="471" y="0" type="line"/>
      <point x="471" y="161" type="line"/>
      <point x="683" y="161" type="line"/>
      <point x="683" y="225" type="line"/>
      <point x="471" y="225" type="line"/>
      <point x="471" y="271" type="line"/>
      <point x="683" y="271" type="line"/>
      <point x="683" y="335" type="line"/>
      <point x="471" y="335" type="line"/>
      <point x="471" y="364" type="line"/>
      <point x="471" y="367" type="line"/>
      <point x="763" y="1428" type="line"/>
      <point x="618" y="1428" type="line"/>
      <point x="508" y="1037" type="line"/>
      <point x="424" y="626" type="line"/>
      <point x="379" y="626" type="line"/>
      <point x="294" y="1037" type="line"/>
      <point x="185" y="1428" type="line"/>
      <point x="37" y="1428" type="line"/>
      <point x="333" y="367" type="line"/>
      <point x="333" y="364" type="line"/>
      <point x="333" y="335" type="line"/>
      <point x="121" y="335" type="line"/>
      <point x="121" y="271" type="line"/>
      <point x="333" y="271" type="line"/>
      <point x="333" y="225" type="line"/>
      <point x="121" y="225" type="line"/>
      <point x="121" y="161" type="line"/>
      <point x="333" y="161" type="line"/>
      <point x="333" y="0" type="line"/>
    </contour>
  </outline>
</glyph>
<glyph name="brokenbar" format="2">
  <advance width="397"/>
  <unicode hex="00A6"/>
  <outline>
    <contour>
      <point x="128" y="907" type="line"/>
      <point x="268" y="907" type="line"/>
      <point x="268" y="1624" type="line"/>
      <point x="128" y="1624" type="line"/>
    </contour>
    <contour>
      <point x="128" y="-214" type="line"/>
      <point x="268" y="-214" type="line"/>
      <point x="268" y="479" type="line"/>
      <point x="128" y="479" type="line"/>
    </contour>
  </outline>
</glyph>
<glyph name="section" format="2">
  <advance width="854"/>
  <unicode hex="00A7"/>
  <outline>
    <contour>
      <point x="417" y="-370" type="curve" smooth="yes"/>
      <point x="661" y="-370"/>
      <point x="739" y="-312"/>
      <point x="753" y="-146" type="curve"/>
      <point x="760" y="-105"/>
      <point x="761" y="-46"/>
      <point x="760" y="-2" type="curve"/>
      <point x="758" y="92"/>
      <point x="723" y="159"/>
      <point x="613" y="187" type="curve"/>
      <point x="613" y="215" type="line"/>
      <point x="706" y="241"/>
      <point x="748" y="293"/>
      <point x="753" y="376" type="curve"/>
      <point x="763" y="471"/>
      <point x="769" y="542"/>
      <point x="755" y="654" type="curve"/>
      <point x="744" y="787"/>
      <point x="642" y="863"/>
      <point x="499" y="890" type="curve"/>
      <point x="375" y="911" type="line" name=".hr01"/>
      <point x="243" y="927"/>
      <point x="238" y="969"/>
      <point x="232" y="1048" type="curve" smooth="yes"/>
      <point x="228" y="1091"/>
      <point x="234" y="1173"/>
      <point x="238" y="1212" type="curve" smooth="yes"/>
      <point x="245" y="1291"/>
      <point x="284" y="1307"/>
      <point x="428" y="1307" type="curve" smooth="yes"/>
      <point x="568" y="1307"/>
      <point x="611" y="1291"/>
      <point x="617" y="1212" type="curve" smooth="yes"/>
      <point x="619" y="1173"/>
      <point x="619" y="1098"/>
      <point x="612" y="1035" type="curve"/>
      <point x="745" y="1035" type="line"/>
      <point x="750" y="1097"/>
      <point x="748" y="1152"/>
      <point x="746" y="1196" type="curve"/>
      <point x="744" y="1365"/>
      <point x="664" y="1433"/>
      <point x="428" y="1433" type="curve" smooth="yes"/>
      <point x="183" y="1433"/>
      <point x="114" y="1384"/>
      <point x="100" y="1212" type="curve"/>
      <point x="99" y="1170"/>
      <point x="92" y="1096"/>
      <point x="96" y="1048" type="curve" smooth="yes"/>
      <point x="108" y="937"/>
      <point x="134" y="896"/>
      <point x="237" y="869" type="curve"/>
      <point x="237" y="837" type="line"/>
      <point x="162" y="810"/>
      <point x="101" y="752"/>
      <point x="98" y="659" type="curve" smooth="yes"/>
      <point x="92" y="549"/>
      <point x="92" y="473"/>
      <point x="98" y="376" type="curve" smooth="yes"/>
      <point x="106" y="246"/>
      <point x="209" y="191"/>
      <point x="393" y="159" type="curve"/>
      <point x="481" y="138" type="line"/>
      <point x="604" y="125"/>
      <point x="618" y="81"/>
      <point x="624" y="2" type="curve"/>
      <point x="626" y="-41"/>
      <point x="624" y="-97"/>
      <point x="621" y="-146" type="curve" smooth="yes"/>
      <point x="618" y="-227"/>
      <point x="565" y="-253"/>
      <point x="417" y="-253" type="curve" smooth="yes"/>
      <point x="277" y="-253"/>
      <point x="234" y="-227"/>
      <point x="226" y="-146" type="curve"/>
      <point x="224" y="-103"/>
      <point x="224" y="-47"/>
      <point x="230" y="21" type="curve"/>
      <point x="101" y="21" type="line"/>
      <point x="97" y="-23"/>
      <point x="93" y="-100"/>
      <point x="97" y="-146" type="curve"/>
      <point x="104" y="-316"/>
      <point x="181" y="-370"/>
    </contour>
    <contour>
      <point x="436" y="272" type="curve" smooth="yes"/>
      <point x="287" y="272"/>
      <point x="240" y="321"/>
      <point x="233" y="380" type="curve"/>
      <point x="227" y="460"/>
      <point x="224" y="579"/>
      <point x="233" y="659" type="curve"/>
      <point x="234" y="717"/>
      <point x="289" y="765"/>
      <point x="436" y="765" type="curve" smooth="yes"/>
      <point x="585" y="765"/>
      <point x="620" y="717"/>
      <point x="625" y="659" type="curve"/>
      <point x="637" y="579"/>
      <point x="637" y="461"/>
      <point x="625" y="380" type="curve"/>
      <point x="620" y="322"/>
      <point x="581" y="272"/>
    </contour>
  </outline>
</glyph>
<glyph name="dieresis" format="2">
  <advance width="819"/>
  <unicode hex="00A8"/>
  <outline>
    <contour>
      <point x="704" y="1169" type="line"/>
      <point x="704" y="1284" type="line"/>
      <point x="508" y="1284" type="line"/>
      <point x="508" y="1169" type="line"/>
    </contour>
    <contour>
      <point x="316" y="1169" type="line"/>
      <point x="316" y="1284" type="line"/>
      <point x="126" y="1284" type="line"/>
      <point x="126" y="1169" type="line"/>
    </contour>
  </outline>
</glyph>
<glyph name="copyright" format="2">
  <advance width="1155"/>
  <unicode hex="00A9"/>
  <outline>
    <contour>
      <point x="579" y="-8" type="curve" smooth="yes"/>
      <point x="910" y="-8"/>
      <point x="1066" y="166"/>
      <point x="1066" y="536" type="curve" smooth="yes"/>
      <point x="1066" y="905"/>
      <point x="909" y="1080"/>
      <point x="579" y="1080" type="curve" smooth="yes"/>
      <point x="246" y="1080"/>
      <point x="90" y="905"/>
      <point x="90" y="536" type="curve" smooth="yes"/>
      <point x="90" y="166"/>
      <point x="246" y="-8"/>
    </contour>
    <contour>
      <point x="579" y="72" type="curve" smooth="yes"/>
      <point x="302" y="72"/>
      <point x="175" y="219"/>
      <point x="175" y="536" type="curve" smooth="yes"/>
      <point x="175" y="853"/>
      <point x="302" y="1000"/>
      <point x="579" y="1000" type="curve" smooth="yes"/>
      <point x="853" y="1000"/>
      <point x="981" y="852"/>
      <point x="981" y="536" type="curve" smooth="yes"/>
      <point x="981" y="219"/>
      <point x="854" y="72"/>
    </contour>
    <contour>
      <point x="583" y="168" type="curve" smooth="yes"/>
      <point x="717" y="168"/>
      <point x="769" y="220"/>
      <point x="775" y="346" type="curve"/>
      <point x="776" y="371"/>
      <point x="775" y="392"/>
      <point x="773" y="419" type="curve"/>
      <point x="682" y="419" type="line"/>
      <point x="683" y="379"/>
      <point x="683" y="361"/>
      <point x="682" y="337" type="curve"/>
      <point x="681" y="268"/>
      <point x="653" y="247"/>
      <point x="583" y="247" type="curve" smooth="yes"/>
      <point x="512" y="247"/>
      <point x="482" y="268"/>
      <point x="481" y="337" type="curve" smooth="yes"/>
      <point x="477" y="480"/>
      <point x="476" y="579"/>
      <point x="481" y="730" type="curve" smooth="yes"/>
      <point x="483" y="798"/>
      <point x="511" y="818"/>
      <point x="581" y="818" type="curve" smooth="yes"/>
      <point x="653" y="818"/>
      <point x="682" y="798"/>
      <point x="682" y="730" type="curve" smooth="yes"/>
      <point x="682" y="707"/>
      <point x="683" y="681"/>
      <point x="682" y="654" type="curve"/>
      <point x="773" y="654" type="line"/>
      <point x="775" y="677"/>
      <point x="776" y="696"/>
      <point x="775" y="721" type="curve"/>
      <point x="770" y="847"/>
      <point x="717" y="898"/>
      <point x="581" y="898" type="curve" smooth="yes"/>
      <point x="447" y="898"/>
      <point x="391" y="847"/>
      <point x="387" y="718" type="curve"/>
      <point x="384" y="614"/>
      <point x="382" y="441"/>
      <point x="387" y="346" type="curve" smooth="yes"/>
      <point x="393" y="219"/>
      <point x="447" y="168"/>
    </contour>
  </outline>
</glyph>
<glyph name="ordfeminine" format="2">
  <advance width="670"/>
  <unicode hex="00AA"/>
  <outline>
    <contour>
      <point x="288" y="611" type="curve" smooth="yes"/>
      <point x="375" y="611"/>
      <point x="420" y="638"/>
      <point x="450" y="687" type="curve"/>
      <point x="471" y="687" type="line"/>
      <point x="468" y="665"/>
      <point x="468" y="643"/>
      <point x="468" y="621" type="curve"/>
      <point x="577" y="621" type="line"/>
      <point x="577" y="735"/>
      <point x="580" y="1044"/>
      <point x="577" y="1132" type="curve" smooth="yes"/>
      <point x="574" y="1259"/>
      <point x="519" y="1310"/>
      <point x="348" y="1310" type="curve" smooth="yes"/>
      <point x="174" y="1310"/>
      <point x="115" y="1260"/>
      <point x="110" y="1149" type="curve"/>
      <point x="110" y="1135"/>
      <point x="110" y="1073"/>
      <point x="112" y="1057" type="curve"/>
      <point x="218" y="1057" type="line"/>
      <point x="215" y="1075"/>
      <point x="213" y="1144"/>
      <point x="215" y="1159" type="curve"/>
      <point x="223" y="1208"/>
      <point x="266" y="1222"/>
      <point x="343" y="1222" type="curve" smooth="yes"/>
      <point x="439" y="1222"/>
      <point x="464" y="1200"/>
      <point x="467" y="1158" type="curve" smooth="yes"/>
      <point x="469" y="1120"/>
      <point x="474" y="1078"/>
      <point x="474" y="1037" type="curve"/>
      <point x="405" y="1023"/>
      <point x="336" y="1009"/>
      <point x="285" y="992" type="curve"/>
      <point x="140" y="947"/>
      <point x="96" y="896"/>
      <point x="91" y="809" type="curve"/>
      <point x="92" y="789"/>
      <point x="92" y="774"/>
      <point x="95" y="755" type="curve"/>
      <point x="107" y="652"/>
      <point x="165" y="611"/>
    </contour>
    <contour>
      <point x="320" y="697" type="curve" smooth="yes"/>
      <point x="253" y="697"/>
      <point x="206" y="719"/>
      <point x="201" y="764" type="curve"/>
      <point x="198" y="775"/>
      <point x="198" y="802"/>
      <point x="198" y="809" type="curve"/>
      <point x="201" y="853"/>
      <point x="222" y="888"/>
      <point x="304" y="913" type="curve"/>
      <point x="373" y="933"/>
      <point x="424" y="944"/>
      <point x="474" y="953" type="curve"/>
      <point x="474" y="888"/>
      <point x="474" y="822"/>
      <point x="471" y="757" type="curve"/>
      <point x="444" y="717"/>
      <point x="389" y="697"/>
    </contour>
  </outline>
</glyph>
<glyph name="guillemetleft" format="2">
  <advance width="915"/>
  <unicode hex="00AB"/>
  <outline>
    <contour>
      <point x="463" y="906" type="line"/>
      <point x="18" y="632" type="line"/>
      <point x="18" y="481" type="line"/>
      <point x="463" y="755" type="line"/>
    </contour>
    <contour>
      <point x="463" y="358" type="line"/>
      <point x="18" y="632" type="line"/>
      <point x="18" y="481" type="line"/>
      <point x="463" y="208" type="line"/>
    </contour>
    <contour>
      <point x="810" y="906" type="line"/>
      <point x="366" y="632" type="line"/>
      <point x="366" y="481" type="line"/>
      <point x="810" y="755" type="line"/>
    </contour>
    <contour>
      <point x="810" y="358" type="line"/>
      <point x="366" y="632" type="line"/>
      <point x="366" y="481" type="line"/>
      <point x="810" y="208" type="line"/>
    </contour>
  </outline>
</glyph>
<glyph name="logicalnot" format="2">
  <advance width="942"/>
  <unicode hex="00AC"/>
  <outline>
    <contour>
      <point x="852" y="459" type="line"/>
      <point x="852" y="861" type="line"/>
      <point x="91" y="861" type="line"/>
      <point x="91" y="744" type="line"/>
      <point x="740" y="744" type="line"/>
      <point x="740" y="459" type="line"/>
    </contour>
  </outline>
</glyph>
<glyph name="softhyphen" format="2">
  <advance width="471"/>
  <unicode hex="00AD"/>
  <outline>
    <contour>
      <point x="418" y="606" type="line"/>
      <point x="418" y="741" type="line"/>
      <point x="53" y="741" type="line"/>
      <point x="53" y="606" type="line"/>
    </contour>
  </outline>
</glyph>
<glyph name="registered" format="2">
  <advance width="1155"/>
  <unicode hex="00AE"/>
  <outline>
    <contour>
      <point x="585" y="912" type="curve" smooth="yes"/>
      <point x="919" y="912"/>
      <point x="1063" y="1017"/>
      <point x="1063" y="1228" type="curve" smooth="yes"/>
      <point x="1063" y="1443"/>
      <point x="919" y="1546"/>
      <point x="585" y="1546" type="curve" smooth="yes"/>
      <point x="239" y="1546"/>
      <point x="93" y="1443"/>
      <point x="93" y="1228" type="curve" smooth="yes"/>
      <point x="93" y="1017"/>
      <point x="239" y="912"/>
    </contour>
    <contour>
      <point x="585" y="963" type="curve" smooth="yes"/>
      <point x="279" y="963"/>
      <point x="157" y="1044"/>
      <point x="157" y="1228" type="curve" smooth="yes"/>
      <point x="157" y="1417"/>
      <point x="276" y="1496"/>
      <point x="585" y="1496" type="curve" smooth="yes"/>
      <point x="882" y="1496"/>
      <point x="1002" y="1415"/>
      <point x="1002" y="1228" type="curve" smooth="yes"/>
      <point x="1002" y="1044"/>
      <point x="882" y="963"/>
    </contour>
    <contour>
      <point x="517" y="1050" type="line"/>
      <point x="517" y="1204" type="line"/>
      <point x="587" y="1204" type="line" smooth="yes"/>
      <point x="632" y="1204"/>
      <point x="660" y="1192"/>
      <point x="665" y="1167" type="curve"/>
      <point x="668" y="1135"/>
      <point x="667" y="1092"/>
      <point x="664" y="1050" type="curve"/>
      <point x="738" y="1050" type="line"/>
      <point x="741" y="1097"/>
      <point x="742" y="1128"/>
      <point x="736" y="1160" type="curve"/>
      <point x="731" y="1196"/>
      <point x="712" y="1213"/>
      <point x="662" y="1221" type="curve"/>
      <point x="662" y="1231" type="line"/>
      <point x="709" y="1239"/>
      <point x="733" y="1258"/>
      <point x="738" y="1293" type="curve"/>
      <point x="742" y="1312"/>
      <point x="742" y="1325"/>
      <point x="738" y="1346" type="curve"/>
      <point x="731" y="1406"/>
      <point x="681" y="1428"/>
      <point x="587" y="1428" type="curve" smooth="yes"/>
      <point x="445" y="1428" type="line"/>
      <point x="445" y="1050" type="line"/>
    </contour>
    <contour>
      <point x="517" y="1377" type="line"/>
      <point x="587" y="1377" type="line" smooth="yes"/>
      <point x="631" y="1377"/>
      <point x="658" y="1369"/>
      <point x="662" y="1350" type="curve"/>
      <point x="664" y="1325"/>
      <point x="664" y="1306"/>
      <point x="662" y="1287" type="curve"/>
      <point x="658" y="1263"/>
      <point x="631" y="1254"/>
      <point x="584" y="1254" type="curve" smooth="yes"/>
      <point x="517" y="1254" type="line"/>
    </contour>
  </outline>
</glyph>
<glyph name="macron" format="2">
  <advance width="819"/>
  <unicode hex="00AF"/>
  <outline>
    <contour>
      <point x="126" y="1137" type="line"/>
      <point x="703" y="1137" type="line"/>
      <point x="703" y="1216" type="line"/>
      <point x="126" y="1216" type="line"/>
    </contour>
  </outline>
</glyph>
<glyph name="degree" format="2">
  <advance width="668"/>
  <unicode hex="00B0"/>
  <outline>
    <contour>
      <point x="336" y="1055" type="curve" smooth="yes"/>
      <point x="466" y="1055"/>
      <point x="577" y="1144"/>
      <point x="577" y="1249" type="curve" smooth="yes"/>
      <point x="577" y="1357"/>
      <point x="466" y="1446"/>
      <point x="336" y="1446" type="curve" smooth="yes"/>
      <point x="202" y="1446"/>
      <point x="90" y="1357"/>
      <point x="90" y="1249" type="curve" smooth="yes"/>
      <point x="90" y="1144"/>
      <point x="202" y="1055"/>
    </contour>
    <contour>
      <point x="336" y="1125" type="curve" smooth="yes"/>
      <point x="240" y="1125"/>
      <point x="164" y="1182"/>
      <point x="164" y="1249" type="curve" smooth="yes"/>
      <point x="164" y="1319"/>
      <point x="240" y="1376"/>
      <point x="336" y="1376" type="curve" smooth="yes"/>
      <point x="427" y="1376"/>
      <point x="507" y="1319"/>
      <point x="507" y="1249" type="curve" smooth="yes"/>
      <point x="507" y="1182"/>
      <point x="427" y="1125"/>
    </contour>
  </outline>
</glyph>
<glyph name="plusminus" format="2">
  <advance width="838"/>
  <unicode hex="00B1"/>
  <outline>
    <contour>
      <point x="475" y="493" type="line"/>
      <point x="475" y="622" type="line"/>
      <point x="749" y="622" type="line"/>
      <point x="749" y="739" type="line"/>
      <point x="475" y="739" type="line"/>
      <point x="475" y="896" type="line"/>
      <point x="365" y="896" type="line"/>
      <point x="365" y="739" type="line"/>
      <point x="90" y="739" type="line"/>
      <point x="90" y="622" type="line"/>
      <point x="365" y="622" type="line"/>
      <point x="365" y="493" type="line"/>
    </contour>
    <contour>
      <point x="749" y="311" type="line"/>
      <point x="749" y="409" type="line"/>
      <point x="90" y="409" type="line"/>
      <point x="90" y="311" type="line"/>
    </contour>
  </outline>
</glyph>
<glyph name="twosuperior" format="2">
  <advance width="634"/>
  <unicode hex="00B2"/>
  <outline>
    <contour>
      <point x="581" y="785" type="line"/>
      <point x="581" y="883" type="line"/>
      <point x="180" y="883" type="line"/>
      <point x="180" y="927" type="line" smooth="yes"/>
      <point x="180" y="967"/>
      <point x="217" y="1001"/>
      <point x="302" y="1017" type="curve"/>
      <point x="389" y="1048" type="line"/>
      <point x="508" y="1086"/>
      <point x="574" y="1128"/>
      <point x="581" y="1211" type="curve"/>
      <point x="585" y="1243"/>
      <point x="581" y="1265"/>
      <point x="574" y="1288" type="curve"/>
      <point x="570" y="1385"/>
      <point x="496" y="1436"/>
      <point x="319" y="1436" type="curve" smooth="yes"/>
      <point x="158" y="1436"/>
      <point x="65" y="1388"/>
      <point x="58" y="1288" type="curve"/>
      <point x="55" y="1256"/>
      <point x="58" y="1221"/>
      <point x="64" y="1188" type="curve"/>
      <point x="176" y="1188" type="line"/>
      <point x="170" y="1219"/>
      <point x="171" y="1262"/>
      <point x="169" y="1302" type="curve"/>
      <point x="172" y="1331"/>
      <point x="220" y="1345"/>
      <point x="314" y="1345" type="curve" smooth="yes"/>
      <point x="431" y="1345"/>
      <point x="462" y="1326"/>
      <point x="464" y="1301" type="curve"/>
      <point x="471" y="1271"/>
      <point x="471" y="1242"/>
      <point x="464" y="1211" type="curve"/>
      <point x="460" y="1176"/>
      <point x="440" y="1155"/>
      <point x="355" y="1133" type="curve"/>
      <point x="272" y="1104" type="line" smooth="yes"/>
      <point x="168" y="1066"/>
      <point x="64" y="1014"/>
      <point x="62" y="915" type="curve"/>
      <point x="63" y="867"/>
      <point x="64" y="835"/>
      <point x="62" y="785" type="curve"/>
    </contour>
  </outline>
</glyph>
<glyph name="threesuperior" format="2">
  <advance width="632"/>
  <unicode hex="00B3"/>
  <outline>
    <contour>
      <point x="314" y="778" type="curve" smooth="yes"/>
      <point x="496" y="778"/>
      <point x="556" y="829"/>
      <point x="564" y="919" type="curve"/>
      <point x="567" y="945"/>
      <point x="567" y="992"/>
      <point x="564" y="1027" type="curve"/>
      <point x="560" y="1116"/>
      <point x="453" y="1156"/>
      <point x="307" y="1165" type="curve"/>
      <point x="575" y="1335" type="line"/>
      <point x="577" y="1428" type="line"/>
      <point x="55" y="1428" type="line"/>
      <point x="55" y="1330" type="line"/>
      <point x="444" y="1330" type="line"/>
      <point x="181" y="1160" type="line"/>
      <point x="188" y="1078" type="line"/>
      <point x="289" y="1078" type="line" smooth="yes"/>
      <point x="402" y="1078"/>
      <point x="443" y="1061"/>
      <point x="450" y="1025" type="curve" smooth="yes"/>
      <point x="457" y="987"/>
      <point x="450" y="951"/>
      <point x="450" y="916" type="curve"/>
      <point x="443" y="885"/>
      <point x="405" y="869"/>
      <point x="310" y="869" type="curve" smooth="yes"/>
      <point x="205" y="869"/>
      <point x="174" y="888"/>
      <point x="170" y="919" type="curve" smooth="yes"/>
      <point x="167" y="941"/>
      <point x="167" y="969"/>
      <point x="170" y="1000" type="curve"/>
      <point x="58" y="1000" type="line"/>
      <point x="56" y="962"/>
      <point x="56" y="944"/>
      <point x="56" y="919" type="curve"/>
      <point x="63" y="823"/>
      <point x="154" y="778"/>
    </contour>
  </outline>
</glyph>
<glyph name="acute" format="2">
  <advance width="819"/>
  <unicode hex="00B4"/>
  <outline>
    <contour>
      <point x="314" y="1142" type="line"/>
      <point x="672" y="1355" type="line"/>
      <point x="506" y="1355" type="line"/>
      <point x="147" y="1142" type="line"/>
    </contour>
  </outline>
</glyph>
<glyph name="micro" format="2">
  <advance width="587"/>
  <unicode hex="00B5"/>
  <outline>
    <contour>
      <point x="228" y="-324" type="line"/>
      <point x="228" y="3" type="line"/>
      <point x="243" y="-6"/>
      <point x="257" y="-8"/>
      <point x="271" y="-2" type="curve"/>
      <point x="294" y="9"/>
      <point x="312" y="41"/>
      <point x="329" y="92" type="curve"/>
      <point x="349" y="92" type="line"/>
      <point x="352" y="53"/>
      <point x="355" y="22"/>
      <point x="361" y="0" type="curve" name=".hr01"/>
      <point x="490" y="0" type="line"/>
      <point x="481" y="34"/>
      <point x="476" y="94"/>
      <point x="476" y="169" type="curve" smooth="yes"/>
      <point x="476" y="973" type="line"/>
      <point x="347" y="973" type="line"/>
      <point x="347" y="188" type="line"/>
      <point x="335" y="131"/>
      <point x="302" y="97"/>
      <point x="274" y="97" type="curve" smooth="yes"/>
      <point x="243" y="97"/>
      <point x="227" y="126"/>
      <point x="227" y="192" type="curve" smooth="yes"/>
      <point x="226" y="973" type="line"/>
      <point x="97" y="973" type="line"/>
      <point x="99" y="-324" type="line"/>
    </contour>
  </outline>
</glyph>
<glyph name="paragraph" format="2">
  <advance width="948"/>
  <unicode hex="00B6"/>
  <outline>
    <contour>
      <point x="577" y="-178" type="line"/>
      <point x="577" y="1339" type="line"/>
      <point x="659" y="1339" type="line"/>
      <point x="659" y="-178" type="line"/>
      <point x="756" y="-178" type="line"/>
      <point x="756" y="1339" type="line"/>
      <point x="857" y="1339" type="line"/>
      <point x="857" y="1428" type="line"/>
      <point x="391" y="1428" type="line" smooth="yes"/>
      <point x="178" y="1428"/>
      <point x="106" y="1355"/>
      <point x="93" y="1170" type="curve" smooth="yes"/>
      <point x="90" y="1118"/>
      <point x="90" y="1039"/>
      <point x="93" y="977" type="curve" smooth="yes"/>
      <point x="103" y="791"/>
      <point x="178" y="718"/>
      <point x="391" y="718" type="curve" smooth="yes"/>
      <point x="481" y="718" type="line"/>
      <point x="481" y="-178" type="line"/>
    </contour>
  </outline>
</glyph>
<glyph name="periodcentered" format="2">
  <advance width="340"/>
  <unicode hex="00B7"/>
  <anchor x="173" y="744" name="_center"/>
  <outline>
    <contour>
      <point x="256" y="682" type="line"/>
      <point x="256" y="806" type="line"/>
      <point x="84" y="806" type="line"/>
      <point x="84" y="682" type="line"/>
    </contour>
  </outline>
</glyph>
<glyph name="cedilla" format="2">
  <advance width="819"/>
  <unicode hex="00B8"/>
  <outline>
    <contour>
      <point x="307" y="-248" type="line" smooth="yes"/>
      <point x="562" y="-248"/>
      <point x="667" y="-198"/>
      <point x="623" y="-89" type="curve"/>
      <point x="547" y="0" type="line"/>
      <point x="413" y="0" type="line"/>
      <point x="490" y="-89" type="line"/>
      <point x="526" y="-146"/>
      <point x="468" y="-170"/>
      <point x="307" y="-170" type="curve" smooth="yes"/>
      <point x="136" y="-170" type="line"/>
      <point x="136" y="-248" type="line"/>
    </contour>
  </outline>
</glyph>
<glyph name="onesuperior" format="2">
  <advance width="397"/>
  <unicode hex="00B9"/>
  <outline>
    <contour>
      <point x="318" y="787" type="line"/>
      <point x="318" y="1429" type="line"/>
      <point x="223" y="1429" type="line"/>
      <point x="39" y="1370" type="line"/>
      <point x="47" y="1331" type="line"/>
      <point x="198" y="1331" type="line"/>
      <point x="198" y="787" type="line"/>
    </contour>
  </outline>
</glyph>
<glyph name="ordmasculine" format="2">
  <advance width="674"/>
  <unicode hex="00BA"/>
  <outline>
    <contour>
      <point x="336" y="611" type="curve" smooth="yes"/>
      <point x="520" y="611"/>
      <point x="570" y="668"/>
      <point x="580" y="793" type="curve"/>
      <point x="587" y="851"/>
      <point x="584" y="1064"/>
      <point x="580" y="1130" type="curve" smooth="yes"/>
      <point x="572" y="1255"/>
      <point x="516" y="1311"/>
      <point x="335" y="1311" type="curve" smooth="yes"/>
      <point x="159" y="1311"/>
      <point x="111" y="1261"/>
      <point x="99" y="1130" type="curve"/>
      <point x="90" y="1064"/>
      <point x="93" y="851"/>
      <point x="99" y="793" type="curve"/>
      <point x="109" y="660"/>
      <point x="166" y="611"/>
    </contour>
    <contour>
      <point x="338" y="699" type="curve" smooth="yes"/>
      <point x="252" y="699"/>
      <point x="209" y="717"/>
      <point x="206" y="765" type="curve" smooth="yes"/>
      <point x="199" y="923"/>
      <point x="200" y="1013"/>
      <point x="206" y="1157" type="curve" smooth="yes"/>
      <point x="208" y="1204"/>
      <point x="250" y="1222"/>
      <point x="338" y="1222" type="curve" smooth="yes"/>
      <point x="434" y="1222"/>
      <point x="467" y="1204"/>
      <point x="471" y="1158" type="curve" smooth="yes"/>
      <point x="480" y="1013"/>
      <point x="480" y="923"/>
      <point x="471" y="765" type="curve"/>
      <point x="467" y="718"/>
      <point x="434" y="699"/>
    </contour>
  </outline>
</glyph>
<glyph name="guillemetright" format="2">
  <advance width="915"/>
  <unicode hex="00BB"/>
  <outline>
    <contour>
      <point x="453" y="755" type="line"/>
      <point x="898" y="481" type="line"/>
      <point x="898" y="632" type="line"/>
      <point x="453" y="906" type="line"/>
    </contour>
    <contour>
      <point x="453" y="208" type="line"/>
      <point x="898" y="481" type="line"/>
      <point x="898" y="632" type="line"/>
      <point x="453" y="358" type="line"/>
    </contour>
    <contour>
      <point x="106" y="755" type="line"/>
      <point x="551" y="481" type="line"/>
      <point x="551" y="632" type="line"/>
      <point x="106" y="906" type="line"/>
    </contour>
    <contour>
      <point x="106" y="208" type="line"/>
      <point x="551" y="481" type="line"/>
      <point x="551" y="632" type="line"/>
      <point x="106" y="358" type="line"/>
    </contour>
  </outline>
</glyph>
<glyph name="onequarter" format="2">
  <advance width="1100"/>
  <unicode hex="00BC"/>
  <outline>
    <contour>
      <point x="313" y="786" type="line"/>
      <point x="313" y="1429" type="line"/>
      <point x="228" y="1429" type="line"/>
      <point x="110" y="1369" type="line"/>
      <point x="114" y="1330" type="line"/>
      <point x="205" y="1330" type="line"/>
      <point x="205" y="786" type="line"/>
    </contour>
    <contour>
      <point x="52" y="0" type="line"/>
      <point x="1043" y="1428" type="line"/>
      <point x="930" y="1428" type="line"/>
      <point x="-60" y="0" type="line"/>
    </contour>
    <contour>
      <point x="795" y="643" type="line"/>
      <point x="584" y="261" type="line"/>
      <point x="584" y="168" type="line"/>
      <point x="850" y="168" type="line"/>
      <point x="850" y="0" type="line"/>
      <point x="949" y="0" type="line"/>
      <point x="949" y="168" type="line"/>
      <point x="1056" y="168" type="line"/>
      <point x="1056" y="264" type="line"/>
      <point x="949" y="264" type="line"/>
      <point x="949" y="643" type="line"/>
    </contour>
    <contour>
      <point x="693" y="264" type="line"/>
      <point x="769" y="416" type="line"/>
      <point x="845" y="545" type="line"/>
      <point x="872" y="545" type="line"/>
      <point x="861" y="416" type="line"/>
      <point x="850" y="264" type="line"/>
    </contour>
  </outline>
</glyph>
<glyph name="onehalf" format="2">
  <advance width="1088"/>
  <unicode hex="00BD"/>
  <outline>
    <contour>
      <point x="309" y="786" type="line"/>
      <point x="309" y="1429" type="line"/>
      <point x="225" y="1429" type="line"/>
      <point x="108" y="1369" type="line"/>
      <point x="112" y="1330" type="line"/>
      <point x="202" y="1330" type="line"/>
      <point x="202" y="786" type="line"/>
    </contour>
    <contour>
      <point x="51" y="0" type="line"/>
      <point x="1026" y="1428" type="line"/>
      <point x="913" y="1428" type="line"/>
      <point x="-59" y="0" type="line"/>
    </contour>
    <contour>
      <point x="1029" y="0" type="line"/>
      <point x="1029" y="98" type="line"/>
      <point x="740" y="98" type="line"/>
      <point x="740" y="143" type="line" smooth="yes"/>
      <point x="740" y="182"/>
      <point x="765" y="216"/>
      <point x="817" y="233" type="curve"/>
      <point x="888" y="263" type="line"/>
      <point x="978" y="302"/>
      <point x="1030" y="343"/>
      <point x="1034" y="426" type="curve" smooth="yes"/>
      <point x="1036" y="459"/>
      <point x="1034" y="480"/>
      <point x="1030" y="503" type="curve"/>
      <point x="1027" y="601"/>
      <point x="966" y="651"/>
      <point x="828" y="651" type="curve" smooth="yes"/>
      <point x="704" y="651"/>
      <point x="632" y="603"/>
      <point x="626" y="503" type="curve"/>
      <point x="624" y="472"/>
      <point x="626" y="436"/>
      <point x="630" y="404" type="curve"/>
      <point x="736" y="404" type="line"/>
      <point x="732" y="434"/>
      <point x="733" y="477"/>
      <point x="732" y="517" type="curve"/>
      <point x="735" y="546"/>
      <point x="766" y="560"/>
      <point x="826" y="560" type="curve" smooth="yes"/>
      <point x="901" y="560"/>
      <point x="922" y="542"/>
      <point x="924" y="517" type="curve"/>
      <point x="928" y="486"/>
      <point x="928" y="457"/>
      <point x="924" y="426" type="curve"/>
      <point x="920" y="391"/>
      <point x="908" y="371"/>
      <point x="851" y="348" type="curve"/>
      <point x="786" y="319" type="line" smooth="yes"/>
      <point x="704" y="282"/>
      <point x="630" y="229"/>
      <point x="629" y="131" type="curve" smooth="yes"/>
      <point x="629" y="82"/>
      <point x="629" y="51"/>
      <point x="629" y="0" type="curve"/>
    </contour>
  </outline>
</glyph>
<glyph name="threequarters" format="2">
  <advance width="1300"/>
  <unicode hex="00BE"/>
  <outline>
    <contour>
      <point x="275" y="778" type="curve" smooth="yes"/>
      <point x="427" y="778"/>
      <point x="483" y="829"/>
      <point x="489" y="919" type="curve" smooth="yes"/>
      <point x="491" y="945"/>
      <point x="491" y="992"/>
      <point x="489" y="1027" type="curve" smooth="yes"/>
      <point x="486" y="1116"/>
      <point x="401" y="1156"/>
      <point x="283" y="1165" type="curve"/>
      <point x="494" y="1335" type="line"/>
      <point x="496" y="1428" type="line"/>
      <point x="56" y="1428" type="line"/>
      <point x="56" y="1330" type="line"/>
      <point x="365" y="1330" type="line"/>
      <point x="162" y="1160" type="line"/>
      <point x="167" y="1078" type="line"/>
      <point x="256" y="1078" type="line" smooth="yes"/>
      <point x="342" y="1078"/>
      <point x="374" y="1061"/>
      <point x="379" y="1025" type="curve" smooth="yes"/>
      <point x="384" y="987"/>
      <point x="379" y="951"/>
      <point x="379" y="916" type="curve"/>
      <point x="374" y="885"/>
      <point x="344" y="869"/>
      <point x="271" y="869" type="curve" smooth="yes"/>
      <point x="191" y="869"/>
      <point x="166" y="888"/>
      <point x="164" y="919" type="curve"/>
      <point x="161" y="941"/>
      <point x="161" y="969"/>
      <point x="164" y="1000" type="curve"/>
      <point x="56" y="1000" type="line"/>
      <point x="54" y="962"/>
      <point x="54" y="944"/>
      <point x="54" y="919" type="curve"/>
      <point x="59" y="823"/>
      <point x="137" y="778"/>
    </contour>
    <contour>
      <point x="187" y="0" type="line"/>
      <point x="1241" y="1428" type="line"/>
      <point x="1127" y="1428" type="line"/>
      <point x="75" y="0" type="line"/>
    </contour>
    <contour>
      <point x="982" y="643" type="line"/>
      <point x="757" y="261" type="line"/>
      <point x="757" y="168" type="line"/>
      <point x="1040" y="168" type="line"/>
      <point x="1040" y="0" type="line"/>
      <point x="1141" y="0" type="line"/>
      <point x="1141" y="168" type="line"/>
      <point x="1255" y="168" type="line"/>
      <point x="1255" y="264" type="line"/>
      <point x="1141" y="264" type="line"/>
      <point x="1141" y="643" type="line"/>
    </contour>
    <contour>
      <point x="868" y="264" type="line"/>
      <point x="951" y="416" type="line"/>
      <point x="1033" y="545" type="line"/>
      <point x="1062" y="545" type="line"/>
      <point x="1050" y="416" type="line"/>
      <point x="1040" y="264" type="line"/>
    </contour>
  </outline>
</glyph>
<glyph name="questiondown" format="2">
  <advance width="782"/>
  <unicode hex="00BF"/>
  <outline>
    <contour>
      <point x="400" y="-371" type="curve" smooth="yes"/>
      <point x="621" y="-371"/>
      <point x="718" y="-296"/>
      <point x="723" y="-110" type="curve" smooth="yes"/>
      <point x="727" y="-26"/>
      <point x="725" y="63"/>
      <point x="721" y="147" type="curve"/>
      <point x="585" y="147" type="line"/>
      <point x="591" y="50"/>
      <point x="591" y="-45"/>
      <point x="583" y="-135" type="curve" smooth="yes"/>
      <point x="577" y="-210"/>
      <point x="527" y="-244"/>
      <point x="396" y="-244" type="curve" smooth="yes"/>
      <point x="260" y="-244"/>
      <point x="203" y="-210"/>
      <point x="203" y="-135" type="curve" smooth="yes"/>
      <point x="203" y="141" type="line" smooth="yes"/>
      <point x="203" y="244"/>
      <point x="210" y="296"/>
      <point x="312" y="320" type="curve"/>
      <point x="377" y="337" type="line"/>
      <point x="488" y="384"/>
      <point x="523" y="438"/>
      <point x="522" y="548" type="curve"/>
      <point x="515" y="763" type="line"/>
      <point x="412" y="763" type="line"/>
      <point x="403" y="550" type="line"/>
      <point x="402" y="512"/>
      <point x="400" y="471"/>
      <point x="319" y="448" type="curve"/>
      <point x="265" y="431" type="line"/>
      <point x="97" y="392"/>
      <point x="70" y="352"/>
      <point x="61" y="141" type="curve"/>
      <point x="57" y="96"/>
      <point x="61" y="52"/>
      <point x="61" y="-111" type="curve" smooth="yes"/>
      <point x="61" y="-297"/>
      <point x="163" y="-371"/>
    </contour>
    <contour>
      <point x="621" y="892" type="line"/>
      <point x="621" y="1071" type="line"/>
      <point x="315" y="1071" type="line"/>
      <point x="315" y="892" type="line"/>
    </contour>
  </outline>
</glyph>
<glyph name="AE" format="2">
  <advance width="1137"/>
  <unicode hex="00C6"/>
  <anchor x="552" y="0" name="bottom"/>
  <anchor x="921" y="0" name="ogonek"/>
  <anchor x="656" y="1428" name="top"/>
  <anchor x="491" y="1428" name="topleft"/>
  <outline>
    <contour>
      <point x="188" y="0" type="line"/>
      <point x="289" y="396" type="line"/>
      <point x="545" y="396" type="line"/>
      <point x="545" y="0" type="line"/>
      <point x="1100" y="0" type="line"/>
      <point x="1100" y="128" type="line"/>
      <point x="684" y="128" type="line"/>
      <point x="684" y="656" type="line"/>
      <point x="1073" y="656" type="line"/>
      <point x="1073" y="784" type="line"/>
      <point x="684" y="784" type="line"/>
      <point x="684" y="1300" type="line"/>
      <point x="1100" y="1300" type="line"/>
      <point x="1100" y="1428" type="line"/>
      <point x="379" y="1428" type="line"/>
      <point x="40" y="0" type="line"/>
    </contour>
    <contour>
      <point x="380" y="803" type="line"/>
      <point x="487" y="1300" type="line"/>
      <point x="545" y="1300" type="line"/>
      <point x="545" y="524" type="line"/>
      <point x="312" y="524" type="line"/>
    </contour>
  </outline>
</glyph>
<glyph name="Eth" format="2">
  <advance width="889"/>
  <unicode hex="00D0"/>
  <outline>
    <contour>
      <point x="58" y="766" type="line"/>
      <point x="500" y="766" type="line"/>
      <point x="500" y="844" type="line"/>
      <point x="58" y="844" type="line"/>
    </contour>
    <contour>
      <point x="495" y="0" type="line" smooth="yes"/>
      <point x="712" y="0"/>
      <point x="803" y="75"/>
      <point x="806" y="260" type="curve" smooth="yes"/>
      <point x="814" y="585"/>
      <point x="814" y="845"/>
      <point x="806" y="1169" type="curve" smooth="yes"/>
      <point x="803" y="1354"/>
      <point x="712" y="1428"/>
      <point x="499" y="1428" type="curve" smooth="yes"/>
      <point x="196" y="1428" type="line"/>
      <point x="196" y="0" type="line"/>
    </contour>
    <contour>
      <point x="335" y="1300" type="line"/>
      <point x="499" y="1300" type="line" smooth="yes"/>
      <point x="614" y="1300"/>
      <point x="665" y="1263"/>
      <point x="667" y="1185" type="curve" smooth="yes"/>
      <point x="675" y="871"/>
      <point x="675" y="558"/>
      <point x="667" y="245" type="curve" smooth="yes"/>
      <point x="665" y="166"/>
      <point x="614" y="128"/>
      <point x="495" y="128" type="curve" smooth="yes"/>
      <point x="335" y="128" type="line"/>
    </contour>
  </outline>
</glyph>
<glyph name="multiply" format="2">
  <advance width="942"/>
  <unicode hex="00D7"/>
  <outline>
    <contour>
      <point x="473" y="599" type="line"/>
      <point x="769" y="412" type="line"/>
      <point x="851" y="495" type="line"/>
      <point x="555" y="680" type="line"/>
      <point x="851" y="867" type="line"/>
      <point x="769" y="949" type="line"/>
      <point x="473" y="763" type="line"/>
      <point x="177" y="949" type="line"/>
      <point x="92" y="867" type="line"/>
      <point x="391" y="680" type="line"/>
      <point x="92" y="495" type="line"/>
      <point x="177" y="412" type="line"/>
    </contour>
  </outline>
</glyph>
<glyph name="Oslash" format="2">
  <advance width="911"/>
  <unicode hex="00D8"/>
  <anchor x="460" y="0" name="bottom"/>
  <anchor x="460" y="714" name="center"/>
  <anchor x="632" y="13" name="ogonek"/>
  <anchor x="460" y="1428" name="top"/>
  <anchor x="18" y="1428" name="topleft"/>
  <anchor x="900" y="1428" name="topright"/>
  <outline>
    <contour>
      <point x="458" y="-13" type="curve" smooth="yes"/>
      <point x="718" y="-13"/>
      <point x="822" y="60"/>
      <point x="824" y="240" type="curve" smooth="yes"/>
      <point x="832" y="564"/>
      <point x="832" y="863"/>
      <point x="824" y="1189" type="curve" smooth="yes"/>
      <point x="822" y="1369"/>
      <point x="718" y="1441"/>
      <point x="458" y="1441" type="curve" smooth="yes"/>
      <point x="196" y="1441"/>
      <point x="97" y="1369"/>
      <point x="91" y="1189" type="curve" smooth="yes"/>
      <point x="78" y="865"/>
      <point x="78" y="564"/>
      <point x="91" y="240" type="curve" smooth="yes"/>
      <point x="97" y="60"/>
      <point x="196" y="-13"/>
    </contour>
    <contour>
      <point x="458" y="107" type="curve" smooth="yes"/>
      <point x="293" y="107"/>
      <point x="234" y="139"/>
      <point x="230" y="216" type="curve" smooth="yes"/>
      <point x="225" y="286"/>
      <point x="223" y="354"/>
      <point x="223" y="421" type="curve"/>
      <point x="694" y="822" type="line"/>
      <point x="701" y="618"/>
      <point x="699" y="423"/>
      <point x="685" y="216" type="curve" smooth="yes"/>
      <point x="681" y="139"/>
      <point x="623" y="107"/>
    </contour>
    <contour>
      <point x="217" y="592" type="line"/>
      <point x="216" y="803"/>
      <point x="219" y="1006"/>
      <point x="230" y="1212" type="curve" smooth="yes"/>
      <point x="234" y="1290"/>
      <point x="293" y="1321"/>
      <point x="458" y="1321" type="curve" smooth="yes"/>
      <point x="621" y="1321"/>
      <point x="681" y="1290"/>
      <point x="685" y="1212" type="curve" smooth="yes"/>
      <point x="688" y="1135"/>
      <point x="692" y="1060"/>
      <point x="694" y="986" type="curve"/>
    </contour>
  </outline>
</glyph>
<glyph name="Thorn" format="2">
  <advance width="840"/>
  <unicode hex="00DE"/>
  <outline>
    <contour>
      <point x="231" y="0" type="line"/>
      <point x="231" y="289" type="line"/>
      <point x="425" y="289" type="line" smooth="yes"/>
      <point x="670" y="289"/>
      <point x="773" y="361"/>
      <point x="786" y="539" type="curve" smooth="yes"/>
      <point x="798" y="666"/>
      <point x="796" y="776"/>
      <point x="786" y="925" type="curve" smooth="yes"/>
      <point x="778" y="1103"/>
      <point x="670" y="1175"/>
      <point x="429" y="1175" type="curve" smooth="yes"/>
      <point x="231" y="1175" type="line"/>
      <point x="231" y="1428" type="line"/>
      <point x="92" y="1428" type="line"/>
      <point x="92" y="0" type="line"/>
    </contour>
    <contour>
      <point x="231" y="1047" type="line"/>
      <point x="429" y="1047" type="line" smooth="yes"/>
      <point x="580" y="1047"/>
      <point x="641" y="1011"/>
      <point x="647" y="932" type="curve" smooth="yes"/>
      <point x="659" y="800"/>
      <point x="659" y="664"/>
      <point x="647" y="533" type="curve" smooth="yes"/>
      <point x="641" y="453"/>
      <point x="580" y="417"/>
      <point x="425" y="417" type="curve" smooth="yes"/>
      <point x="231" y="417" type="line"/>
    </contour>
  </outline>
</glyph>
<glyph name="germandbls" format="2">
  <advance width="788"/>
  <unicode hex="00DF"/>
  <outline>
    <contour>
      <point x="219" y="0" type="line"/>
      <point x="221" y="1076" type="line" smooth="yes"/>
      <point x="221" y="1145"/>
      <point x="267" y="1178"/>
      <point x="408" y="1178" type="curve" smooth="yes"/>
      <point x="539" y="1178"/>
      <point x="587" y="1145"/>
      <point x="593" y="1075" type="curve" smooth="yes"/>
      <point x="600" y="988"/>
      <point x="601" y="938"/>
      <point x="593" y="851" type="curve" smooth="yes"/>
      <point x="587" y="763"/>
      <point x="530" y="720"/>
      <point x="397" y="720" type="curve" smooth="yes"/>
      <point x="351" y="720" type="line"/>
      <point x="351" y="591" type="line"/>
      <point x="400" y="591" type="line" smooth="yes"/>
      <point x="541" y="591"/>
      <point x="602" y="553"/>
      <point x="608" y="453" type="curve"/>
      <point x="615" y="378"/>
      <point x="615" y="316"/>
      <point x="608" y="242" type="curve" smooth="yes"/>
      <point x="602" y="166"/>
      <point x="544" y="130"/>
      <point x="415" y="130" type="curve" smooth="yes"/>
      <point x="344" y="130" type="line"/>
      <point x="344" y="0" type="line"/>
      <point x="415" y="0" type="line" smooth="yes"/>
      <point x="637" y="0"/>
      <point x="727" y="70"/>
      <point x="735" y="239" type="curve"/>
      <point x="741" y="319"/>
      <point x="741" y="380"/>
      <point x="735" y="459" type="curve"/>
      <point x="732" y="562"/>
      <point x="680" y="617"/>
      <point x="569" y="641" type="curve"/>
      <point x="569" y="671" type="line"/>
      <point x="670" y="697"/>
      <point x="717" y="750"/>
      <point x="721" y="847" type="curve" smooth="yes"/>
      <point x="724" y="910"/>
      <point x="724" y="972"/>
      <point x="721" y="1059" type="curve" smooth="yes"/>
      <point x="715" y="1229"/>
      <point x="632" y="1298"/>
      <point x="411" y="1298" type="curve" smooth="yes"/>
      <point x="181" y="1298"/>
      <point x="92" y="1229"/>
      <point x="92" y="1056" type="curve" smooth="yes"/>
      <point x="92" y="0" type="line"/>
    </contour>
  </outline>
</glyph>
<glyph name="ae" format="2">
  <advance width="1169"/>
  <unicode hex="00E6"/>
  <anchor x="602" y="973" name="top"/>
  <outline>
    <contour>
      <point x="303" y="-11" type="curve" smooth="yes"/>
      <point x="413" y="-11"/>
      <point x="491" y="25"/>
      <point x="527" y="92" type="curve"/>
      <point x="542" y="92" type="line"/>
      <point x="578" y="20"/>
      <point x="663" y="-12"/>
      <point x="815" y="-12" type="curve" smooth="yes"/>
      <point x="1018" y="-12"/>
      <point x="1091" y="52"/>
      <point x="1097" y="210" type="curve"/>
      <point x="1100" y="251"/>
      <point x="1099" y="308"/>
      <point x="1094" y="347" type="curve"/>
      <point x="969" y="347" type="line"/>
      <point x="974" y="284"/>
      <point x="974" y="233"/>
      <point x="972" y="197" type="curve"/>
      <point x="968" y="124"/>
      <point x="924" y="100"/>
      <point x="814" y="100" type="curve" smooth="yes"/>
      <point x="700" y="100"/>
      <point x="648" y="124"/>
      <point x="648" y="197" type="curve" smooth="yes"/>
      <point x="648" y="287"/>
      <point x="648" y="379"/>
      <point x="648" y="469" type="curve"/>
      <point x="1094" y="469" type="line"/>
      <point x="1103" y="601"/>
      <point x="1100" y="720"/>
      <point x="1097" y="767" type="curve" smooth="yes"/>
      <point x="1091" y="923"/>
      <point x="1010" y="986"/>
      <point x="815" y="986" type="curve" smooth="yes"/>
      <point x="710" y="986"/>
      <point x="637" y="974"/>
      <point x="589" y="943" type="curve"/>
      <point x="546" y="972"/>
      <point x="477" y="986"/>
      <point x="373" y="986" type="curve" smooth="yes"/>
      <point x="177" y="986"/>
      <point x="96" y="921"/>
      <point x="90" y="767" type="curve"/>
      <point x="87" y="725"/>
      <point x="90" y="664"/>
      <point x="93" y="631" type="curve"/>
      <point x="218" y="631" type="line"/>
      <point x="215" y="673"/>
      <point x="215" y="748"/>
      <point x="218" y="781" type="curve" smooth="yes"/>
      <point x="223" y="851"/>
      <point x="271" y="874"/>
      <point x="369" y="874" type="curve" smooth="yes"/>
      <point x="479" y="874"/>
      <point x="520" y="843"/>
      <point x="520" y="778" type="curve" smooth="yes"/>
      <point x="520" y="708"/>
      <point x="520" y="640"/>
      <point x="520" y="570" type="curve"/>
      <point x="443" y="550"/>
      <point x="365" y="525"/>
      <point x="297" y="500" type="curve"/>
      <point x="150" y="441"/>
      <point x="76" y="372"/>
      <point x="69" y="266" type="curve"/>
      <point x="66" y="241"/>
      <point x="69" y="213"/>
      <point x="70" y="187" type="curve"/>
      <point x="80" y="51"/>
      <point x="158" y="-11"/>
    </contour>
    <contour>
      <point x="338" y="97" type="curve" smooth="yes"/>
      <point x="259" y="97"/>
      <point x="206" y="133"/>
      <point x="199" y="197" type="curve" smooth="yes"/>
      <point x="196" y="222"/>
      <point x="196" y="248"/>
      <point x="195" y="266" type="curve"/>
      <point x="200" y="325"/>
      <point x="240" y="362"/>
      <point x="321" y="397" type="curve"/>
      <point x="405" y="428"/>
      <point x="467" y="445"/>
      <point x="520" y="460" type="curve"/>
      <point x="520" y="388"/>
      <point x="523" y="318"/>
      <point x="523" y="255" type="curve" smooth="yes"/>
      <point x="522" y="125"/>
      <point x="427" y="97"/>
    </contour>
    <contour>
      <point x="648" y="576" type="line"/>
      <point x="648" y="640"/>
      <point x="648" y="707"/>
      <point x="648" y="781" type="curve" smooth="yes"/>
      <point x="648" y="848"/>
      <point x="701" y="874"/>
      <point x="815" y="874" type="curve" smooth="yes"/>
      <point x="921" y="874"/>
      <point x="964" y="848"/>
      <point x="972" y="781" type="curve"/>
      <point x="974" y="743"/>
      <point x="974" y="658"/>
      <point x="972" y="576" type="curve"/>
    </contour>
  </outline>
</glyph>
<glyph name="eth" format="2">
  <advance width="776"/>
  <unicode hex="00F0"/>
  <outline>
    <contour>
      <point x="384" y="-12" type="curve" smooth="yes"/>
      <point x="584" y="-12"/>
      <point x="673" y="57"/>
      <point x="674" y="232" type="curve" smooth="yes"/>
      <point x="677" y="349"/>
      <point x="675" y="499"/>
      <point x="674" y="616" type="curve" smooth="yes"/>
      <point x="670" y="810"/>
      <point x="628" y="959"/>
      <point x="545" y="1079" type="curve"/>
      <point x="689" y="1124" type="line"/>
      <point x="659" y="1180" type="line"/>
      <point x="510" y="1130" type="line"/>
      <point x="440" y="1201"/>
      <point x="350" y="1257"/>
      <point x="238" y="1310" type="curve"/>
      <point x="172" y="1187" type="line"/>
      <point x="260" y="1148"/>
      <point x="337" y="1108"/>
      <point x="394" y="1055" type="curve"/>
      <point x="201" y="1004" type="line"/>
      <point x="233" y="948" type="line"/>
      <point x="432" y="1005" type="line"/>
      <point x="478" y="949"/>
      <point x="511" y="884"/>
      <point x="526" y="809" type="curve"/>
      <point x="508" y="809" type="line"/>
      <point x="479" y="851"/>
      <point x="403" y="881"/>
      <point x="316" y="881" type="curve" smooth="yes"/>
      <point x="168" y="881"/>
      <point x="86" y="803"/>
      <point x="83" y="664" type="curve" smooth="yes"/>
      <point x="77" y="495"/>
      <point x="76" y="344"/>
      <point x="83" y="232" type="curve" smooth="yes"/>
      <point x="91" y="57"/>
      <point x="175" y="-12"/>
    </contour>
    <contour>
      <point x="383" y="108" type="curve" smooth="yes"/>
      <point x="267" y="108"/>
      <point x="216" y="140"/>
      <point x="211" y="207" type="curve" smooth="yes"/>
      <point x="204" y="340"/>
      <point x="205" y="500"/>
      <point x="211" y="661" type="curve" smooth="yes"/>
      <point x="215" y="730"/>
      <point x="260" y="761"/>
      <point x="360" y="761" type="curve" smooth="yes"/>
      <point x="459" y="761"/>
      <point x="542" y="730"/>
      <point x="544" y="676" type="curve" smooth="yes"/>
      <point x="547" y="500"/>
      <point x="546" y="353"/>
      <point x="544" y="207" type="curve" smooth="yes"/>
      <point x="542" y="140"/>
      <point x="491" y="108"/>
    </contour>
  </outline>
</glyph>
<glyph name="divide" format="2">
  <advance width="838"/>
  <unicode hex="00F7"/>
  <outline>
    <contour>
      <point x="749" y="622" type="line"/>
      <point x="749" y="739" type="line"/>
      <point x="90" y="739" type="line"/>
      <point x="90" y="622" type="line"/>
    </contour>
    <contour>
      <point x="490" y="837" type="line"/>
      <point x="490" y="979" type="line"/>
      <point x="351" y="979" type="line"/>
      <point x="351" y="837" type="line"/>
    </contour>
    <contour>
      <point x="490" y="383" type="line"/>
      <point x="490" y="524" type="line"/>
      <point x="351" y="524" type="line"/>
      <point x="351" y="383" type="line"/>
    </contour>
  </outline>
</glyph>
<glyph name="oslash" format="2">
  <advance width="776"/>
  <unicode hex="00F8"/>
  <outline>
    <contour>
      <point x="183" y="233" type="line"/>
      <point x="681" y="681" type="line"/>
      <point x="642" y="750" type="line"/>
      <point x="127" y="291" type="line"/>
    </contour>
    <contour>
      <point x="388" y="-12" type="curve" smooth="yes"/>
      <point x="606" y="-12"/>
      <point x="680" y="58"/>
      <point x="687" y="230" type="curve"/>
      <point x="700" y="382"/>
      <point x="698" y="596"/>
      <point x="687" y="744" type="curve"/>
      <point x="680" y="917"/>
      <point x="606" y="986"/>
      <point x="388" y="986" type="curve" smooth="yes"/>
      <point x="172" y="986"/>
      <point x="94" y="917"/>
      <point x="87" y="744" type="curve"/>
      <point x="75" y="593"/>
      <point x="75" y="377"/>
      <point x="87" y="230" type="curve"/>
      <point x="94" y="57"/>
      <point x="172" y="-12"/>
    </contour>
    <contour>
      <point x="388" y="100" type="curve" smooth="yes"/>
      <point x="267" y="100"/>
      <point x="218" y="127"/>
      <point x="215" y="197" type="curve" smooth="yes"/>
      <point x="201" y="404"/>
      <point x="203" y="569"/>
      <point x="215" y="777" type="curve" smooth="yes"/>
      <point x="219" y="847"/>
      <point x="263" y="874"/>
      <point x="388" y="874" type="curve" smooth="yes"/>
      <point x="512" y="874"/>
      <point x="557" y="847"/>
      <point x="560" y="777" type="curve" smooth="yes"/>
      <point x="573" y="569"/>
      <point x="573" y="405"/>
      <point x="560" y="197" type="curve" smooth="yes"/>
      <point x="557" y="127"/>
      <point x="509" y="100"/>
    </contour>
  </outline>
</glyph>
<glyph name="thorn" format="2">
  <advance width="772"/>
  <unicode hex="00FE"/>
  <outline>
    <contour>
      <point x="219" y="-324" type="line"/>
      <point x="219" y="92" type="line"/>
      <point x="248" y="92" type="line"/>
      <point x="296" y="18"/>
      <point x="351" y="-12"/>
      <point x="450" y="-12" type="curve" smooth="yes"/>
      <point x="601" y="-12"/>
      <point x="674" y="49"/>
      <point x="679" y="203" type="curve" smooth="yes"/>
      <point x="684" y="359"/>
      <point x="684" y="636"/>
      <point x="679" y="771" type="curve" smooth="yes"/>
      <point x="674" y="926"/>
      <point x="605" y="986"/>
      <point x="456" y="986" type="curve" smooth="yes"/>
      <point x="345" y="986"/>
      <point x="293" y="952"/>
      <point x="248" y="882" type="curve"/>
      <point x="219" y="882" type="line"/>
      <point x="219" y="1298" type="line"/>
      <point x="91" y="1298" type="line"/>
      <point x="91" y="-324" type="line"/>
    </contour>
    <contour>
      <point x="413" y="97" type="curve" smooth="yes"/>
      <point x="310" y="97"/>
      <point x="255" y="123"/>
      <point x="219" y="188" type="curve"/>
      <point x="219" y="786" type="line"/>
      <point x="253" y="847"/>
      <point x="319" y="877"/>
      <point x="419" y="877" type="curve" smooth="yes"/>
      <point x="512" y="877"/>
      <point x="548" y="849"/>
      <point x="551" y="782" type="curve" smooth="yes"/>
      <point x="558" y="604"/>
      <point x="561" y="398"/>
      <point x="551" y="192" type="curve" smooth="yes"/>
      <point x="547" y="126"/>
      <point x="504" y="97"/>
    </contour>
  </outline>
</glyph>
<glyph name="idotless" format="2">
  <advance width="365"/>
  <unicode hex="0131"/>
  <anchor x="183" y="0" name="bottom"/>
  <anchor x="185" y="0" name="ogonek"/>
  <anchor x="183" y="973" name="top"/>
  <outline>
    <contour>
      <point x="248" y="0" type="line"/>
      <point x="248" y="973" type="line"/>
      <point x="118" y="973" type="line"/>
      <point x="118" y="0" type="line"/>
    </contour>
  </outline>
</glyph>
<glyph name="Lslash" format="2">
  <advance width="690"/>
  <unicode hex="0141"/>
  <anchor x="427" y="0" name="bottom"/>
  <anchor x="406" y="714" name="center"/>
  <anchor x="406" y="1428" name="top"/>
  <anchor x="680" y="1428" name="topright"/>
  <outline>
    <contour>
      <point x="674" y="0" type="line"/>
      <point x="674" y="128" type="line"/>
      <point x="315" y="128" type="line"/>
      <point x="315" y="712" type="line"/>
      <point x="470" y="1071" type="line"/>
      <point x="357" y="1071" type="line"/>
      <point x="315" y="948" type="line"/>
      <point x="315" y="1428" type="line"/>
      <point x="174" y="1428" type="line"/>
      <point x="174" y="692" type="line"/>
      <point x="25" y="341" type="line"/>
      <point x="131" y="341" type="line"/>
      <point x="174" y="471" type="line"/>
      <point x="174" y="0" type="line"/>
    </contour>
  </outline>
</glyph>
<glyph name="lslash" format="2">
  <advance width="365"/>
  <unicode hex="0142"/>
  <anchor x="198" y="0" name="bottom"/>
  <anchor x="198" y="649" name="center"/>
  <anchor x="198" y="1298" name="top"/>
  <anchor x="264" y="1036" name="topright"/>
  <outline>
    <contour>
      <point x="263" y="0" type="line"/>
      <point x="263" y="646" type="line"/>
      <point x="377" y="973" type="line"/>
      <point x="279" y="973" type="line"/>
      <point x="263" y="870" type="line"/>
      <point x="263" y="1298" type="line"/>
      <point x="133" y="1298" type="line"/>
      <point x="133" y="626" type="line"/>
      <point x="26" y="307" type="line"/>
      <point x="116" y="307" type="line"/>
      <point x="133" y="418" type="line"/>
      <point x="133" y="0" type="line"/>
    </contour>
  </outline>
</glyph>
<glyph name="OE" format="2">
  <advance width="1208"/>
  <unicode hex="0152"/>
  <anchor x="883" y="0" name="bottom"/>
  <anchor x="413" y="714" name="center"/>
  <anchor x="987" y="0" name="ogonek"/>
  <anchor x="880" y="1428" name="top"/>
  <anchor x="550" y="1428" name="topleft"/>
  <anchor x="797" y="1428" name="topright"/>
  <outline>
    <contour>
      <point x="411" y="-13" type="curve" smooth="yes"/>
      <point x="508" y="-13"/>
      <point x="577" y="-2"/>
      <point x="622" y="19" type="curve"/>
      <point x="622" y="0" type="line" name=".hr01"/>
      <point x="1171" y="0" type="line"/>
      <point x="1171" y="128" type="line"/>
      <point x="746" y="128" type="line"/>
      <point x="746" y="656" type="line"/>
      <point x="1143" y="656" type="line"/>
      <point x="1143" y="784" type="line"/>
      <point x="746" y="784" type="line"/>
      <point x="746" y="1300" type="line"/>
      <point x="1171" y="1300" type="line"/>
      <point x="1171" y="1428" type="line"/>
      <point x="622" y="1428" type="line"/>
      <point x="622" y="1409" type="line"/>
      <point x="577" y="1431"/>
      <point x="508" y="1441"/>
      <point x="411" y="1441" type="curve" smooth="yes"/>
      <point x="182" y="1441"/>
      <point x="93" y="1369"/>
      <point x="88" y="1189" type="curve" smooth="yes"/>
      <point x="77" y="865"/>
      <point x="77" y="564"/>
      <point x="88" y="240" type="curve" smooth="yes"/>
      <point x="93" y="60"/>
      <point x="182" y="-13"/>
    </contour>
    <contour>
      <point x="411" y="107" type="curve" smooth="yes"/>
      <point x="280" y="107"/>
      <point x="230" y="139"/>
      <point x="227" y="216" type="curve" smooth="yes"/>
      <point x="215" y="549"/>
      <point x="211" y="889"/>
      <point x="227" y="1212" type="curve" smooth="yes"/>
      <point x="230" y="1290"/>
      <point x="280" y="1321"/>
      <point x="411" y="1321" type="curve" smooth="yes"/>
      <point x="543" y="1321"/>
      <point x="593" y="1290"/>
      <point x="596" y="1212" type="curve" smooth="yes"/>
      <point x="606" y="928"/>
      <point x="606" y="488"/>
      <point x="596" y="216" type="curve" smooth="yes"/>
      <point x="593" y="139"/>
      <point x="545" y="107"/>
    </contour>
  </outline>
</glyph>
<glyph name="oe" format="2">
  <advance width="1174"/>
  <unicode hex="0153"/>
  <outline>
    <contour>
      <point x="372" y="-12" type="curve" smooth="yes"/>
      <point x="579" y="-12"/>
      <point x="649" y="58"/>
      <point x="656" y="230" type="curve"/>
      <point x="667" y="382"/>
      <point x="666" y="596"/>
      <point x="656" y="744" type="curve"/>
      <point x="649" y="917"/>
      <point x="579" y="986"/>
      <point x="372" y="986" type="curve" smooth="yes"/>
      <point x="167" y="986"/>
      <point x="93" y="917"/>
      <point x="86" y="744" type="curve"/>
      <point x="75" y="593"/>
      <point x="75" y="377"/>
      <point x="86" y="230" type="curve"/>
      <point x="92" y="57"/>
      <point x="166" y="-12"/>
    </contour>
    <contour>
      <point x="372" y="100" type="curve" smooth="yes"/>
      <point x="262" y="100"/>
      <point x="217" y="127"/>
      <point x="214" y="197" type="curve" smooth="yes"/>
      <point x="201" y="404"/>
      <point x="203" y="569"/>
      <point x="214" y="777" type="curve" smooth="yes"/>
      <point x="218" y="847"/>
      <point x="258" y="874"/>
      <point x="372" y="874" type="curve" smooth="yes"/>
      <point x="485" y="874"/>
      <point x="525" y="847"/>
      <point x="528" y="777" type="curve" smooth="yes"/>
      <point x="540" y="569"/>
      <point x="540" y="405"/>
      <point x="528" y="197" type="curve" smooth="yes"/>
      <point x="525" y="127"/>
      <point x="482" y="100"/>
    </contour>
    <contour>
      <point x="826" y="-12" type="curve" smooth="yes"/>
      <point x="1023" y="-12"/>
      <point x="1092" y="52"/>
      <point x="1101" y="210" type="curve" smooth="yes"/>
      <point x="1104" y="251"/>
      <point x="1104" y="308"/>
      <point x="1099" y="347" type="curve"/>
      <point x="974" y="347" type="line"/>
      <point x="976" y="284"/>
      <point x="976" y="233"/>
      <point x="974" y="197" type="curve" smooth="yes"/>
      <point x="970" y="124"/>
      <point x="931" y="100"/>
      <point x="823" y="100" type="curve" smooth="yes"/>
      <point x="713" y="100"/>
      <point x="668" y="124"/>
      <point x="667" y="197" type="curve" smooth="yes"/>
      <point x="664" y="290"/>
      <point x="662" y="376"/>
      <point x="662" y="460" type="curve"/>
      <point x="1099" y="460" type="line"/>
      <point x="1109" y="591"/>
      <point x="1104" y="720"/>
      <point x="1101" y="767" type="curve" smooth="yes"/>
      <point x="1092" y="923"/>
      <point x="1013" y="986"/>
      <point x="825" y="986" type="curve" smooth="yes"/>
      <point x="628" y="986"/>
      <point x="544" y="922"/>
      <point x="538" y="761" type="curve" smooth="yes"/>
      <point x="529" y="610"/>
      <point x="530" y="357"/>
      <point x="538" y="210" type="curve" smooth="yes"/>
      <point x="543" y="52"/>
      <point x="623" y="-12"/>
    </contour>
    <contour>
      <point x="662" y="566" type="line"/>
      <point x="663" y="634"/>
      <point x="664" y="703"/>
      <point x="667" y="781" type="curve" smooth="yes"/>
      <point x="669" y="848"/>
      <point x="714" y="874"/>
      <point x="825" y="874" type="curve" smooth="yes"/>
      <point x="928" y="874"/>
      <point x="970" y="848"/>
      <point x="974" y="781" type="curve"/>
      <point x="979" y="750"/>
      <point x="979" y="657"/>
      <point x="976" y="566" type="curve"/>
    </contour>
  </outline>
</glyph>
<glyph name="florin" format="2">
  <advance width="625"/>
  <unicode hex="0192"/>
  <outline>
    <contour>
      <point x="168" y="-12" type="curve" smooth="yes"/>
      <point x="288" y="-12"/>
      <point x="352" y="43"/>
      <point x="383" y="202" type="curve"/>
      <point x="443" y="623" type="line"/>
      <point x="596" y="623" type="line"/>
      <point x="596" y="700" type="line"/>
      <point x="460" y="700" type="line"/>
      <point x="513" y="1093" type="line" smooth="yes"/>
      <point x="522" y="1162"/>
      <point x="553" y="1196"/>
      <point x="593" y="1196" type="curve" smooth="yes"/>
      <point x="614" y="1196"/>
      <point x="635" y="1196"/>
      <point x="656" y="1194" type="curve"/>
      <point x="671" y="1301" type="line"/>
      <point x="650" y="1308"/>
      <point x="627" y="1312"/>
      <point x="600" y="1312" type="curve" smooth="yes"/>
      <point x="481" y="1312"/>
      <point x="416" y="1256"/>
      <point x="385" y="1098" type="curve"/>
      <point x="331" y="700" type="line"/>
      <point x="201" y="700" type="line"/>
      <point x="201" y="623" type="line"/>
      <point x="314" y="623" type="line"/>
      <point x="256" y="207" type="line" smooth="yes"/>
      <point x="246" y="137"/>
      <point x="216" y="103"/>
      <point x="176" y="103" type="curve" smooth="yes"/>
      <point x="162" y="103"/>
      <point x="129" y="105"/>
      <point x="114" y="108" type="curve"/>
      <point x="97" y="-2" type="line"/>
      <point x="118" y="-8"/>
      <point x="142" y="-12"/>
    </contour>
  </outline>
</glyph>
<glyph name="circumflex" format="2">
  <advance width="819"/>
  <unicode hex="02C6"/>
  <outline>
    <contour>
      <point x="222" y="1040" type="line"/>
      <point x="414" y="1147" type="line"/>
      <point x="599" y="1040" type="line"/>
      <point x="724" y="1040" type="line"/>
      <point x="468" y="1235" type="line"/>
      <point x="355" y="1235" type="line"/>
      <point x="94" y="1040" type="line"/>
    </contour>
  </outline>
</glyph>
<glyph name="caron" format="2">
  <advance width="819"/>
  <unicode hex="02C7"/>
  <outline>
    <contour>
      <point x="466" y="1040" type="line"/>
      <point x="724" y="1235" type="line"/>
      <point x="608" y="1235" type="line"/>
      <point x="410" y="1117" type="line"/>
      <point x="211" y="1235" type="line"/>
      <point x="94" y="1235" type="line"/>
      <point x="356" y="1040" type="line"/>
    </contour>
  </outline>
</glyph>
<glyph name="breve" format="2">
  <advance width="819"/>
  <unicode hex="02D8"/>
  <outline>
    <contour>
      <point x="411" y="1136" type="curve" smooth="yes"/>
      <point x="630" y="1136"/>
      <point x="720" y="1194"/>
      <point x="726" y="1340" type="curve"/>
      <point x="628" y="1340" type="line"/>
      <point x="623" y="1253"/>
      <point x="566" y="1219"/>
      <point x="411" y="1219" type="curve" smooth="yes"/>
      <point x="253" y="1219"/>
      <point x="196" y="1253"/>
      <point x="196" y="1340" type="curve"/>
      <point x="93" y="1340" type="line"/>
      <point x="99" y="1194"/>
      <point x="192" y="1136"/>
    </contour>
  </outline>
</glyph>
<glyph name="dotaccent" format="2">
  <advance width="819"/>
  <unicode hex="02D9"/>
  <outline>
    <contour>
      <point x="476" y="1142" type="line"/>
      <point x="476" y="1257" type="line"/>
      <point x="275" y="1257" type="line"/>
      <point x="275" y="1142" type="line"/>
    </contour>
  </outline>
</glyph>
<glyph name="ring" format="2">
  <advance width="819"/>
  <unicode hex="02DA"/>
  <outline>
    <contour>
      <point x="361" y="1136" type="curve" smooth="yes"/>
      <point x="505" y="1136"/>
      <point x="634" y="1197"/>
      <point x="634" y="1272" type="curve" smooth="yes"/>
      <point x="634" y="1347"/>
      <point x="505" y="1409"/>
      <point x="361" y="1409" type="curve" smooth="yes"/>
      <point x="216" y="1409"/>
      <point x="93" y="1347"/>
      <point x="93" y="1272" type="curve" smooth="yes"/>
      <point x="93" y="1197"/>
      <point x="216" y="1136"/>
    </contour>
    <contour>
      <point x="361" y="1221" type="curve" smooth="yes"/>
      <point x="278" y="1221"/>
      <point x="210" y="1244"/>
      <point x="210" y="1272" type="curve" smooth="yes"/>
      <point x="210" y="1301"/>
      <point x="278" y="1323"/>
      <point x="361" y="1323" type="curve" smooth="yes"/>
      <point x="445" y="1323"/>
      <point x="512" y="1301"/>
      <point x="512" y="1272" type="curve" smooth="yes"/>
      <point x="512" y="1244"/>
      <point x="445" y="1221"/>
    </contour>
  </outline>
</glyph>
<glyph name="ogonek" format="2">
  <advance width="819"/>
  <unicode hex="02DB"/>
  <outline>
    <contour>
      <point x="633" y="-170" type="line"/>
      <point x="457" y="-170" type="line" smooth="yes"/>
      <point x="301" y="-170"/>
      <point x="241" y="-146"/>
      <point x="278" y="-89" type="curve"/>
      <point x="356" y="0" type="line"/>
      <point x="222" y="0" type="line"/>
      <point x="146" y="-89" type="line"/>
      <point x="102" y="-198"/>
      <point x="207" y="-248"/>
      <point x="457" y="-248" type="curve" smooth="yes"/>
      <point x="633" y="-248" type="line"/>
    </contour>
  </outline>
</glyph>
<glyph name="tilde" format="2">
  <advance width="819"/>
  <unicode hex="02DC"/>
  <outline>
    <contour>
      <point x="600" y="1285" type="line"/>
      <point x="601" y="1247"/>
      <point x="573" y="1226"/>
      <point x="530" y="1226" type="curve" smooth="yes"/>
      <point x="436" y="1226"/>
      <point x="448" y="1294"/>
      <point x="295" y="1294" type="curve" smooth="yes"/>
      <point x="195" y="1294"/>
      <point x="134" y="1248"/>
      <point x="120" y="1149" type="curve"/>
      <point x="206" y="1149" type="line"/>
      <point x="215" y="1188"/>
      <point x="246" y="1212"/>
      <point x="289" y="1212" type="curve" smooth="yes"/>
      <point x="393" y="1212"/>
      <point x="393" y="1143"/>
      <point x="535" y="1143" type="curve" smooth="yes"/>
      <point x="632" y="1143"/>
      <point x="688" y="1190"/>
      <point x="686" y="1285" type="curve"/>
    </contour>
  </outline>
</glyph>
<glyph name="hungarumlaut" format="2">
  <advance width="819"/>
  <unicode hex="02DD"/>
  <outline>
    <contour>
      <point x="207" y="1144" type="line"/>
      <point x="438" y="1356" type="line"/>
      <point x="322" y="1356" type="line"/>
      <point x="89" y="1144" type="line"/>
    </contour>
    <contour>
      <point x="471" y="1144" type="line"/>
      <point x="702" y="1356" type="line"/>
      <point x="584" y="1356" type="line"/>
      <point x="353" y="1144" type="line"/>
    </contour>
  </outline>
</glyph>
<glyph name="gravecomb" format="2">
  <advance width="354"/>
  <unicode hex="0300"/>
  <anchor x="241" y="1071" name="_top"/>
  <anchor x="154" y="1356" name="top"/>
  <outline>
    <contour>
      <point x="269" y="1142" type="line"/>
      <point x="186" y="1355" type="line"/>
      <point x="96" y="1355" type="line"/>
      <point x="184" y="1142" type="line"/>
    </contour>
  </outline>
</glyph>
<glyph name="acutecomb" format="2">
  <advance width="364"/>
  <unicode hex="0301"/>
  <anchor x="131" y="1071" name="_top"/>
  <anchor x="131" y="1356" name="top"/>
  <outline>
    <contour>
      <point x="178" y="1142" type="line"/>
      <point x="275" y="1355" type="line"/>
      <point x="185" y="1355" type="line"/>
      <point x="93" y="1142" type="line"/>
    </contour>
  </outline>
</glyph>
<glyph name="circumflexcomb" format="2">
  <advance width="432"/>
  <unicode hex="0302"/>
  <anchor x="216" y="1071" name="_top"/>
  <anchor x="215" y="1356" name="top"/>
  <outline>
    <contour>
      <point x="186" y="1144" type="line"/>
      <point x="215" y="1263" type="line"/>
      <point x="244" y="1144" type="line"/>
      <point x="333" y="1144" type="line"/>
      <point x="255" y="1356" type="line"/>
      <point x="175" y="1356" type="line"/>
      <point x="97" y="1144" type="line"/>
    </contour>
  </outline>
</glyph>
<glyph name="tildecomb" format="2">
  <advance width="497"/>
  <unicode hex="0303"/>
  <anchor x="249" y="1068" name="_top"/>
  <anchor x="249" y="1291" name="top"/>
  <outline>
    <contour>
      <point x="319" y="1285" type="line"/>
      <point x="317" y="1247"/>
      <point x="314" y="1226"/>
      <point x="297" y="1226" type="curve" smooth="yes"/>
      <point x="263" y="1226"/>
      <point x="259" y="1294"/>
      <point x="203" y="1294" type="curve" smooth="yes"/>
      <point x="157" y="1294"/>
      <point x="131" y="1248"/>
      <point x="126" y="1149" type="curve"/>
      <point x="179" y="1149" type="line"/>
      <point x="181" y="1188"/>
      <point x="184" y="1212"/>
      <point x="205" y="1212" type="curve" smooth="yes"/>
      <point x="241" y="1212"/>
      <point x="242" y="1143"/>
      <point x="297" y="1143" type="curve" smooth="yes"/>
      <point x="343" y="1143"/>
      <point x="368" y="1190"/>
      <point x="371" y="1285" type="curve"/>
    </contour>
  </outline>
</glyph>
<glyph name="macroncomb" format="2">
  <advance width="576"/>
  <unicode hex="0304"/>
  <anchor x="295" y="1071" name="_top"/>
  <anchor x="295" y="1224" name="top"/>
  <outline>
    <contour>
      <point x="134" y="1137" type="line"/>
      <point x="452" y="1137" type="line"/>
      <point x="452" y="1216" type="line"/>
      <point x="134" y="1216" type="line"/>
    </contour>
  </outline>
</glyph>
<glyph name="brevecomb" format="2">
  <advance width="482"/>
  <unicode hex="0306"/>
  <anchor x="240" y="1071" name="_top"/>
  <anchor x="240" y="1317" name="top"/>
  <outline>
    <contour>
      <point x="240" y="1136" type="curve" smooth="yes"/>
      <point x="336" y="1136"/>
      <point x="376" y="1194"/>
      <point x="383" y="1340" type="curve"/>
      <point x="300" y="1340" type="line"/>
      <point x="300" y="1253"/>
      <point x="282" y="1219"/>
      <point x="240" y="1219" type="curve" smooth="yes"/>
      <point x="197" y="1219"/>
      <point x="179" y="1253"/>
      <point x="179" y="1340" type="curve"/>
      <point x="97" y="1340" type="line"/>
      <point x="102" y="1194"/>
      <point x="143" y="1136"/>
    </contour>
  </outline>
</glyph>
<glyph name="dotaccentcomb" format="2">
  <advance width="240"/>
  <unicode hex="0307"/>
  <anchor x="125" y="1071" name="_top"/>
  <anchor x="125" y="1258" name="top"/>
  <outline>
    <contour>
      <point x="171" y="1142" type="line"/>
      <point x="171" y="1257" type="line"/>
      <point x="78" y="1257" type="line"/>
      <point x="78" y="1142" type="line"/>
    </contour>
  </outline>
</glyph>
<glyph name="dieresiscomb" format="2">
  <advance width="479"/>
  <unicode hex="0308"/>
  <anchor x="244" y="1071" name="_top"/>
  <anchor x="244" y="1258" name="top"/>
  <outline>
    <contour>
      <point x="363" y="1169" type="line"/>
      <point x="363" y="1284" type="line"/>
      <point x="270" y="1284" type="line"/>
      <point x="270" y="1169" type="line"/>
    </contour>
    <contour>
      <point x="219" y="1169" type="line"/>
      <point x="219" y="1284" type="line"/>
      <point x="126" y="1284" type="line"/>
      <point x="126" y="1169" type="line"/>
    </contour>
  </outline>
</glyph>
